<svg xmlns="http://www.w3.org/2000/svg" xmlns:xlink="http://www.w3.org/1999/xlink" viewBox="0 0 51.98 92.21"><defs><style>.a{isolation:isolate;}.b{fill:url(#a);}.c{fill:#840034;opacity:0.3;mix-blend-mode:multiply;}.d{fill:url(#b);}.e{fill:url(#c);}.f,.h{fill:#fff;}.g{fill:#ffa435;}.h{opacity:0.2;}</style><linearGradient id="a" x1="46.95" y1="72.05" x2="68.48" y2="72.05" gradientTransform="matrix(0.82, -0.58, -0.59, -0.83, 31.1, 176.43)" gradientUnits="userSpaceOnUse"><stop offset="0.16" stop-color="#fe0034"/><stop offset="1" stop-color="#fe0034"/></linearGradient><linearGradient id="b" x1="2.52" y1="14.53" x2="24.05" y2="14.53" gradientTransform="matrix(1, 0, 0, 1, 0, 0)" xlink:href="#a"/><linearGradient id="c" x1="0" y1="48.67" x2="48.91" y2="48.67" gradientTransform="matrix(1, 0, 0, 1, 0, 0)" xlink:href="#a"/></defs><title>Asset 2</title><g class="a"><path class="b" d="M28.59,70.48s.18,22.61.52,21.7,4.37-10.11,4.37-10.11,7.19,10.64,6.72,10S39,81.51,39,81.51s13.43,9.24,13,8.57-14.6-23.46-14.6-23.46Z"/><path class="c" d="M40.19,92s0,0,0,0Z"/><path class="c" d="M30.77,73.87l2.39,8.95.32-.75,6.71,10a7,7,0,0,1-.35-1.7c-2.12-5.7-6.25-17.26-6.25-17.26l5.49,9.32c0-.54-.07-.87-.07-.87s6.44,4.43,10.25,6.93l2.52,1.34c-.27-.42-.8-1.27-1.5-2.39L37.22,72.66,40,70.86l-2.63-4.24-8.78,3.86s.15,18.92.44,21.44l.08.26c.06-.16.25-.61.52-1.23C29.92,88.17,30.77,73.87,30.77,73.87Z"/><path class="d" d="M14.65,29.06S1.75,10.78,2.55,11.32,12,17,12,17s-.27-12.63-.27-11.82,5.11,9.14,5.11,9.14S22.44-.78,22.44,0s1.61,27.14,1.61,27.14Z"/><path class="c" d="M14.65,29.06l5.94-1.19.64-1.5.2-24.13c-1.53,3.79-4.29,11.13-4.6,12l2.52,11.64L11.71,5.59c0,2,.21,9.47.24,11.07l3.1,5.68L3.92,13.6C7.12,18.39,14.65,29.06,14.65,29.06Z"/><path class="e" d="M48.91,48.67A24.46,24.46,0,1,1,24.46,24.22,24.46,24.46,0,0,1,48.91,48.67Z"/><path class="f" d="M24.46,73.13l.8,0a2.41,2.41,0,0,0-4.8-.31A25,25,0,0,0,24.46,73.13Z"/><path class="g" d="M32.79,26a2,2,0,0,0,2,2,2,2,0,0,0,1.51-.69,24,24,0,0,0-3.49-1.6A1.27,1.27,0,0,0,32.79,26Z"/><path class="g" d="M26.87,48.27a2,2,0,1,0,2-2A2,2,0,0,0,26.87,48.27Z"/><path class="g" d="M19.62,31.34a3.63,3.63,0,1,0,3.63-3.63A3.63,3.63,0,0,0,19.62,31.34Z"/><path class="g" d="M32.79,36.85a4.3,4.3,0,1,0,4.3-4.3A4.3,4.3,0,0,0,32.79,36.85Z"/><path class="g" d="M18.54,65.61a1.08,1.08,0,1,0-1.07-1.08A1.08,1.08,0,0,0,18.54,65.61Z"/><path class="g" d="M10.48,62.11a4.83,4.83,0,0,0-8.31-3.36A24.64,24.64,0,0,0,7.7,66.48,4.82,4.82,0,0,0,10.48,62.11Z"/><path class="g" d="M10.75,36.58A4.29,4.29,0,0,0,11.34,28a24.1,24.1,0,0,0-4.87,4.07,1,1,0,0,0,0,.17A4.3,4.3,0,0,0,10.75,36.58Z"/><path class="g" d="M3.23,46.39A4.16,4.16,0,0,0,.76,42.6,24.8,24.8,0,0,0,0,48.67c0,.59,0,1.17.07,1.75A4.17,4.17,0,0,0,3.23,46.39Z"/><path class="g" d="M46,59.69a2.43,2.43,0,0,0-2,3.76,24.19,24.19,0,0,0,2.33-3.72A1.65,1.65,0,0,0,46,59.69Z"/><path class="g" d="M39,67.89a3.63,3.63,0,1,0-5,3.34,24.63,24.63,0,0,0,5-2.84A4,4,0,0,0,39,67.89Z"/><path class="g" d="M43.81,53a3,3,0,1,0-3,3A3,3,0,0,0,43.81,53Z"/><path class="g" d="M44.07,43.57A1.62,1.62,0,1,0,45.69,42,1.62,1.62,0,0,0,44.07,43.57Z"/><path class="g" d="M16,50.29A1.75,1.75,0,1,0,17.74,52,1.75,1.75,0,0,0,16,50.29Z"/><path class="g" d="M20.16,41.69A1.35,1.35,0,1,0,18.81,43,1.35,1.35,0,0,0,20.16,41.69Z"/><circle class="g" cx="24.72" cy="57.27" r="2.69"/><path class="g" d="M12.23,42A1.75,1.75,0,1,0,14,43.7,1.74,1.74,0,0,0,12.23,42Z"/><path class="h" d="M18.2,30.27A13.26,13.26,0,0,0,7.31,51.11a13.27,13.27,0,0,0,21.76-10.2,13.14,13.14,0,0,0-2.38-7.57A13.2,13.2,0,0,0,18.2,30.27Z"/><path class="c" d="M44.29,34.37A27.09,27.09,0,0,1,17.47,65.29h-.14a27.21,27.21,0,0,1-13.64-3.7,24.45,24.45,0,1,0,40.6-27.22Z"/></g></svg>