<svg xmlns="http://www.w3.org/2000/svg" xmlns:xlink="http://www.w3.org/1999/xlink" viewBox="0 0 52.81 67.83"><defs><style>.a{isolation:isolate;}.b{fill:url(#a);}.c{fill:#840034;opacity:0.3;mix-blend-mode:multiply;}.d{fill:#fff;}.e{fill:url(#c);}.f{fill:#ffa435;}</style><linearGradient id="a" y1="51.24" x2="22.57" y2="51.24" gradientUnits="userSpaceOnUse"><stop offset="0.16" stop-color="#fe0034"/><stop offset="1" stop-color="#fe0034"/></linearGradient><linearGradient id="c" x1="11.91" y1="20.66" x2="51.82" y2="20.66" xlink:href="#a"/></defs><title>Asset 10</title><g class="a"><path class="b" d="M17,36.68Q8.48,50,.58,63.61c-2.24,3.87,2.58,6.08,4.84,2.16Q13.3,52.18,21.89,38.84c2.46-3.83-2.37-6-4.85-2.16Z"/><path class="b" d="M17,36.68Q8.48,50,.58,63.61c-2.24,3.87,2.58,6.08,4.84,2.16Q13.3,52.18,21.89,38.84c2.46-3.83-2.37-6-4.85-2.16Z"/><path class="c" d="M22.56,36.9a3.64,3.64,0,0,0-3.9,1.93Q10.08,52.18,2.19,65.76a3.84,3.84,0,0,0-.57,1.95c1.18.36,2.76-.14,3.8-1.94Q13.3,52.18,21.89,38.84A3.92,3.92,0,0,0,22.56,36.9Z"/><path class="d" d="M46.12,34.6A20.16,20.16,0,1,1,46.5,6.1,20.15,20.15,0,0,1,46.12,34.6Z"/><path class="c" d="M46.12,34.6A20.16,20.16,0,1,1,46.5,6.1,20.15,20.15,0,0,1,46.12,34.6Z"/><path class="d" d="M18,5.71a20.07,20.07,0,0,0-5.88,11.56,20.15,20.15,0,0,0,39.62-1.49A20.17,20.17,0,0,0,18,5.71Z"/><path class="e" d="M51.36,26a19.22,19.22,0,0,1-.79,2.2,47.88,47.88,0,0,0-13.65-1c-7.3.63-14.14,3.05-21.14,4.93a19.1,19.1,0,0,1-1.37-2.16c7.45-2,14.76-4.81,22.51-5.19A59,59,0,0,1,51.36,26ZM20,36.31a21.05,21.05,0,0,0,3,1.85c6.32-1.16,12.69-1,19.11-.52a20.88,20.88,0,0,0,3-2.16C36.68,34.8,28.29,34.31,20,36.31ZM15.7,8.39a19.31,19.31,0,0,0-2,3.46c3.91-2,8.52-2.92,12.58-3.89A106.18,106.18,0,0,1,45.79,5.41,19.29,19.29,0,0,0,42.9,3.17,112.88,112.88,0,0,0,24.75,5.84,76.54,76.54,0,0,0,15.7,8.39Zm36.12,7.8a19.57,19.57,0,0,0-.66-2.47C37.78,12.61,23.67,13,11.92,19.45A20,20,0,0,0,12,22.13C23.72,15.17,38.29,15,51.82,16.19Z"/><path class="f" d="M36.92,24.69c-6.12.3-12,2.11-17.84,3.85a20,20,0,0,0,2.64,1.82,80.21,80.21,0,0,1,15.2-3.25,42.13,42.13,0,0,1,8.91.25l0,0a20.12,20.12,0,0,0,1.8-2A53.93,53.93,0,0,0,36.92,24.69Z"/><path class="f" d="M51.63,15.37c-.06-.23-.11-.46-.18-.68s-.1-.35-.15-.52l-.15-.45C38,12.63,24.22,13,12.62,19.09a20.11,20.11,0,0,0,.86,2.23C24.89,15.2,38.74,15,51.66,16.17c0-.12.05-.24.07-.36S51.67,15.52,51.63,15.37Z"/><path class="f" d="M26.28,8A106.18,106.18,0,0,1,45.79,5.41h0c-.44-.41-.9-.8-1.37-1.16l-.05,0c-.48-.37-1-.71-1.47-1A112.88,112.88,0,0,0,24.75,5.84a76.54,76.54,0,0,0-9,2.55l0,0c-.23.33-.45.66-.66,1-.1.15-.19.3-.28.45-.22.36-.42.73-.61,1.1-.07.13-.12.26-.19.39l-.21.46C17.63,9.88,22.23,8.93,26.28,8Z"/><path class="c" d="M15.26,9a20,20,0,0,0-2.94,7.05L44.09,36.33a21.87,21.87,0,0,0,2-1.73,20.28,20.28,0,0,0,3.13-3.91Z"/><path class="c" d="M15.26,9a20,20,0,0,0-2.94,7.05L44.09,36.33a21.87,21.87,0,0,0,2-1.73,20.28,20.28,0,0,0,3.13-3.91Z"/><rect class="d" x="27.34" y="-1.61" width="7.52" height="46.69" transform="translate(-3.94 36.27) rotate(-57.48)"/><rect class="c" x="27.34" y="-1.61" width="7.52" height="46.69" transform="translate(-3.94 36.27) rotate(-57.48)"/><rect class="d" x="27.61" y="-1.76" width="5.64" height="43.89" transform="translate(-2.95 34.99) rotate(-57.49)"/></g></svg>