<svg xmlns="http://www.w3.org/2000/svg" xmlns:xlink="http://www.w3.org/1999/xlink" viewBox="0 0 68.55 69.34"><defs><style>.a{isolation:isolate;}.b,.d{fill:#840034;}.c{fill:url(#a);}.d{opacity:0.3;mix-blend-mode:multiply;}.e{fill:url(#b);}.f{fill:#fff;}</style><linearGradient id="a" y1="33.86" x2="67.72" y2="33.86" gradientUnits="userSpaceOnUse"><stop offset="0.16" stop-color="#fe0034"/><stop offset="1" stop-color="#fe0034"/></linearGradient><linearGradient id="b" y1="31.31" x2="66.11" y2="31.31" xlink:href="#a"/></defs><title>Asset 11</title><g class="a"><path class="b" d="M53.42,23.33c-.3-1.15-.67-2.27-1.06-3.38A80.73,80.73,0,0,0,46.17,9.2l-.48-.52a27.19,27.19,0,0,1-16.48-8,7.53,7.53,0,0,1,.23,1.89V3c0,4.88-4,7.17-7.78,6.87a7.15,7.15,0,0,1-5.53,2.68,7,7,0,0,1-3.1-.73c1.72,4.21-.38,10.13-6.31,10.13a6.7,6.7,0,0,1-4.41-1.49,27.68,27.68,0,0,1,.32,13.51c.77,3.09,1.75,6.12,2.8,9.12a21.82,21.82,0,0,1,1.22,6.36A33.85,33.85,0,0,0,62.76,37.3,26.37,26.37,0,0,1,53.42,23.33Z"/><path class="c" d="M33.86,0a33.23,33.23,0,0,0-5.22.42,6.55,6.55,0,0,1,2.14,5.09v.4c0,4.88-4,7.17-7.78,6.87a7.11,7.11,0,0,1-5.53,2.69,6.94,6.94,0,0,1-3.1-.74C16.09,19,14,24.87,8.06,24.87a6.49,6.49,0,0,1-5.82-3.13A33.86,33.86,0,1,0,33.86,0Z"/><path class="d" d="M33.86,0a33.23,33.23,0,0,0-5.22.42,6.55,6.55,0,0,1,2.14,5.09v.4c0,4.88-4,7.17-7.78,6.87a7.11,7.11,0,0,1-5.53,2.69,6.94,6.94,0,0,1-3.1-.74C16.09,19,14,24.87,8.06,24.87a6.49,6.49,0,0,1-5.82-3.13A33.86,33.86,0,1,0,33.86,0Z"/><path class="e" d="M66.11,28.76a34.34,34.34,0,0,0-.87-7.64A33.88,33.88,0,0,0,33.86,0a34.51,34.51,0,0,0-4.69.34V.81a.71.71,0,0,1,0,.14,6.68,6.68,0,0,1,1.62,4.56v.4c0,4.88-4,7.17-7.78,6.87a7.11,7.11,0,0,1-5.53,2.69,6.94,6.94,0,0,1-3.1-.74C16.09,19,14,24.87,8.06,24.87a6.49,6.49,0,0,1-5.82-3.13A33.9,33.9,0,0,0,.87,41.49,33.86,33.86,0,0,0,66.11,28.76Z"/><path class="d" d="M47,51.36a1.53,1.53,0,1,0,1.53-1.53A1.54,1.54,0,0,0,47,51.36Z"/><path class="d" d="M48.1,29.48A1.91,1.91,0,1,0,50,31.38,1.9,1.9,0,0,0,48.1,29.48Z"/><path class="d" d="M54.84,26.81A2.17,2.17,0,1,0,57,24.64,2.16,2.16,0,0,0,54.84,26.81Z"/><path class="d" d="M39.07,4a1.78,1.78,0,1,0,1.78,1.78A1.79,1.79,0,0,0,39.07,4Z"/><path class="d" d="M52.81,17.26a4.58,4.58,0,1,0-4.58,4.58A4.59,4.59,0,0,0,52.81,17.26Z"/><path class="d" d="M36.52,28.84a2.17,2.17,0,1,0,2.16-2.16A2.16,2.16,0,0,0,36.52,28.84Z"/><path class="d" d="M5,35.84a2,2,0,1,0-2-2A2,2,0,0,0,5,35.84Z"/><path class="d" d="M6.5,46a3.56,3.56,0,0,0-3.3,2.23A33.71,33.71,0,0,0,6,53.09a4.2,4.2,0,0,0,.51,0A3.57,3.57,0,0,0,6.5,46Z"/><path class="d" d="M19.47,61a3,3,0,0,0-6.08-.2,34.75,34.75,0,0,0,4.47,2.88A3.06,3.06,0,0,0,19.47,61Z"/><path class="d" d="M61.33,20.57a2.91,2.91,0,0,0,2.75-2,34,34,0,0,0-2.25-3.83,2.83,2.83,0,0,0-.5,0,2.93,2.93,0,1,0,0,5.85Z"/><path class="d" d="M15.4,41.18a2.29,2.29,0,1,0-2.29-2.29A2.29,2.29,0,0,0,15.4,41.18Z"/><path class="d" d="M16.67,30.24a1.79,1.79,0,1,0,1.79-1.78A1.79,1.79,0,0,0,16.67,30.24Z"/><path class="d" d="M59.42,41.82a2.67,2.67,0,1,0-2.67,2.67A2.66,2.66,0,0,0,59.42,41.82Z"/><path class="d" d="M37.44,67.53a4.43,4.43,0,0,0,.1-.9,4.33,4.33,0,1,0-8.65,0,4.63,4.63,0,0,0,.07.74,34.46,34.46,0,0,0,4.9.35A32.63,32.63,0,0,0,37.44,67.53Z"/><path class="d" d="M49.63,60a2.41,2.41,0,0,0-1.28,4.46,31.56,31.56,0,0,0,3.69-2A2.41,2.41,0,0,0,49.63,60Z"/><path class="d" d="M66.29,34.06a2.8,2.8,0,1,0,0,5.59,2.56,2.56,0,0,0,1-.18,33.09,33.09,0,0,0,.46-5A2.76,2.76,0,0,0,66.29,34.06Z"/><path class="d" d="M60.31,53.14a1.4,1.4,0,0,0-.64,2.64c.59-.7,1.15-1.42,1.69-2.16A1.41,1.41,0,0,0,60.31,53.14Z"/><path class="d" d="M30.92,36.09a1.27,1.27,0,1,0-1.27-1.27A1.27,1.27,0,0,0,30.92,36.09Z"/><path class="d" d="M35.89,54.16a2.67,2.67,0,1,0,2.67,2.67A2.67,2.67,0,0,0,35.89,54.16Z"/><path class="d" d="M23.8,56.7a1.27,1.27,0,1,0-1.27-1.27A1.27,1.27,0,0,0,23.8,56.7Z"/><path class="d" d="M32.7,44.11a3.19,3.19,0,1,0,3.18-3.18A3.19,3.19,0,0,0,32.7,44.11Z"/><path class="d" d="M37.28,19.55A2.55,2.55,0,1,0,34.74,17,2.54,2.54,0,0,0,37.28,19.55Z"/><path class="d" d="M22.53,19.17a1.4,1.4,0,1,0,1.4-1.4A1.39,1.39,0,0,0,22.53,19.17Z"/><path class="f" d="M52.27,15.65a4.58,4.58,0,1,1-4.58-4.58A4.58,4.58,0,0,1,52.27,15.65ZM56.47,23a2.17,2.17,0,1,0,2.16,2.16A2.17,2.17,0,0,0,56.47,23Zm-8.91,4.83a1.91,1.91,0,1,0,1.91,1.91A1.92,1.92,0,0,0,47.56,27.86Zm8.65,9.67a2.68,2.68,0,1,0,2.67,2.67A2.68,2.68,0,0,0,56.21,37.53ZM38.15,25.07a2.16,2.16,0,1,0,2.16,2.16A2.16,2.16,0,0,0,38.15,25.07Zm-2.8,14.24a3.19,3.19,0,1,0,3.18,3.18A3.18,3.18,0,0,0,35.35,39.31ZM6,44.4A3.57,3.57,0,1,0,9.52,48,3.56,3.56,0,0,0,6,44.4Zm9.92,12a3.06,3.06,0,1,0,3.06,3.06A3.06,3.06,0,0,0,15.88,56.36Zm7.38-3.82a1.28,1.28,0,1,0,1.27,1.28A1.27,1.27,0,0,0,23.26,52.54ZM14.87,35a2.29,2.29,0,1,0,2.29,2.29A2.28,2.28,0,0,0,14.87,35ZM4.43,30.15a2,2,0,1,0,2,2A2,2,0,0,0,4.43,30.15Zm13.49-3.3a1.78,1.78,0,1,0,1.78,1.78A1.78,1.78,0,0,0,17.92,26.85Zm5.47-10.69a1.4,1.4,0,1,0,1.4,1.4A1.4,1.4,0,0,0,23.39,16.16Zm7,15.78a1.27,1.27,0,1,0,1.27,1.27A1.27,1.27,0,0,0,30.39,31.94Zm5,20.6A2.68,2.68,0,1,0,38,55.22,2.67,2.67,0,0,0,35.35,52.54Zm12.59-4.32a1.53,1.53,0,1,0,1.53,1.53A1.52,1.52,0,0,0,47.94,48.22ZM49.09,58.4a2.42,2.42,0,1,0,2.41,2.41A2.41,2.41,0,0,0,49.09,58.4ZM32.68,60.69A4.33,4.33,0,1,0,37,65,4.32,4.32,0,0,0,32.68,60.69Zm27.09-9.16a1.4,1.4,0,1,0,1.4,1.4A1.4,1.4,0,0,0,59.77,51.53ZM38.53,2.42A1.78,1.78,0,1,0,40.31,4.2,1.78,1.78,0,0,0,38.53,2.42ZM36.75,12.85a2.55,2.55,0,1,0,2.54,2.55A2.55,2.55,0,0,0,36.75,12.85Zm24,.26A2.93,2.93,0,1,0,63.72,16,2.92,2.92,0,0,0,60.79,13.11Zm5,19.33a2.8,2.8,0,1,0,2.8,2.8A2.8,2.8,0,0,0,65.75,32.44Z"/><path class="d" d="M52.27,15.65a4.58,4.58,0,1,1-4.58-4.58A4.58,4.58,0,0,1,52.27,15.65ZM56.47,23a2.17,2.17,0,1,0,2.16,2.16A2.17,2.17,0,0,0,56.47,23Zm-8.91,4.83a1.91,1.91,0,1,0,1.91,1.91A1.92,1.92,0,0,0,47.56,27.86Zm8.65,9.67a2.68,2.68,0,1,0,2.67,2.67A2.68,2.68,0,0,0,56.21,37.53ZM38.15,25.07a2.16,2.16,0,1,0,2.16,2.16A2.16,2.16,0,0,0,38.15,25.07Zm-2.8,14.24a3.19,3.19,0,1,0,3.18,3.18A3.18,3.18,0,0,0,35.35,39.31ZM6,44.4A3.57,3.57,0,1,0,9.52,48,3.56,3.56,0,0,0,6,44.4Zm9.92,12a3.06,3.06,0,1,0,3.06,3.06A3.06,3.06,0,0,0,15.88,56.36Zm7.38-3.82a1.28,1.28,0,1,0,1.27,1.28A1.27,1.27,0,0,0,23.26,52.54ZM14.87,35a2.29,2.29,0,1,0,2.29,2.29A2.28,2.28,0,0,0,14.87,35ZM4.43,30.15a2,2,0,1,0,2,2A2,2,0,0,0,4.43,30.15Zm13.49-3.3a1.78,1.78,0,1,0,1.78,1.78A1.78,1.78,0,0,0,17.92,26.85Zm5.47-10.69a1.4,1.4,0,1,0,1.4,1.4A1.4,1.4,0,0,0,23.39,16.16Zm7,15.78a1.27,1.27,0,1,0,1.27,1.27A1.27,1.27,0,0,0,30.39,31.94Zm5,20.6A2.68,2.68,0,1,0,38,55.22,2.67,2.67,0,0,0,35.35,52.54Zm12.59-4.32a1.53,1.53,0,1,0,1.53,1.53A1.52,1.52,0,0,0,47.94,48.22ZM49.09,58.4a2.42,2.42,0,1,0,2.41,2.41A2.41,2.41,0,0,0,49.09,58.4ZM32.68,60.69A4.33,4.33,0,1,0,37,65,4.32,4.32,0,0,0,32.68,60.69Zm27.09-9.16a1.4,1.4,0,1,0,1.4,1.4A1.4,1.4,0,0,0,59.77,51.53ZM38.53,2.42A1.78,1.78,0,1,0,40.31,4.2,1.78,1.78,0,0,0,38.53,2.42ZM36.75,12.85a2.55,2.55,0,1,0,2.54,2.55A2.55,2.55,0,0,0,36.75,12.85Zm24,.26A2.93,2.93,0,1,0,63.72,16,2.92,2.92,0,0,0,60.79,13.11Zm5,19.33a2.8,2.8,0,1,0,2.8,2.8A2.8,2.8,0,0,0,65.75,32.44Z"/><path class="f" d="M48.65,28.21a1.86,1.86,0,0,0-1.09-.35,1.91,1.91,0,0,0-1.7,1.06,2,2,0,0,0,1.1.34A1.89,1.89,0,0,0,48.65,28.21Z"/><path class="f" d="M47.34,48.85a1.5,1.5,0,0,0,1.15-.53,1.68,1.68,0,0,0-.55-.1,1.53,1.53,0,0,0-1.15.53A1.68,1.68,0,0,0,47.34,48.85Z"/><path class="f" d="M50.79,59.1a2.41,2.41,0,0,0-4,1,2.35,2.35,0,0,0,1.69.7A2.42,2.42,0,0,0,50.79,59.1Z"/><path class="f" d="M32.07,66.92a4.33,4.33,0,0,0,4.31-4.12,4.31,4.31,0,0,0-8,2A4.3,4.3,0,0,0,32.07,66.92Z"/><path class="f" d="M47.69,11.07a4.58,4.58,0,0,0-4.57,4.44,4.57,4.57,0,0,0,8.54-2.14A4.58,4.58,0,0,0,47.69,11.07Z"/><path class="f" d="M30.31,31.94a1.35,1.35,0,0,0-.45.11A1.15,1.15,0,0,0,30.31,31.94Z"/><path class="f" d="M5.35,49.11a3.55,3.55,0,0,0,3.53-3.18,3.54,3.54,0,0,0-6.44,1.65A3.54,3.54,0,0,0,5.35,49.11Z"/><path class="f" d="M63.05,14.2a2.91,2.91,0,0,0-5.12,1.25,2.89,2.89,0,0,0,2.26,1.09A2.93,2.93,0,0,0,63.05,14.2Z"/><path class="f" d="M59.77,51.53a1.4,1.4,0,0,0-.91.34,1.55,1.55,0,0,0,.31,0,1.36,1.36,0,0,0,.91-.35A1.55,1.55,0,0,0,59.77,51.53Z"/><path class="f" d="M55.61,40.46a2.67,2.67,0,0,0,2.58-2,2.64,2.64,0,0,0-4.56,1.13A2.64,2.64,0,0,0,55.61,40.46Z"/><path class="f" d="M65.15,35.62a2.8,2.8,0,0,0,2.73-2.18A2.78,2.78,0,0,0,63,34.63,2.78,2.78,0,0,0,65.15,35.62Z"/><path class="f" d="M54.46,24.41a2.14,2.14,0,0,0,3.41-.85,2.14,2.14,0,0,0-3.41.85Z"/><path class="f" d="M12.71,36.53a2.27,2.27,0,0,0,3.71-.93,2.28,2.28,0,0,0-3.71.93Z"/><path class="f" d="M35.35,52.54a2.67,2.67,0,0,0-2.59,2,2.66,2.66,0,0,0,4.57-1.14A2.64,2.64,0,0,0,35.35,52.54Z"/><path class="f" d="M17.92,26.85a1.77,1.77,0,0,0-1.53.88,1.79,1.79,0,0,0,.92.26,1.76,1.76,0,0,0,1.53-.88A1.79,1.79,0,0,0,17.92,26.85Z"/><path class="f" d="M22.73,52.66a1.29,1.29,0,0,0,.45-.11A1.35,1.35,0,0,0,22.73,52.66Z"/><path class="f" d="M2.58,31.36a2,2,0,0,0,1.25.45A2,2,0,0,0,5.69,30.6a2,2,0,0,0-3.11.76Z"/><path class="f" d="M15.28,60.05a3,3,0,0,0,3-2.51,3,3,0,0,0-5.39,1.33A3,3,0,0,0,15.28,60.05Z"/><path class="f" d="M37,3.3a1.79,1.79,0,0,0,.92.26,1.76,1.76,0,0,0,1.53-.88A1.77,1.77,0,0,0,37,3.3Z"/><path class="f" d="M35.35,39.31A3.17,3.17,0,0,0,32.22,42a3.16,3.16,0,0,0,5.65-1.41A3.18,3.18,0,0,0,35.35,39.31Z"/><path class="f" d="M22.78,16.54a1.38,1.38,0,0,0,.91-.34,1,1,0,0,0-.3,0,1.38,1.38,0,0,0-.91.34A1,1,0,0,0,22.78,16.54Z"/><path class="f" d="M38.15,25.07a2.15,2.15,0,0,0-2,1.37,2.11,2.11,0,0,0,1.4.53,2.15,2.15,0,0,0,2-1.37A2.11,2.11,0,0,0,38.15,25.07Z"/><path class="f" d="M36.14,15.52a2.56,2.56,0,0,0,2.45-1.87,2.53,2.53,0,0,0-4.29,1.08A2.54,2.54,0,0,0,36.14,15.52Z"/></g></svg>