<svg xmlns="http://www.w3.org/2000/svg" xmlns:xlink="http://www.w3.org/1999/xlink" viewBox="0 0 59.71 86.55"><defs><style>.a{isolation:isolate;}.b,.j{fill:#fff;}.c{fill:#840034;opacity:0.3;mix-blend-mode:multiply;}.d{fill:#ffa435;}.e{fill:url(#a);}.f{fill:url(#b);}.g{fill:url(#c);}.h{fill:url(#d);}.i{fill:url(#e);}.j{opacity:0.2;}</style><linearGradient id="a" x1="35.9" y1="58.58" x2="46.3" y2="58.58" gradientUnits="userSpaceOnUse"><stop offset="0.16" stop-color="#fe0034"/><stop offset="1" stop-color="#fe0034"/></linearGradient><linearGradient id="b" x1="13.17" y1="27.15" x2="23.98" y2="27.15" xlink:href="#a"/><linearGradient id="c" x1="26.95" y1="51.39" x2="43.32" y2="51.39" xlink:href="#a"/><linearGradient id="d" x1="13.68" y1="34.12" x2="29.21" y2="34.12" xlink:href="#a"/><linearGradient id="e" x1="18.81" y1="42.96" x2="37.84" y2="42.96" xlink:href="#a"/></defs><title>Asset 12</title><g class="a"><path class="b" d="M14.18,26.58S-.66,11.23,0,11.65,7.79,16,7.79,16,2.6,4.7,2.92,5.42,9.55,13.2,9.55,13.2,6.87-.69,7.19,0,19,24.18,19,24.18Z"/><path class="c" d="M2.92,5.42h0S2.9,5.37,2.92,5.42Z"/><path class="c" d="M6,9.14A45.5,45.5,0,0,1,2.93,5.43L7.34,15l8.87,10.55,1.35-.68Z"/><path class="c" d="M14.18,26.58,16,25.67c-2.71-2.31-9.77-8.32-14.11-11.93C5.74,17.85,14.18,26.58,14.18,26.58Z"/><path class="c" d="M9,10.18l8.71,14.63L19,24.18s-6.36-13-9.72-19.95l-2-4C7.33,1.47,8.32,6.75,9,10.18Z"/><path class="b" d="M45,60.24S60.39,75.05,59.69,74.66s-7.91-4-7.91-4S57.37,81.7,57,81s-6.91-7.54-6.91-7.54,3.18,13.79,2.83,13.08S40.33,62.82,40.33,62.82Z"/><path class="c" d="M57,81v0Z"/><path class="c" d="M53.83,77.38A44.94,44.94,0,0,1,57,81c-.3-.57-3.51-6.94-4.75-9.4L43,61.34l-1.32.73Z"/><path class="c" d="M45,60.24l-1.78,1c2.79,2.21,10.07,8,14.53,11.42C53.76,68.66,45,60.24,45,60.24Z"/><path class="c" d="M50.8,76.44l-9.24-14.3-1.23.68S47.15,75.6,50.76,82.4l2.18,3.89C52.75,85.09,51.57,79.85,50.8,76.44Z"/><path class="d" d="M44.12,42.51c5.37,12.08,3.31,22.71-4.61,23.74s-18.7-7.91-24.08-20S12.11,23.55,20,22.52,38.74,30.43,44.12,42.51Z"/><path class="e" d="M46.72,50.83c-5.09,4.09-9.46,9-11.45,15.12a11.46,11.46,0,0,0,4.24.3,9.12,9.12,0,0,0,.91-.17A27.11,27.11,0,0,1,47,56.93,23.43,23.43,0,0,0,46.72,50.83Z"/><path class="f" d="M24.82,23A11.7,11.7,0,0,0,20,22.52c-4.44.58-7,4.17-7.52,9.35C15.39,28,20.35,25.05,24.82,23Z"/><path class="g" d="M44.59,43.61c-.15-.37-.31-.73-.47-1.1-.51-1.14-1.06-2.24-1.65-3.31C35.41,44.83,30,52.52,26,60.69a30.55,30.55,0,0,0,3.91,2.9C33.38,56.16,38.27,48.92,44.59,43.61Z"/><path class="h" d="M30.42,25.65a21.93,21.93,0,0,0-4.83-2.44c-5.15,3.92-9.89,8.68-12.86,14.16A34.08,34.08,0,0,0,14.91,45C16.75,37.1,23.41,30.56,30.42,25.65Z"/><path class="i" d="M39.31,34.3a40.35,40.35,0,0,0-3.09-3.7c-7.46,5.32-14.75,11.9-18.56,20a42.14,42.14,0,0,0,3.23,4.75C23.74,46.65,31.6,39.7,39.31,34.3Z"/><path class="c" d="M42.76,55.16c-4,8.46-18.74-10.28-23.58-21-3.3-7.3-.69-10.45,1.3-11.73l-.44.05c-7.93,1-10,11.67-4.61,23.74s16.16,21,24.08,20c7.37-1,9.66-10.22,5.63-21.22A26.77,26.77,0,0,1,42.76,55.16Z"/><path class="j" d="M35.78,36.3c4.74,7.2,6.93,14.14,4.88,15.48s-7.55-3.4-12.29-10.61S21.45,27,23.5,25.68,31,29.09,35.78,36.3Z"/></g></svg>