<svg xmlns="http://www.w3.org/2000/svg" xmlns:xlink="http://www.w3.org/1999/xlink" viewBox="0 0 62.56 55.26"><defs><style>.a{isolation:isolate;}.b{fill:url(#a);}.c{fill:#fff;}.d,.f{fill:#840034;}.d,.e{opacity:0.3;mix-blend-mode:multiply;}</style><linearGradient id="a" y1="30.25" x2="61.35" y2="30.25" gradientUnits="userSpaceOnUse"><stop offset="0.16" stop-color="#fe0034"/><stop offset="1" stop-color="#fe0034"/></linearGradient></defs><title>Asset 13</title><g class="a"><path class="b" d="M30.69,18.57s-14.1-22.17-28.21-2,36.68,38.7,36.68,38.7S73.83,21,56.49,8.9,30.69,18.57,30.69,18.57Z"/><path class="c" d="M31.9,13.33s-14.11-22.17-28.21-2S40.37,50,40.37,50,75,15.75,57.7,3.66,31.9,13.33,31.9,13.33Z"/><path class="c" d="M31.9,13.33s-14.11-22.17-28.21-2S40.37,50,40.37,50,75,15.75,57.7,3.66,31.9,13.33,31.9,13.33Z"/><path class="d" d="M31.9,15.21S17.79-7,3.69,13.2,40.37,51.9,40.37,51.9,75,17.63,57.7,5.54,31.9,15.21,31.9,15.21Z"/><path class="d" d="M31.9,13.33s-14.11-22.17-28.21-2S40.37,50,40.37,50,75,15.75,57.7,3.66,31.9,13.33,31.9,13.33Z"/><path class="c" d="M57.7,3.66c-17.33-12.1-25.8,9.67-25.8,9.67s-14.11-22.17-28.21-2A14.35,14.35,0,0,0,2.3,13.75C1.88,31,41.44,45.45,41.44,45.45s16.32-16.13,21-30.17C63,10.66,61.82,6.53,57.7,3.66Z"/><g class="e"><path class="f" d="M10.81,12a1.61,1.61,0,1,0,1.61,1.61A1.62,1.62,0,0,0,10.81,12Z"/><path class="f" d="M15.38,5.81A1.61,1.61,0,1,0,17,4.2,1.61,1.61,0,0,0,15.38,5.81Z"/><path class="f" d="M11.34,19a.81.81,0,1,0,.81.8A.8.8,0,0,0,11.34,19Z"/><path class="f" d="M38,40.74a2.42,2.42,0,1,0,2.42,2.42A2.42,2.42,0,0,0,38,40.74Z"/><path class="f" d="M10.94,27.85a2.56,2.56,0,1,0-2.55-2.56A2.56,2.56,0,0,0,10.94,27.85Z"/><path class="f" d="M17.53,30.53a1.35,1.35,0,1,0,1.34,1.35A1.34,1.34,0,0,0,17.53,30.53Z"/><path class="f" d="M24.11,10.11a.94.94,0,1,0-.94-.94A.94.94,0,0,0,24.11,10.11Z"/><path class="f" d="M36.34,12.79a1.08,1.08,0,1,0,1.07-1.07A1.07,1.07,0,0,0,36.34,12.79Z"/><path class="f" d="M29.08,36.71a1.08,1.08,0,1,0,1.08-1.07A1.08,1.08,0,0,0,29.08,36.71Z"/><path class="f" d="M26.66,42a2,2,0,1,0,2-2A2,2,0,0,0,26.66,42Z"/><path class="f" d="M20.21,27.17a.94.94,0,1,0-.94.94A.94.94,0,0,0,20.21,27.17Z"/><path class="f" d="M21.83,37.25a.81.81,0,1,0,.8-.81A.8.8,0,0,0,21.83,37.25Z"/><path class="f" d="M37.28,7.42a1.21,1.21,0,1,0,1.21,1.21A1.21,1.21,0,0,0,37.28,7.42Z"/><path class="f" d="M61.74,16a.94.94,0,1,0,0,1.88.58.58,0,0,0,.18,0c.14-.55.25-1.11.35-1.65A.9.9,0,0,0,61.74,16Z"/><path class="f" d="M60.14,5.9c-.18-.23-.38-.45-.59-.67A1.29,1.29,0,0,0,60.14,5.9Z"/><path class="f" d="M60,11.85a.94.94,0,1,0,.94-.94A.94.94,0,0,0,60,11.85Z"/><path class="f" d="M51.12,33.22a.81.81,0,1,0-.81-.81A.8.8,0,0,0,51.12,33.22Z"/><path class="f" d="M4.63,15.35a.67.67,0,1,0,.67-.67A.67.67,0,0,0,4.63,15.35Z"/><path class="f" d="M4.36,23a1.62,1.62,0,1,0-1.61-1.62A1.61,1.61,0,0,0,4.36,23Z"/><path class="f" d="M44.67,4.46a1.08,1.08,0,1,0-1.08-1.07A1.08,1.08,0,0,0,44.67,4.46Z"/><path class="f" d="M53.81,11.18a1.35,1.35,0,1,0-1.35-1.34A1.34,1.34,0,0,0,53.81,11.18Z"/><path class="f" d="M54.08,27.85a1.07,1.07,0,1,0,1.07-1.08A1.07,1.07,0,0,0,54.08,27.85Z"/><path class="f" d="M45.48,9.3a.81.81,0,1,0-1.62,0,.81.81,0,0,0,1.62,0Z"/><path class="f" d="M45.75,38.59a.81.81,0,1,0-.81-.8A.8.8,0,0,0,45.75,38.59Z"/><path class="f" d="M57.57,19.65a1.75,1.75,0,1,0-1.75,1.74A1.75,1.75,0,0,0,57.57,19.65Z"/><path class="f" d="M54.34,4.06a2,2,0,1,0-2,2A2,2,0,0,0,54.34,4.06Z"/></g></g></svg>