<svg xmlns="http://www.w3.org/2000/svg" xmlns:xlink="http://www.w3.org/1999/xlink" viewBox="0 0 63.69 64.36"><defs><style>.a{isolation:isolate;}.b{fill:url(#a);}.c,.f{fill:#840034;}.c,.h{opacity:0.3;mix-blend-mode:multiply;}.d{fill:url(#b);}.e,.g{fill:#fff;}.g,.i{opacity:0.2;}</style><linearGradient id="a" y1="33.32" x2="62.08" y2="33.32" gradientUnits="userSpaceOnUse"><stop offset="0.16" stop-color="#fe0034"/><stop offset="1" stop-color="#fe0034"/></linearGradient><linearGradient id="b" y1="31.44" x2="61.54" y2="31.44" xlink:href="#a"/></defs><title>Asset 14</title><g class="a"><path class="b" d="M31,2.28a31,31,0,1,0,31,31A31,31,0,0,0,31,2.28Zm0,43.94a12.9,12.9,0,1,1,12.9-12.9A12.9,12.9,0,0,1,31,46.22Z"/><path class="c" d="M31,2.28a31,31,0,1,0,31,31A31,31,0,0,0,31,2.28Zm0,43.94a12.9,12.9,0,1,1,12.9-12.9A12.9,12.9,0,0,1,31,46.22Z"/><path class="d" d="M61.54,29.56c0-.87,0-1.73-.11-2.59A31,31,0,0,0,0,33.32c0,.88,0,1.74.12,2.6a31,31,0,0,0,61.42-6.36Zm-43.4,3.76v-.07a13.22,13.22,0,0,1-.54-3.69,12.9,12.9,0,0,1,25.8,0v.08a12.9,12.9,0,1,1-25.26,3.68Z"/><path class="c" d="M61.84,29.49a31,31,0,0,0-61,1.27,9.15,9.15,0,0,0,1.95,3.13c.57,1.92,1.82,3.43,4.11,2,2.79-1.77-.11-6.39,2.1-8.57,3.55-3.5,2.36,3.2,4.3,4.54,5.21,3.59,5.23-4.27,6.15-6.5.2-.49.82-.34,1.51,0a12.86,12.86,0,0,1,9.56-4.88,4.43,4.43,0,0,1,.22-2.13c1.48-3.52,4.88-3.18,6.89-.31,1,1.43.69,3.14.7,4.66A13.09,13.09,0,0,1,41.67,26c.75-.34,1.47-.91,2.25-.78,7.74,1.34-.44,10.76,6.79,11.67.15-1,1.15-2.17,1.3-2.84,1.32,2.12.6,4.51,3.71,5.32,3.46.9,5.35-2.42,6.34-5.38,0-.23,0-.46,0-.69A32.41,32.41,0,0,0,61.84,29.49Z"/><path class="e" d="M31,2.28A31.05,31.05,0,0,0,.4,28.35a9.23,9.23,0,0,0,2,3.12c.56,1.92,1.82,3.43,4.11,2,2.79-1.76-.11-6.39,2.1-8.57,3.55-3.5,2.36,3.2,4.3,4.54,5.2,3.59,5.23-4.27,6.15-6.5.56-1.35,4.31,2,5,2.26C31.19,27.7,29,19,30.3,15.9c1.49-3.52,4.89-3.18,6.9-.31,1.51,2.16,0,4.92,1.18,6.76a4.57,4.57,0,0,0,.68.88l.42.35c1.48,1,2.67-1,4-.76,7.74,1.35-.44,10.76,6.79,11.67.15-1,1.14-2.17,1.3-2.84,1.32,2.12.59,4.51,3.71,5.32,3.84,1,5.74-3.19,6.64-6.33A31,31,0,0,0,31,2.28Z"/><path class="c" d="M31,2.28A31.05,31.05,0,0,0,.4,28.35a9.23,9.23,0,0,0,2,3.12c.56,1.92,1.82,3.43,4.11,2,2.79-1.76-.11-6.39,2.1-8.57,3.55-3.5,2.36,3.2,4.3,4.54,5.2,3.59,5.23-4.27,6.15-6.5.56-1.35,4.31,2,5,2.26C31.19,27.7,29,19,30.3,15.9c1.49-3.52,4.89-3.18,6.9-.31,1.51,2.16,0,4.92,1.18,6.76a4.57,4.57,0,0,0,.68.88l.42.35c1.48,1,2.67-1,4-.76,7.74,1.35-.44,10.76,6.79,11.67.15-1,1.14-2.17,1.3-2.84,1.32,2.12.59,4.51,3.71,5.32,3.84,1,5.74-3.19,6.64-6.33A31,31,0,0,0,31,2.28Z"/><path class="e" d="M46.87,25.22a11.6,11.6,0,0,1,.18,4.39c.39,1,1.23,1.7,3,1.93.15-1,1.15-2.18,1.3-2.84,1.32,2.11.59,4.51,3.71,5.32,3.73,1,5.62-3,6.55-6.06A31,31,0,0,0,.73,26.66a9.3,9.3,0,0,0,1.36,1.86c.56,1.92,1.82,3.42,4.11,2,2.79-1.77-.11-6.4,2.1-8.57,3.55-3.5,2.36,3.2,4.3,4.54,5.2,3.59,5.23-4.28,6.15-6.5.56-1.35,4.31,2,5,2.26C30.92,24.75,28.73,16.06,30,13c1.48-3.53,4.88-3.18,6.89-.32a6,6,0,0,1,.72,3.83A7,7,0,0,1,37.93,19a2.31,2.31,0,0,0,.18.35,5,5,0,0,0,.68.89l.42.35c1.48,1,2.67-1,4-.76C46.8,20.48,47,22.8,46.87,25.22Z"/><path class="c" d="M8.6,15.59a2.82,2.82,0,1,1-2.82-2.83A2.82,2.82,0,0,1,8.6,15.59Zm6.18-.67a1.61,1.61,0,1,0,1.61,1.61A1.61,1.61,0,0,0,14.78,14.92Zm.27-9.41a1.88,1.88,0,1,0,1.88,1.88A1.88,1.88,0,0,0,15.05,5.51Zm5.78,7.25a.95.95,0,1,0,.94,1A.95.95,0,0,0,20.83,12.76ZM5.37,24.59a1.88,1.88,0,1,0,1.89,1.88A1.88,1.88,0,0,0,5.37,24.59Zm9.28-3a.94.94,0,1,0,.94.94A.94.94,0,0,0,14.65,21.63Zm10.48-1.34a2.56,2.56,0,1,0,2.55,2.55A2.55,2.55,0,0,0,25.13,20.29Zm3.76-14A3.1,3.1,0,1,0,32,9.41,3.09,3.09,0,0,0,28.89,6.31Zm5-5.37a1.62,1.62,0,1,0,1.61,1.61A1.61,1.61,0,0,0,33.86.94Zm1.61,10.75a1.08,1.08,0,1,0,1.08,1.07A1.07,1.07,0,0,0,35.47,11.69ZM43,9.54a1.08,1.08,0,1,0,1.07,1.07A1.08,1.08,0,0,0,43,9.54Zm-.27,7a1.61,1.61,0,1,0,1.61,1.61A1.61,1.61,0,0,0,42.73,16.53Zm9.14-6.18a1.88,1.88,0,1,0,1.88,1.88A1.88,1.88,0,0,0,51.87,10.35Zm-.27,7a1.08,1.08,0,1,0,1.07,1.08A1.08,1.08,0,0,0,51.6,17.33ZM48,24.86a2,2,0,1,0,2,2A2,2,0,0,0,48,24.86Zm7.93.54a1.34,1.34,0,1,0,1.34,1.34A1.34,1.34,0,0,0,55.9,25.4Zm3.49-8.07a1.89,1.89,0,1,0,1.88,1.89A1.89,1.89,0,0,0,59.39,17.33ZM61.54,28a1.75,1.75,0,1,0,1.75,1.75A1.74,1.74,0,0,0,61.54,28Zm-5.91,3.9A2.15,2.15,0,1,0,57.78,34,2.15,2.15,0,0,0,55.63,31.85Z"/><path class="f" d="M9,14.65a2.82,2.82,0,1,1-2.82-2.83A2.82,2.82,0,0,1,9,14.65ZM15.18,14a1.62,1.62,0,1,0,1.62,1.62A1.62,1.62,0,0,0,15.18,14Zm.27-9.4a1.88,1.88,0,1,0,1.88,1.88A1.88,1.88,0,0,0,15.45,4.57Zm5.78,7.25a.95.95,0,1,0,.94.94A.95.95,0,0,0,21.23,11.82ZM5.78,23.65a1.88,1.88,0,1,0,1.88,1.88A1.88,1.88,0,0,0,5.78,23.65Zm9.27-3a.95.95,0,1,0,.94.94A.95.95,0,0,0,15.05,20.69Zm10.48-1.34a2.56,2.56,0,1,0,2.55,2.55A2.55,2.55,0,0,0,25.53,19.35Zm3.76-14a3.1,3.1,0,1,0,3.09,3.1A3.1,3.1,0,0,0,29.29,5.37Zm5-5.37a1.62,1.62,0,1,0,1.62,1.61A1.61,1.61,0,0,0,34.26,0Zm1.62,10.75A1.08,1.08,0,1,0,37,11.83,1.08,1.08,0,0,0,35.88,10.75ZM43.4,8.6a1.08,1.08,0,1,0,1.08,1.07A1.07,1.07,0,0,0,43.4,8.6Zm-.27,7a1.61,1.61,0,1,0,1.62,1.61A1.61,1.61,0,0,0,43.13,15.59Zm9.14-6.18a1.88,1.88,0,1,0,1.88,1.88A1.88,1.88,0,0,0,52.27,9.41Zm-.27,7a1.08,1.08,0,1,0,1.08,1.08A1.07,1.07,0,0,0,52,16.39Zm-3.63,7.53a2,2,0,1,0,2,2A2,2,0,0,0,48.37,23.92Zm7.93.54a1.34,1.34,0,1,0,1.35,1.34A1.34,1.34,0,0,0,56.3,24.46Zm3.5-8.07a1.89,1.89,0,1,0,1.88,1.88A1.88,1.88,0,0,0,59.8,16.39ZM62,27a1.75,1.75,0,1,0,1.74,1.74A1.74,1.74,0,0,0,62,27ZM56,30.91a2.15,2.15,0,1,0,2.15,2.14A2.15,2.15,0,0,0,56,30.91Z"/><path class="g" d="M55.49,24.74a1.35,1.35,0,0,0,.95.39,1.37,1.37,0,0,0,.81-.28,1.33,1.33,0,0,0-1.76-.11Z"/><path class="g" d="M42,16.11a1.62,1.62,0,0,0,1.32.69,1.59,1.59,0,0,0,1.18-.53,1.61,1.61,0,0,0-2.5-.16Z"/><path class="g" d="M56.17,33.19a2.14,2.14,0,0,0,1.82-1,2.16,2.16,0,0,0-2-1.26,2.13,2.13,0,0,0-1.82,1A2.15,2.15,0,0,0,56.17,33.19Z"/><path class="g" d="M46.71,24.8a2,2,0,0,0,1.8,1.13,2,2,0,0,0,1.67-.88,2,2,0,0,0-3.47-.25Z"/><path class="g" d="M62.08,28.49a1.74,1.74,0,0,0,1.35-.65A1.73,1.73,0,0,0,62,27a1.71,1.71,0,0,0-1.35.65A1.75,1.75,0,0,0,62.08,28.49Z"/><path class="g" d="M53.91,10.39a1.85,1.85,0,0,0-1.64-1,1.89,1.89,0,0,0-1.51.76,1.89,1.89,0,0,0,1.65,1A1.86,1.86,0,0,0,53.91,10.39Z"/><path class="g" d="M59.8,16.39a1.88,1.88,0,0,0-1.51.77,1.86,1.86,0,0,0,3.15.21A1.87,1.87,0,0,0,59.8,16.39Z"/><path class="g" d="M52.4,16.47a1,1,0,0,0-.4-.08.76.76,0,0,0-.26.06,1,1,0,0,0,.4.08A.76.76,0,0,0,52.4,16.47Z"/><path class="g" d="M43.14,8.65a1,1,0,0,0,.4.08,1.09,1.09,0,0,0,.26-.05,1.06,1.06,0,0,0-.4-.08A1.09,1.09,0,0,0,43.14,8.65Z"/><path class="g" d="M15.45,4.57a1.84,1.84,0,0,0-1.5.77,1.86,1.86,0,0,0,1.64,1,1.89,1.89,0,0,0,1.51-.76A1.88,1.88,0,0,0,15.45,4.57Z"/><path class="g" d="M5.91,25.4a1.88,1.88,0,0,0,1.51-.77,1.86,1.86,0,0,0-3.15-.21A1.87,1.87,0,0,0,5.91,25.4Z"/><path class="g" d="M8.87,13.82a2.81,2.81,0,0,0-5.24-.36,2.81,2.81,0,0,0,5.24.36Z"/><path class="g" d="M34.26,0a1.62,1.62,0,0,0-1.18.52,1.59,1.59,0,0,0,1.32.69A1.58,1.58,0,0,0,35.58.69,1.59,1.59,0,0,0,34.26,0Z"/><path class="g" d="M16.5,14.66A1.59,1.59,0,0,0,14,14.5a1.61,1.61,0,0,0,1.32.68A1.58,1.58,0,0,0,16.5,14.66Z"/><path class="g" d="M36.28,10.83a1.1,1.1,0,0,0-.4-.08,1.17,1.17,0,0,0-.27.05,1.1,1.1,0,0,0,.4.08A1.17,1.17,0,0,0,36.28,10.83Z"/><path class="g" d="M23.27,20.74a2.54,2.54,0,0,0,4.66.31,2.54,2.54,0,0,0-4.66-.31Z"/><path class="g" d="M32.27,7.67a3.08,3.08,0,0,0-5.81-.42,3.08,3.08,0,0,0,5.81.42Z"/><g class="h"><path class="f" d="M51.2,47.84a2.15,2.15,0,1,1-2.15-2.15A2.16,2.16,0,0,1,51.2,47.84Z"/><path class="f" d="M50.93,54.82a1.62,1.62,0,1,1-1.61-1.61A1.62,1.62,0,0,1,50.93,54.82Z"/><path class="f" d="M41.79,58.59a1.35,1.35,0,1,1-1.34-1.35A1.34,1.34,0,0,1,41.79,58.59Z"/><path class="f" d="M44.21,54.15a.94.94,0,1,1-.94-.94A.94.94,0,0,1,44.21,54.15Z"/><path class="f" d="M58.18,47.3A1.34,1.34,0,1,1,56.84,46,1.34,1.34,0,0,1,58.18,47.3Z"/></g><g class="i"><path class="e" d="M16.83,42.53c2.79,6.4,9.9,8.34,16.36,8.13,1.56,0,1.56-2.47,0-2.42-5.67.19-11.8-1.27-14.27-6.92-.63-1.43-2.71-.2-2.09,1.21Z"/></g><g class="i"><path class="e" d="M39.18,47.81a17.08,17.08,0,0,0,5.27-4.74c.92-1.26-1.18-2.46-2.09-1.22A14.32,14.32,0,0,1,38,45.72a1.21,1.21,0,0,0,1.22,2.09Z"/></g></g></svg>