<svg xmlns="http://www.w3.org/2000/svg" xmlns:xlink="http://www.w3.org/1999/xlink" viewBox="0 0 69.74 47.97"><defs><style>.a{isolation:isolate;}.b{fill:url(#a);}.c{fill:#840034;opacity:0.3;mix-blend-mode:multiply;}.d{fill:#ffa435;}.e{fill:#fff;}</style><linearGradient id="a" x1="3.63" y1="31.85" x2="67.72" y2="31.85" gradientUnits="userSpaceOnUse"><stop offset="0.16" stop-color="#fe0034"/><stop offset="1" stop-color="#fe0034"/></linearGradient></defs><title>Asset 15</title><g class="a"><path class="b" d="M3.63,15.72c.8,2,4.83,30.64,4.83,30.64l52,1.61,7.25-30.64Z"/><path class="c" d="M62.69,40.85l1.23-5.22c-7.5-.28-48.81-1.85-57.35-2.28.26,1.72.51,3.42.74,5Z"/><path class="d" d="M62.49,39.44l1.23-5.22c-7.5-.28-48.81-1.85-57.35-2.28.26,1.72.51,3.41.74,5Z"/><path class="c" d="M8.46,46.36l52,1.61,7.25-30.64-3.65-.09C52.09,41,16,44.67,8.39,45.85,8.44,46.17,8.46,46.36,8.46,46.36Z"/><path class="e" d="M0,12.9C.4,14.11,4,29,4,29s2.82,6.86,6.05,2.83,2.42-9.27,5.24-7.26,2,8.47,4.43,6.85S23,21.37,25.4,23.78s7.66,18.14,12.09,11.7S41.12,21,44.75,23.78s3.62,6.45,6.85,6.86,4.84-8.06,6-5.24,4.44,6.85,7.26,6,4.84-14.11,4.84-14.11L46.76,0,2,12.5"/><path class="c" d="M67.12,17.32,3.63,15.72c.45,1.14,1.94,10.8,3.15,19,1.07,1,2.44,1.39,3.9-.43,3.23-4,2.42-9.28,5.24-7.26s2,8.47,4.44,6.85S23.58,23.78,26,26.2s7.66,18.14,12.09,11.69,3.63-14.51,7.26-11.69S49,32.65,52.2,33.06s4.84-8.07,6-5.24c1,2.26,3.25,5.31,5.57,6l3.81-16.11Z"/><path class="c" d="M0,12.9C.4,14.11,4,29,4,29s2.82,6.86,6.05,2.83,2.42-9.27,5.24-7.26,2,8.47,4.43,6.85S23,21.37,25.4,23.78s7.66,18.14,12.09,11.7S41.12,21,44.75,23.78s3.62,6.45,6.85,6.86,4.84-8.06,6-5.24,4.44,6.85,7.26,6,4.84-14.11,4.84-14.11L46.76,0,2,12.5"/><path class="e" d="M57.24,22.17c1.21,2.82,4.44,6.85,7.26,6,2-.58,3.64-7.62,4.38-11.53L46.76,0,2,12.5l-1.59.31c1.2,4.73,3.21,13,3.21,13s2.82,6.85,6,2.82,2.42-9.27,5.24-7.25,2,8.46,4.44,6.85S22.57,18.14,25,20.56s7.66,18.14,12.1,11.69,3.62-14.51,7.25-11.69S48,27,51.2,27.41,56,19.35,57.24,22.17Z"/><polygon class="c" points="69.63 17.25 46.76 0 2.02 12.5 1.01 12.7 69.63 17.25"/></g></svg>