<svg xmlns="http://www.w3.org/2000/svg" xmlns:xlink="http://www.w3.org/1999/xlink" viewBox="0 0 56.51 71.43"><defs><style>.a{isolation:isolate;}.b{fill:#ffa435;}.c{fill:#840034;opacity:0.3;mix-blend-mode:multiply;}.d{fill:url(#a);}.e{fill:url(#b);}.f,.h{fill:#fff;}.f{opacity:0.2;}.g{fill:url(#c);}</style><linearGradient id="a" x1="22.5" y1="8.77" x2="39.43" y2="8.77" gradientTransform="translate(-1 0.24) rotate(-1)" gradientUnits="userSpaceOnUse"><stop offset="0.16" stop-color="#fe0034"/><stop offset="1" stop-color="#fe0034"/></linearGradient><linearGradient id="b" x1="22.5" y1="6.51" x2="36.61" y2="6.51" xlink:href="#a"/><linearGradient id="c" x1="0.44" y1="51.67" x2="56.92" y2="51.67" xlink:href="#a"/></defs><title>Asset 16</title><g class="a"><path class="b" d="M7,38.77C5.27,37.15,2.54,10.07,29.6,11.29S51.55,40.81,51.55,40.81,16.7,48.19,7,38.77Z"/><path class="c" d="M39,13.2a28.38,28.38,0,0,0-9.41-1.91,32.21,32.21,0,0,0-7.23.44c0,.21,0,.42.05.62,0,0,0,.05,0,.07A8.45,8.45,0,0,0,39,13.2Z"/><path class="d" d="M38.58,8.31A8.46,8.46,0,1,1,30,0,8.47,8.47,0,0,1,38.58,8.31Z"/><path class="c" d="M38.58,8.31A8.46,8.46,0,1,1,30,0,8.47,8.47,0,0,1,38.58,8.31Z"/><path class="e" d="M21.66,8.61a8.25,8.25,0,0,0,.28,2,8.41,8.41,0,0,0,5.42,1.85,8.47,8.47,0,0,0,8.32-8.61,8.78,8.78,0,0,0-.29-2A8.45,8.45,0,0,0,21.66,8.61Z"/><path class="f" d="M30.63,5.63a3.1,3.1,0,1,1-3.16-3A3.1,3.1,0,0,1,30.63,5.63Z"/><path class="c" d="M51.55,40.81s2.68-14.74-6-23.4C47.19,34.87,25,31.28,14.67,28.76c-5.44-1.33-5.47-5.89-4.35-10-5.9,7.8-4.43,19-3.37,20C16.7,48.19,51.55,40.81,51.55,40.81Z"/><path class="c" d="M27.77,35.87l-8-6.07L12,36.71s-3-1.2-6-2.58c.11,2.48.55,4.26,1,4.64,9.75,9.42,44.6,2,44.6,2a34.63,34.63,0,0,0,.35-7l-5.51,2.26L39,31.72Z"/><path class="c" d="M40.37,22.07a1.59,1.59,0,1,1-1.62-1.56A1.59,1.59,0,0,1,40.37,22.07Z"/><path class="c" d="M45.53,26.85a1.59,1.59,0,1,1-1.62-1.56A1.59,1.59,0,0,1,45.53,26.85Z"/><path class="c" d="M38.17,29.62a1.48,1.48,0,1,1-3,.05,1.48,1.48,0,0,1,3-.05Z"/><path class="c" d="M47.09,31.26a1,1,0,1,1-1-.93A1,1,0,0,1,47.09,31.26Z"/><path class="g" d="M13.66,67.71S-1.09,30.73.06,32.4s12,6,12,6l7.78-6.91,8,6.07L39,33.42l7.41,4.38,10.09-4.12L46.93,67.13S32.43,76.41,13.66,67.71Z"/><path class="h" d="M46.93,67.13l8.79-30.71-9,3.7-7.41-4.38L28.05,39.88l-8-6.07-7.78,6.91S3.67,37.28,1,35.35c3.15,8.53,12.66,32.36,12.66,32.36C32.43,76.41,46.93,67.13,46.93,67.13Z"/><path class="c" d="M16.32,68.82,11.14,38C8.54,37,1,33.78.06,32.4c.26,1.6,11.19,26.72,15.26,36Z"/><path class="c" d="M28.74,37.21l-.94.35-7.91-6L24.58,71l.87.12Z"/><path class="c" d="M56.32,34.32,40.89,69.75a27.49,27.49,0,0,0,6-2.62Z"/><path class="c" d="M36.35,70.87,46.1,37.6,39,33.42,37.48,34,35.63,71Z"/><path class="c" d="M15.2,22.61a2.33,2.33,0,1,1-2.37-2.28A2.33,2.33,0,0,1,15.2,22.61Z"/><path class="c" d="M13.44,31A2.43,2.43,0,1,1,11,28.61,2.44,2.44,0,0,1,13.44,31Z"/><path class="c" d="M18.46,27.85a1.06,1.06,0,1,1-1.07-1A1.05,1.05,0,0,1,18.46,27.85Z"/></g></svg>