<svg xmlns="http://www.w3.org/2000/svg" viewBox="0 0 74.27 79.88"><defs><style>.a{isolation:isolate;}.b{fill:#fff;}.c,.f{fill:#840034;}.d,.f{opacity:0.3;mix-blend-mode:multiply;}.e{opacity:0.2;}</style></defs><title>Asset 17</title><g class="a"><path class="b" d="M20,79.88a6.82,6.82,0,0,1-4-1.22C11.39,75.43,12.76,68,14.46,62c.76-2.72,1.66-5.3,2.38-7.22-1.74-1.08-4-2.57-6.3-4.25-5.07-3.77-10.68-8.79-9-14.16,1.42-4.62,7.19-6.68,18.71-6.68,1.6,0,3.08,0,4.31.09.49-2,1.2-4.63,2.1-7.3,2-6,5.06-12.87,10.68-13h.09c5.57,0,8.8,6.77,11,12.66,1,2.63,1.76,5.24,2.31,7.2,1.85-.13,4.27-.26,6.8-.26,6.66,0,14.55.7,16.41,6.15s-3.63,10.5-8.59,14.43c-2.2,1.74-4.45,3.3-6.16,4.44.77,1.89,1.75,4.45,2.59,7.14,1.89,6,3.48,13.38-1,16.76a6.94,6.94,0,0,1-4.25,1.33c-5.53,0-13.63-5.8-18.25-9.51C33.66,73.72,25.58,79.87,20,79.88ZM9.51,38.81C11.1,41.24,17.33,46,23.7,49.59a4,4,0,0,1,1.71,5C22.55,61.33,20.55,69,20.79,71.83c3.08-.81,9.87-5.72,14.67-10.16a4,4,0,0,1,5.29-.08c5,4.35,11.84,9,15,9.71.15-2.89-2.08-10.44-5.14-17.09a4,4,0,0,1,1.56-5.05C58.4,45.4,64.48,40.43,66,38c-1-.38-3.45-1-8.5-1a92.21,92.21,0,0,0-9.33.53,4,4,0,0,1-4.33-3c-1.65-7.14-4.51-14.49-6.4-16.67C35.62,20,33,27.48,31.55,34.66a4,4,0,0,1-4.23,3.18s-3.23-.28-7.09-.28C13.62,37.56,10.69,38.33,9.51,38.81Z"/><path class="c" d="M20,79.88a6.82,6.82,0,0,1-4-1.22C11.39,75.43,12.76,68,14.46,62c.76-2.72,1.66-5.3,2.38-7.22-1.74-1.08-4-2.57-6.3-4.25-5.07-3.77-10.68-8.79-9-14.16,1.42-4.62,7.19-6.68,18.71-6.68,1.6,0,3.08,0,4.31.09.49-2,1.2-4.63,2.1-7.3,2-6,5.06-12.87,10.68-13h.09c5.57,0,8.8,6.77,11,12.66,1,2.63,1.76,5.24,2.31,7.2,1.85-.13,4.27-.26,6.8-.26,6.66,0,14.55.7,16.41,6.15s-3.63,10.5-8.59,14.43c-2.2,1.74-4.45,3.3-6.16,4.44.77,1.89,1.75,4.45,2.59,7.14,1.89,6,3.48,13.38-1,16.76a6.94,6.94,0,0,1-4.25,1.33c-5.53,0-13.63-5.8-18.25-9.51C33.66,73.72,25.58,79.87,20,79.88ZM9.51,38.81C11.1,41.24,17.33,46,23.7,49.59a4,4,0,0,1,1.71,5C22.55,61.33,20.55,69,20.79,71.83c3.08-.81,9.87-5.72,14.67-10.16a4,4,0,0,1,5.29-.08c5,4.35,11.84,9,15,9.71.15-2.89-2.08-10.44-5.14-17.09a4,4,0,0,1,1.56-5.05C58.4,45.4,64.48,40.43,66,38c-1-.38-3.45-1-8.5-1a92.21,92.21,0,0,0-9.33.53,4,4,0,0,1-4.33-3c-1.65-7.14-4.51-14.49-6.4-16.67C35.62,20,33,27.48,31.55,34.66a4,4,0,0,1-4.23,3.18s-3.23-.28-7.09-.28C13.62,37.56,10.69,38.33,9.51,38.81Z"/><g class="d"><path class="c" d="M20,79.88a6.82,6.82,0,0,1-4-1.22C11.39,75.43,12.76,68,14.46,62c.76-2.72,1.66-5.3,2.38-7.22-1.74-1.08-4-2.57-6.3-4.25-5.07-3.77-10.68-8.79-9-14.16,1.42-4.62,7.19-6.68,18.71-6.68,1.6,0,3.08,0,4.31.09.49-2,1.2-4.63,2.1-7.3,2-6,5.06-12.87,10.68-13h.09c5.57,0,8.8,6.77,11,12.66,1,2.63,1.76,5.24,2.31,7.2,1.85-.13,4.27-.26,6.8-.26,6.66,0,14.55.7,16.41,6.15s-3.63,10.5-8.59,14.43c-2.2,1.74-4.45,3.3-6.16,4.44.77,1.89,1.75,4.45,2.59,7.14,1.89,6,3.48,13.38-1,16.76a6.94,6.94,0,0,1-4.25,1.33c-5.53,0-13.63-5.8-18.25-9.51C33.66,73.72,25.58,79.87,20,79.88ZM9.51,38.81C11.1,41.24,17.33,46,23.7,49.59a4,4,0,0,1,1.71,5C22.55,61.33,20.55,69,20.79,71.83c3.08-.81,9.87-5.72,14.67-10.16a4,4,0,0,1,5.29-.08c5,4.35,11.84,9,15,9.71.15-2.89-2.08-10.44-5.14-17.09a4,4,0,0,1,1.56-5.05C58.4,45.4,64.48,40.43,66,38c-1-.38-3.45-1-8.5-1a92.21,92.21,0,0,0-9.33.53,4,4,0,0,1-4.33-3c-1.65-7.14-4.51-14.49-6.4-16.67C35.62,20,33,27.48,31.55,34.66a4,4,0,0,1-4.23,3.18s-3.23-.28-7.09-.28C13.62,37.56,10.69,38.33,9.51,38.81Z"/></g><path class="c" d="M18.8,75.17a6.88,6.88,0,0,1-4-1.21c-4.6-3.23-3.23-10.63-1.53-16.72C14,54.53,14.9,52,15.62,50c-1.75-1.09-4-2.58-6.3-4.26C4.25,42-1.36,37,.3,31.62,1.72,27,7.49,24.93,19,24.93c1.6,0,3.08,0,4.31.1.49-2,1.2-4.64,2.1-7.31,2-6,5.06-12.87,10.67-12.95h.1c5.57,0,8.8,6.77,11,12.67,1,2.63,1.76,5.23,2.31,7.2,1.85-.14,4.27-.26,6.8-.26,6.66,0,14.55.69,16.41,6.15,1.82,5.31-3.63,10.5-8.59,14.42-2.21,1.75-4.45,3.31-6.16,4.44.77,1.9,1.75,4.46,2.59,7.14,1.89,6,3.48,13.39-1,16.76a6.89,6.89,0,0,1-4.25,1.34c-5.53,0-13.63-5.8-18.25-9.51C32.44,69,24.35,75.17,18.8,75.17ZM8.28,34.1c1.6,2.44,7.83,7.22,14.19,10.79a4,4,0,0,1,1.72,5c-2.86,6.74-4.86,14.36-4.62,17.24,3.07-.81,9.87-5.72,14.67-10.16a4,4,0,0,1,5.29-.08c5,4.35,11.84,9,15,9.7.15-2.89-2.08-10.44-5.14-17.08a4,4,0,0,1,1.56-5.06c6.25-3.76,12.33-8.72,13.85-11.2-1.05-.39-3.45-1-8.5-1a88.69,88.69,0,0,0-9.33.53,4,4,0,0,1-4.33-3.05C41,22.63,38.11,15.28,36.22,13.1,34.4,15.34,31.76,22.78,30.33,30a4,4,0,0,1-4.23,3.17s-3.23-.27-7.09-.27C12.4,32.86,9.47,33.63,8.28,34.1Z"/><g class="e"><path class="b" d="M18.8,75.17a6.88,6.88,0,0,1-4-1.21c-4.6-3.23-3.23-10.63-1.53-16.72C14,54.53,14.9,52,15.62,50c-1.75-1.09-4-2.58-6.3-4.26C4.25,42-1.36,37,.3,31.62,1.72,27,7.49,24.93,19,24.93c1.6,0,3.08,0,4.31.1.49-2,1.2-4.64,2.1-7.31,2-6,5.06-12.87,10.67-12.95h.1c5.57,0,8.8,6.77,11,12.67,1,2.63,1.76,5.23,2.31,7.2,1.85-.14,4.27-.26,6.8-.26,6.66,0,14.55.69,16.41,6.15,1.82,5.31-3.63,10.5-8.59,14.42-2.21,1.75-4.45,3.31-6.16,4.44.77,1.9,1.75,4.46,2.59,7.14,1.89,6,3.48,13.39-1,16.76a6.89,6.89,0,0,1-4.25,1.34c-5.53,0-13.63-5.8-18.25-9.51C32.44,69,24.35,75.17,18.8,75.17ZM8.28,34.1c1.6,2.44,7.83,7.22,14.19,10.79a4,4,0,0,1,1.72,5c-2.86,6.74-4.86,14.36-4.62,17.24,3.07-.81,9.87-5.72,14.67-10.16a4,4,0,0,1,5.29-.08c5,4.35,11.84,9,15,9.7.15-2.89-2.08-10.44-5.14-17.08a4,4,0,0,1,1.56-5.06c6.25-3.76,12.33-8.72,13.85-11.2-1.05-.39-3.45-1-8.5-1a88.69,88.69,0,0,0-9.33.53,4,4,0,0,1-4.33-3.05C41,22.63,38.11,15.28,36.22,13.1,34.4,15.34,31.76,22.78,30.33,30a4,4,0,0,1-4.23,3.17s-3.23-.27-7.09-.27C12.4,32.86,9.47,33.63,8.28,34.1Z"/></g><path class="c" d="M73,32.82c-2.18-5-9.75-5.63-16.19-5.63-2.53,0-5,.12-6.8.26-.54-2-1.33-4.57-2.31-7.2-2.18-5.9-5.4-12.66-11-12.66h-.1c-5.62.08-8.66,7-10.68,13-.9,2.66-1.61,5.31-2.09,7.3-1.24-.05-2.72-.1-4.32-.1C8.05,27.75,2.28,29.82.86,34.44a6.31,6.31,0,0,0-.29,1.9c1.41,3.55,5.2,6.8,8.75,9.43,2.26,1.68,4.55,3.17,6.3,4.26-.23.6-.47,1.28-.73,2l1.29.82c-.72,1.92-1.62,4.5-2.38,7.21-1,3.4-1.79,7.21-1.55,10.47a6.67,6.67,0,0,0,6.55,4.64h0C24.35,75.17,32.44,69,37,65.11c4.62,3.71,12.72,9.51,18.25,9.51a6.89,6.89,0,0,0,4.25-1.34c2.93-2.19,3.27-6.08,2.64-10.19-.31-1.27-.68-2.54-1-3.74-.84-2.69-1.82-5.25-2.6-7.15l.43-.28c-.35-.93-.69-1.79-1-2.54,1.71-1.13,4-2.69,6.16-4.44C68.34,41.59,72.92,37.31,73,32.82ZM51.49,47.27a4,4,0,0,0-1.87,2.81,63.06,63.06,0,0,1,4.77,14.7,18,18,0,0,1,.68,4.64c-3.13-.73-10-5.36-15-9.71a4,4,0,0,0-5.29.08C30,64.23,23.21,69.14,20.13,70a13.91,13.91,0,0,1,.24-3.1,7,7,0,0,1-.8.28c-.24-2.88,1.76-10.5,4.62-17.24a4.31,4.31,0,0,0,.24-.85A3.86,3.86,0,0,0,23,47.71c-6.36-3.57-12.59-8.35-14.19-10.78a10,10,0,0,1,1.58-.48A14,14,0,0,1,8.28,34.1c1.19-.47,4.12-1.24,10.73-1.24,3.86,0,7,.27,7.09.27A4,4,0,0,0,30.33,30c1.43-7.18,4.07-14.62,5.89-16.86,1.89,2.18,4.75,9.53,6.4,16.67A4,4,0,0,0,47,32.82a88.69,88.69,0,0,1,9.33-.53c5,0,7.45.57,8.5,1a12.91,12.91,0,0,1-1.9,2.24,12.7,12.7,0,0,1,2.47.58C63.82,38.55,57.74,43.52,51.49,47.27Z"/><path class="f" d="M68.8,24.54a4,4,0,1,1-4-3.95A4,4,0,0,1,68.8,24.54Zm.85,12.69a4,4,0,1,0,3.95,4A4,4,0,0,0,69.65,37.23Zm-12,1.41a3,3,0,1,0,3,3A3,3,0,0,0,57.66,38.64Zm2.12,13a2.54,2.54,0,1,0,2.53,2.54A2.53,2.53,0,0,0,59.78,51.62Zm-6.21,9.87a2.82,2.82,0,1,0,2.82,2.82A2.82,2.82,0,0,0,53.57,61.49Zm10.58,4.8a3.53,3.53,0,1,0,3.52,3.52A3.52,3.52,0,0,0,64.15,66.29ZM44.83,60.64a1.7,1.7,0,1,0,1.69,1.7A1.7,1.7,0,0,0,44.83,60.64Zm7.61,11.57a3.11,3.11,0,1,0,3.1,3.1A3.1,3.1,0,0,0,52.44,72.21ZM32.56,58.39a1.55,1.55,0,1,0,1.55,1.55A1.55,1.55,0,0,0,32.56,58.39Zm4.79,7A3.53,3.53,0,1,0,40.88,69,3.52,3.52,0,0,0,37.35,65.44Zm-9.73,4.79a2.54,2.54,0,1,0,2.54,2.54A2.54,2.54,0,0,0,27.62,70.23ZM20.43,64a1.84,1.84,0,1,0,1.83,1.83A1.84,1.84,0,0,0,20.43,64Zm-7.2,5.36a2.82,2.82,0,1,0,2.83,2.82A2.82,2.82,0,0,0,13.23,69.39ZM14.5,56.13A1.84,1.84,0,1,0,16.34,58,1.83,1.83,0,0,0,14.5,56.13Zm8-7.9a2.83,2.83,0,1,0,2.82,2.82A2.83,2.83,0,0,0,22.54,48.23ZM14.5,46a1.27,1.27,0,1,0,1.27,1.27A1.27,1.27,0,0,0,14.5,46Zm-5.78-4.8A2.82,2.82,0,1,0,11.54,44,2.82,2.82,0,0,0,8.72,41.18Zm3.81-4.51a1.27,1.27,0,1,0,1.27,1.27A1.27,1.27,0,0,0,12.53,36.67ZM4.07,26.23a2.68,2.68,0,1,0,2.68,2.68A2.68,2.68,0,0,0,4.07,26.23Zm10.72,3.11a2.12,2.12,0,1,0,2.11,2.11A2.11,2.11,0,0,0,14.79,29.34Zm2.53-8.47A2.12,2.12,0,1,0,19.44,23,2.12,2.12,0,0,0,17.32,20.87Zm8.75,8.75a2.68,2.68,0,1,0,2.68,2.68A2.68,2.68,0,0,0,26.07,29.62ZM32,21.72a1.84,1.84,0,1,0,1.84,1.83A1.83,1.83,0,0,0,32,21.72ZM28.47,11.28a3.11,3.11,0,1,0,3.1,3.11A3.11,3.11,0,0,0,28.47,11.28ZM36.79,2a1.84,1.84,0,1,0,1.83,1.84A1.84,1.84,0,0,0,36.79,2Zm3,12.7A2.26,2.26,0,1,0,42,16.92,2.26,2.26,0,0,0,39.75,14.67Zm5.5-5.36a2.12,2.12,0,1,0,2.11,2.11A2.12,2.12,0,0,0,45.25,9.31Zm-.56,18a2.4,2.4,0,1,0,2.39,2.4A2.39,2.39,0,0,0,44.69,27.36Zm10-5.92a2,2,0,1,0,2,2A2,2,0,0,0,54.7,21.44Zm2.68,9.31a1.83,1.83,0,1,0,1.83,1.83A1.84,1.84,0,0,0,57.38,30.75Z"/><path class="b" d="M68,22.57A4,4,0,1,1,64,18.62,3.94,3.94,0,0,1,68,22.57Zm.84,12.69a3.95,3.95,0,1,0,4,4A4,4,0,0,0,68.8,35.26Zm-12,1.41a3,3,0,1,0,3,3A3,3,0,0,0,56.81,36.67Zm2.12,13a2.54,2.54,0,1,0,2.54,2.54A2.54,2.54,0,0,0,58.93,49.64Zm-6.21,9.87a2.83,2.83,0,1,0,2.82,2.83A2.83,2.83,0,0,0,52.72,59.51Zm10.58,4.8a3.53,3.53,0,1,0,3.53,3.53A3.52,3.52,0,0,0,63.3,64.31ZM44,58.67a1.69,1.69,0,1,0,1.69,1.69A1.69,1.69,0,0,0,44,58.67ZM51.6,70.23a3.11,3.11,0,1,0,3.1,3.11A3.11,3.11,0,0,0,51.6,70.23ZM31.71,56.41A1.55,1.55,0,1,0,33.26,58,1.55,1.55,0,0,0,31.71,56.41Zm4.8,7.05A3.53,3.53,0,1,0,40,67,3.53,3.53,0,0,0,36.51,63.46Zm-9.74,4.8a2.54,2.54,0,1,0,2.54,2.54A2.54,2.54,0,0,0,26.77,68.26Zm-7.19-6.21a1.84,1.84,0,1,0,1.83,1.84A1.84,1.84,0,0,0,19.58,62.05Zm-7.19,5.36a2.82,2.82,0,1,0,2.82,2.82A2.82,2.82,0,0,0,12.39,67.41Zm1.27-13.25A1.83,1.83,0,1,0,15.49,56,1.84,1.84,0,0,0,13.66,54.16Zm8-7.9a2.82,2.82,0,1,0,2.82,2.82A2.82,2.82,0,0,0,21.7,46.26Zm-8-2.26a1.27,1.27,0,1,0,1.27,1.27A1.27,1.27,0,0,0,13.66,44ZM7.88,39.21A2.82,2.82,0,1,0,10.7,42,2.83,2.83,0,0,0,7.88,39.21Zm3.8-4.52A1.27,1.27,0,1,0,13,36,1.27,1.27,0,0,0,11.68,34.69ZM3.22,24.26A2.68,2.68,0,1,0,5.9,26.94,2.68,2.68,0,0,0,3.22,24.26Zm10.72,3.1a2.12,2.12,0,1,0,2.12,2.12A2.12,2.12,0,0,0,13.94,27.36Zm2.54-8.46A2.12,2.12,0,1,0,18.59,21,2.12,2.12,0,0,0,16.48,18.9Zm8.74,8.74a2.68,2.68,0,1,0,2.68,2.68A2.68,2.68,0,0,0,25.22,27.64Zm5.93-7.89A1.83,1.83,0,1,0,33,21.58,1.83,1.83,0,0,0,31.15,19.75ZM27.62,9.31a3.1,3.1,0,1,0,3.1,3.1A3.1,3.1,0,0,0,27.62,9.31ZM35.94,0a1.84,1.84,0,1,0,1.83,1.83A1.83,1.83,0,0,0,35.94,0Zm3,12.69A2.26,2.26,0,1,0,41.16,15,2.26,2.26,0,0,0,38.9,12.69Zm5.5-5.36a2.12,2.12,0,1,0,2.12,2.12A2.11,2.11,0,0,0,44.4,7.33Zm-.56,18.06a2.4,2.4,0,1,0,2.4,2.39A2.39,2.39,0,0,0,43.84,25.39Zm10-5.93a2,2,0,1,0,2,2A2,2,0,0,0,53.85,19.46Zm2.68,9.31a1.84,1.84,0,1,0,1.84,1.83A1.83,1.83,0,0,0,56.53,28.77Z"/><path class="f" d="M68,22.57A4,4,0,1,1,64,18.62,3.94,3.94,0,0,1,68,22.57Zm.84,12.69a3.95,3.95,0,1,0,4,4A4,4,0,0,0,68.8,35.26Zm-12,1.41a3,3,0,1,0,3,3A3,3,0,0,0,56.81,36.67Zm2.12,13a2.54,2.54,0,1,0,2.54,2.54A2.54,2.54,0,0,0,58.93,49.64Zm-6.21,9.87a2.83,2.83,0,1,0,2.82,2.83A2.83,2.83,0,0,0,52.72,59.51Zm10.58,4.8a3.53,3.53,0,1,0,3.53,3.53A3.52,3.52,0,0,0,63.3,64.31ZM44,58.67a1.69,1.69,0,1,0,1.69,1.69A1.69,1.69,0,0,0,44,58.67ZM51.6,70.23a3.11,3.11,0,1,0,3.1,3.11A3.11,3.11,0,0,0,51.6,70.23ZM31.71,56.41A1.55,1.55,0,1,0,33.26,58,1.55,1.55,0,0,0,31.71,56.41Zm4.8,7.05A3.53,3.53,0,1,0,40,67,3.53,3.53,0,0,0,36.51,63.46Zm-9.74,4.8a2.54,2.54,0,1,0,2.54,2.54A2.54,2.54,0,0,0,26.77,68.26Zm-7.19-6.21a1.84,1.84,0,1,0,1.83,1.84A1.84,1.84,0,0,0,19.58,62.05Zm-7.19,5.36a2.82,2.82,0,1,0,2.82,2.82A2.82,2.82,0,0,0,12.39,67.41Zm1.27-13.25A1.83,1.83,0,1,0,15.49,56,1.84,1.84,0,0,0,13.66,54.16Zm8-7.9a2.82,2.82,0,1,0,2.82,2.82A2.82,2.82,0,0,0,21.7,46.26Zm-8-2.26a1.27,1.27,0,1,0,1.27,1.27A1.27,1.27,0,0,0,13.66,44ZM7.88,39.21A2.82,2.82,0,1,0,10.7,42,2.83,2.83,0,0,0,7.88,39.21Zm3.8-4.52A1.27,1.27,0,1,0,13,36,1.27,1.27,0,0,0,11.68,34.69ZM3.22,24.26A2.68,2.68,0,1,0,5.9,26.94,2.68,2.68,0,0,0,3.22,24.26Zm10.72,3.1a2.12,2.12,0,1,0,2.12,2.12A2.12,2.12,0,0,0,13.94,27.36Zm2.54-8.46A2.12,2.12,0,1,0,18.59,21,2.12,2.12,0,0,0,16.48,18.9Zm8.74,8.74a2.68,2.68,0,1,0,2.68,2.68A2.68,2.68,0,0,0,25.22,27.64Zm5.93-7.89A1.83,1.83,0,1,0,33,21.58,1.83,1.83,0,0,0,31.15,19.75ZM27.62,9.31a3.1,3.1,0,1,0,3.1,3.1A3.1,3.1,0,0,0,27.62,9.31ZM35.94,0a1.84,1.84,0,1,0,1.83,1.83A1.83,1.83,0,0,0,35.94,0Zm3,12.69A2.26,2.26,0,1,0,41.16,15,2.26,2.26,0,0,0,38.9,12.69Zm5.5-5.36a2.12,2.12,0,1,0,2.12,2.12A2.11,2.11,0,0,0,44.4,7.33Zm-.56,18.06a2.4,2.4,0,1,0,2.4,2.39A2.39,2.39,0,0,0,43.84,25.39Zm10-5.93a2,2,0,1,0,2,2A2,2,0,0,0,53.85,19.46Zm2.68,9.31a1.84,1.84,0,1,0,1.84,1.83A1.83,1.83,0,0,0,56.53,28.77Z"/><path class="b" d="M60.17,50a2.51,2.51,0,0,0-1.24-.34,2.54,2.54,0,0,0-2.51,2.21,2.61,2.61,0,0,0,1.24.33A2.54,2.54,0,0,0,60.17,50Z"/><path class="b" d="M33,67a.78.78,0,0,0,0,.16,3.47,3.47,0,0,0,2.24.83,3.53,3.53,0,0,0,3.52-3.53c0-.06,0-.11,0-.16A3.51,3.51,0,0,0,33,67Z"/><path class="b" d="M52,20.78a2.2,2.2,0,0,0,.58.09,2,2,0,0,0,1.85-1.31,1.81,1.81,0,0,0-.58-.1A2,2,0,0,0,52,20.78Z"/><path class="b" d="M54.86,29.85a1.8,1.8,0,0,0,2.07-1,1.75,1.75,0,0,0-.4-.05A1.85,1.85,0,0,0,54.86,29.85Z"/><path class="b" d="M.57,26.68a2.59,2.59,0,0,0,1.38.4,2.68,2.68,0,0,0,2.66-2.43,2.74,2.74,0,0,0-1.39-.39A2.66,2.66,0,0,0,.57,26.68Z"/><path class="b" d="M14.45,20.45a2.14,2.14,0,0,0,.76.14,2.11,2.11,0,0,0,2-1.55,2.14,2.14,0,0,0-.76-.14A2.1,2.1,0,0,0,14.45,20.45Z"/><path class="b" d="M9.41,39.67a2.78,2.78,0,0,0-1.53-.46,2.82,2.82,0,0,0-2.81,2.64,2.81,2.81,0,0,0,4.34-2.18Z"/><path class="b" d="M11.91,28.91a2.14,2.14,0,0,0,.76.14,2.11,2.11,0,0,0,2-1.54,2.14,2.14,0,0,0-.76-.15A2.11,2.11,0,0,0,11.91,28.91Z"/><path class="b" d="M53.86,39.53A3,3,0,0,0,58.5,37.2a2.9,2.9,0,0,0-1.69-.53A3,3,0,0,0,53.86,39.53Z"/><path class="b" d="M50.33,73.9a3.09,3.09,0,0,0,3.09-3.06,3,3,0,0,0-1.82-.61,3.1,3.1,0,0,0-3.1,3.06A3,3,0,0,0,50.33,73.9Z"/><path class="b" d="M64.85,39.21c0,.13,0,.25,0,.38a3.94,3.94,0,0,0,6.59-2.92c0-.13,0-.25,0-.38a3.94,3.94,0,0,0-6.59,2.92Z"/><path class="b" d="M59.78,67.84s0,.1,0,.16a3.48,3.48,0,0,0,2.24.82,3.52,3.52,0,0,0,3.53-3.52c0-.06,0-.11,0-.17a3.51,3.51,0,0,0-5.76,2.71Z"/><path class="b" d="M66.69,20c0-.13,0-.26,0-.38a3.89,3.89,0,0,0-2.64-1,3.94,3.94,0,0,0-4,3.95c0,.13,0,.25,0,.37A3.93,3.93,0,0,0,66.69,20Z"/><path class="b" d="M52.72,59.51a2.82,2.82,0,0,0-2.8,2.65,2.78,2.78,0,0,0,1.53.46A2.82,2.82,0,0,0,54.26,60,2.9,2.9,0,0,0,52.72,59.51Z"/><path class="b" d="M44.16,58.69l-.18,0a1.68,1.68,0,0,0-1.45.83h.18A1.69,1.69,0,0,0,44.16,58.69Z"/><path class="b" d="M28,68.59a2.58,2.58,0,0,0-1.24-.33,2.53,2.53,0,0,0-2.5,2.2,2.47,2.47,0,0,0,1.23.34A2.54,2.54,0,0,0,28,68.59Z"/><path class="b" d="M24,30.46A2.67,2.67,0,0,0,26.61,28a2.65,2.65,0,0,0-4,2A2.68,2.68,0,0,0,24,30.46Z"/><path class="b" d="M24.52,12.37a3.1,3.1,0,0,0,4.93-2.45,3,3,0,0,0-1.83-.61A3.1,3.1,0,0,0,24.52,12.37Z"/><path class="b" d="M31.62,56.42a1.54,1.54,0,0,0-1.09.55A1.52,1.52,0,0,0,31.62,56.42Z"/><path class="b" d="M44.93,25.66a2.38,2.38,0,0,0-3.45,1.71,2.38,2.38,0,0,0,3.45-1.71Z"/><path class="b" d="M44.4,7.33a2.11,2.11,0,0,0-2,1.55,2.19,2.19,0,0,0,.76.15,2.11,2.11,0,0,0,2-1.55A2.1,2.1,0,0,0,44.4,7.33Z"/><path class="b" d="M13.92,67.87a2.76,2.76,0,0,0-1.53-.46,2.81,2.81,0,0,0-2.8,2.65,2.8,2.8,0,0,0,4.33-2.19Z"/><path class="b" d="M23.23,46.72a2.78,2.78,0,0,0-1.53-.46,2.82,2.82,0,0,0-2.81,2.64,2.81,2.81,0,0,0,4.34-2.18Z"/><path class="b" d="M20,62.1a1.75,1.75,0,0,0-.4-.05,1.84,1.84,0,0,0-1.67,1.09,2.58,2.58,0,0,0,.4,0A1.82,1.82,0,0,0,20,62.1Z"/><path class="b" d="M13.66,54.16A1.82,1.82,0,0,0,12,55.24a1.75,1.75,0,0,0,.4,0,1.83,1.83,0,0,0,1.67-1.08A1.75,1.75,0,0,0,13.66,54.16Z"/><path class="b" d="M34.27,1.08a1.75,1.75,0,0,0,.4,0A1.84,1.84,0,0,0,36.34.05a1.75,1.75,0,0,0-.4,0A1.83,1.83,0,0,0,34.27,1.08Z"/><path class="b" d="M39.83,12.9a2.19,2.19,0,0,0-.93-.21,2.26,2.26,0,0,0-2.2,1.77,2.23,2.23,0,0,0,3.13-1.56Z"/><path class="b" d="M29.48,20.83a2.58,2.58,0,0,0,.4,0,1.81,1.81,0,0,0,1.66-1.08,1.67,1.67,0,0,0-.39,0A1.81,1.81,0,0,0,29.48,20.83Z"/></g></svg>