<svg xmlns="http://www.w3.org/2000/svg" xmlns:xlink="http://www.w3.org/1999/xlink" viewBox="0 0 62.13 77.2"><defs><style>.a{isolation:isolate;}.b{fill:#ffa435;}.c{fill:#840034;opacity:0.3;mix-blend-mode:multiply;}.d,.g{fill:#fff;}.e{fill:url(#a);}.f{fill:url(#b);}.g{opacity:0.2;}</style><linearGradient id="a" y1="45.06" x2="57.93" y2="45.06" gradientUnits="userSpaceOnUse"><stop offset="0.16" stop-color="#fe0034"/><stop offset="1" stop-color="#fe0034"/></linearGradient><linearGradient id="b" x1="0.5" y1="43.36" x2="56.61" y2="43.36" xlink:href="#a"/></defs><title>Asset 18</title><g class="a"><path class="b" d="M35.05,32.42c.29-.85,2.82-11.56,2.82-11.56s6.21,1.41,10.44-5.93c1.41-.56,13.82-.84,13.82-.84s-7.61,6.77-5.36,13.82c0,0-13-2.26-13.26,2.54Z"/><path class="c" d="M62.13,14.09h-.29c-6.68,3.55-18,9.57-25.57,13.49-.57,2.34-1.1,4.48-1.22,4.84l8.46-2c.29-4.8,13.26-2.54,13.26-2.54C54.52,20.86,62.13,14.09,62.13,14.09Z"/><path class="b" d="M30.48,30.85c-.28-.85-4.62-11-4.62-11s5.83-2.56,4.86-11C31.52,7.62,41.32,0,41.32,0s-2.09,10,3.92,14.29c0,0-11.77,5.92-9.14,9.94Z"/><path class="c" d="M41.32,0l-.23.18C37.84,7,32.3,18.6,28.57,26.24c.94,2.22,1.79,4.25,1.91,4.61l5.62-6.62c-2.63-4,9.14-9.94,9.14-9.94C39.23,10,41.32,0,41.32,0Z"/><path class="d" d="M1.49,73.6S11.64,78.25,32,77s25.81-4.23,25.81-4.23S62.84,28.33,28.14,30C-4,31.59,1.49,73.6,1.49,73.6Z"/><path class="c" d="M1.49,73.6S11.64,78.25,32,77s25.81-4.23,25.81-4.23S62.84,28.33,28.14,30C-4,31.59,1.49,73.6,1.49,73.6Z"/><path class="d" d="M28.14,30C1.71,31.31.72,59.91,1.21,70.06c4.86,1.22,13.41,2.61,25.66,1.85,20.31-1.27,25.81-4.23,25.81-4.23s2.34-20.49-7-33.11C41.4,31.48,35.72,29.65,28.14,30Z"/><path class="e" d="M28.08,28.84C9.11,29.76,2.29,43.72,0,56.18c1.22,1.52,3.32,2.35,6.55,2,4.34-.49,9.76-3.9,9.56-8.7,3.56,4.66,8.89,7.26,12.13.32,1.44,6,2.75,12.26,10.88,11.47,4.88-.48,5.54-6.38,5.61-10.64,2.18,6,9.75,3.36,10-2.74a11.75,11.75,0,0,0,3.17,2.79C54.53,39.11,46.51,27.94,28.08,28.84Z"/><path class="c" d="M48.49,37C43.81,33.25,37.4,31,28.64,31.38,16.55,32,9.39,37.86,5.2,45.28A46.91,46.91,0,0,0,1.5,59.61a7.78,7.78,0,0,0,5.61,1.1c4.34-.49,9.76-3.9,9.57-8.7,3.55,4.66,8.88,7.26,12.12.32,1.44,6,2.75,12.26,10.89,11.47,4.87-.48,5.53-6.39,5.61-10.64,2.17,6,9.74,3.36,10-2.74l.77.86A31.72,31.72,0,0,0,48.49,37Z"/><path class="c" d="M28.08,28.84C9.11,29.76,2.29,43.72,0,56.18c1.22,1.52,3.32,2.35,6.55,2,4.34-.49,9.76-3.9,9.56-8.7,3.56,4.66,8.89,7.26,12.13.32,1.44,6,2.75,12.26,10.88,11.47,4.88-.48,5.54-6.38,5.61-10.64,2.18,6,9.75,3.36,10-2.74a11.75,11.75,0,0,0,3.17,2.79C54.53,39.11,46.51,27.94,28.08,28.84Z"/><path class="f" d="M28.08,28.84C10.32,29.7,3.21,42,.5,53.78a7.86,7.86,0,0,0,5.49,1c4.33-.49,9.75-3.89,9.56-8.69,3.55,4.66,8.88,7.25,12.12.31,1.44,6,2.76,12.26,10.89,11.47,4.87-.47,5.53-6.38,5.61-10.64,2.17,6,9.74,3.36,10-2.73a16,16,0,0,0,2.41,2.34C52.61,36.77,44.46,28,28.08,28.84Z"/><path class="d" d="M37.59,27.77a9.17,9.17,0,1,1-9.17-9.17A9.16,9.16,0,0,1,37.59,27.77Z"/><path class="c" d="M38.23,29.46a9.17,9.17,0,1,1-9.17-9.17A9.18,9.18,0,0,1,38.23,29.46Z"/><path class="c" d="M37.59,27.77a9.17,9.17,0,1,1-9.17-9.17A9.16,9.16,0,0,1,37.59,27.77Z"/><path class="d" d="M19.26,27.77a9,9,0,0,0,.31,2.33A9.16,9.16,0,0,0,34.49,23a9.5,9.5,0,0,0-.31-2.34,9.17,9.17,0,0,0-14.92,7.14Z"/><path class="g" d="M36.18,46.1a1.55,1.55,0,1,1-1.55-1.55A1.54,1.54,0,0,1,36.18,46.1Zm3,4.37a1.27,1.27,0,1,0,1.27,1.27A1.27,1.27,0,0,0,39.14,50.47Zm2.54-13.54a1.84,1.84,0,1,0,1.84,1.84A1.83,1.83,0,0,0,41.68,36.93Zm8.18,7.34a1.27,1.27,0,1,0,1.27,1.27A1.27,1.27,0,0,0,49.86,44.27Zm-25-5.93a1.41,1.41,0,1,0,1.41,1.41A1.41,1.41,0,0,0,24.9,38.34ZM22.36,43.7a1.7,1.7,0,1,0,1.69,1.69A1.69,1.69,0,0,0,22.36,43.7Zm-6.63-7.05a1.55,1.55,0,1,0,1.55,1.55A1.55,1.55,0,0,0,15.73,36.65Zm-4.65,8.74a1.13,1.13,0,1,0,1.13,1.13A1.13,1.13,0,0,0,11.08,45.39ZM8.4,39.19a1,1,0,1,0,1,1A1,1,0,0,0,8.4,39.19ZM3.89,47.65a1,1,0,1,0,1,1A1,1,0,0,0,3.89,47.65Z"/></g></svg>