<svg xmlns="http://www.w3.org/2000/svg" xmlns:xlink="http://www.w3.org/1999/xlink" viewBox="0 0 67.75 68.27"><defs><style>.a{isolation:isolate;}.b{fill:url(#a);}.c{fill:#840034;opacity:0.3;mix-blend-mode:multiply;}.d{fill:url(#b);}.e,.f,.i{fill:#fff;}.e{opacity:0.2;}.g{fill:#ff0034;}.h{fill:#f2bf18;}.i{mix-blend-mode:overlay;}</style><linearGradient id="a" x1="0.56" y1="36.39" x2="67.75" y2="36.39" gradientUnits="userSpaceOnUse"><stop offset="0.16" stop-color="#fe0034"/><stop offset="1" stop-color="#fe0034"/></linearGradient><linearGradient id="b" x1="10.35" y1="54.26" x2="55.29" y2="7.73" xlink:href="#a"/></defs><title>Asset 19</title><g class="a"><path class="b" d="M66.87,35.24a8.39,8.39,0,0,0,.85-4c-6.12-.71-5.3-6.14-8.18-10.09-1.81-2.49-3.7-2.92-4.76-5.72C53.86,13,55.4,11.62,53,9.51S41.08,5.2,37.9,4.7a35.84,35.84,0,0,0-5.85-.12c-2.38.25-3.48,1.7-5.6,2-2.59.4-4-1.76-6.43-.94s-2.12,3.58-3.9,5c-2.06,1.68-4.4.9-6.61,2.31C6.78,14.77,7.9,16,6.22,18.27c-2,2.71-3.07,1.32-3.49,5.35-.53,5.11-1.33,9.9-1.43,15,0,1.24-.94,2.43-.69,4,.13.84,1.8,1.77,2.15,2.77.39,1.15,0,3.17.05,4.4,5.61-.57,3.79,8.68,8.77,7.7.5,2.69,4.64,6.87,7.2,7.87,3.22,1.24,6.45,1,9.79,1.36,2.7.31,6.17,2,8.84,1.33.8-.2,1.11-2.31,2.31-2.63s2.87,1.23,4,1c1.85-.44,2.5-2.19,3.91-3.16a20.7,20.7,0,0,1,3.2-1.76c1.37-.7,2.71-.43,4-1.35s1.05-2.28,2.1-3.26c.76-.72,2.67-.75,3.26-1.75,1.13-2,.51-4.78,1.69-6.93.89-1.62,2.81-2.38,3.6-3.76,1.45-2.54.26-3.2.49-6.11A11.18,11.18,0,0,1,66.87,35.24ZM42.81,38l2.41,14.14L32.53,45.5,19.82,52.17,22.25,38,12,28,26.19,26l6.35-12.86L38.89,26,53.09,28Z"/><path class="c" d="M66.87,35.24a8.39,8.39,0,0,0,.85-4c-6.12-.71-5.3-6.14-8.18-10.09-1.81-2.49-3.7-2.92-4.76-5.72C53.86,13,55.4,11.62,53,9.51S41.08,5.2,37.9,4.7a35.84,35.84,0,0,0-5.85-.12c-2.38.25-3.48,1.7-5.6,2-2.59.4-4-1.76-6.43-.94s-2.12,3.58-3.9,5c-2.06,1.68-4.4.9-6.61,2.31C6.78,14.77,7.9,16,6.22,18.27c-2,2.71-3.07,1.32-3.49,5.35-.53,5.11-1.33,9.9-1.43,15,0,1.24-.94,2.43-.69,4,.13.84,1.8,1.77,2.15,2.77.39,1.15,0,3.17.05,4.4,5.61-.57,3.79,8.68,8.77,7.7.5,2.69,4.64,6.87,7.2,7.87,3.22,1.24,6.45,1,9.79,1.36,2.7.31,6.17,2,8.84,1.33.8-.2,1.11-2.31,2.31-2.63s2.87,1.23,4,1c1.85-.44,2.5-2.19,3.91-3.16a20.7,20.7,0,0,1,3.2-1.76c1.37-.7,2.71-.43,4-1.35s1.05-2.28,2.1-3.26c.76-.72,2.67-.75,3.26-1.75,1.13-2,.51-4.78,1.69-6.93.89-1.62,2.81-2.38,3.6-3.76,1.45-2.54.26-3.2.49-6.11A11.18,11.18,0,0,1,66.87,35.24ZM42.81,38l2.41,14.14L32.53,45.5,19.82,52.17,22.25,38,12,28,26.19,26l6.35-12.86L38.89,26,53.09,28Z"/><path class="d" d="M66.31,30.72a8.58,8.58,0,0,0,.85-4C61,26,61.85,20.61,59,16.66c-1.82-2.5-3.7-2.92-4.77-5.73-.92-2.42.62-3.82-1.76-5.93S40.52.69,37.34.18A37.09,37.09,0,0,0,31.48.07c-2.38.25-3.47,1.69-5.59,2-2.59.41-4-1.76-6.43-.93-2.59.88-2.12,3.58-3.9,5C13.5,7.88,11.15,7.1,9,8.51c-2.73,1.75-1.61,2.93-3.3,5.24-2,2.72-3.06,1.32-3.48,5.35C1.64,24.22.84,29,.73,34.13c0,1.23-.93,2.43-.69,4,.13.84,1.81,1.76,2.15,2.76.39,1.16,0,3.17.06,4.4C7.85,44.75,6,54,11,53c.5,2.69,4.65,6.87,7.21,7.86,3.21,1.25,6.45,1,9.78,1.36,2.71.31,6.18,2,8.84,1.34.8-.21,1.12-2.32,2.32-2.64s2.86,1.24,4,1c1.85-.44,2.49-2.19,3.91-3.16A20.24,20.24,0,0,1,50.27,57c1.37-.7,2.71-.42,4-1.34s1-2.28,2.09-3.27c.77-.71,2.68-.74,3.26-1.75,1.14-2,.51-4.77,1.69-6.92.9-1.62,2.82-2.38,3.6-3.76,1.46-2.54.27-3.2.49-6.12A11.3,11.3,0,0,1,66.31,30.72Zm-24.07,2.8,2.42,14.15L32,41l-12.7,6.67,2.43-14.14-10.27-10,14.2-2L32,8.57l6.34,12.87,14.2,2.07Z"/><path class="e" d="M66.31,30.72a8.58,8.58,0,0,0,.85-4C61,26,61.85,20.61,59,16.66c-1.82-2.5-3.7-2.92-4.77-5.73-.92-2.42.62-3.82-1.76-5.93S40.52.69,37.34.18A37.09,37.09,0,0,0,31.48.07c-2.38.25-3.47,1.69-5.59,2-2.59.41-4-1.76-6.43-.93-2.59.88-2.12,3.58-3.9,5C13.5,7.88,11.15,7.1,9,8.51c-2.73,1.75-1.61,2.93-3.3,5.24-2,2.72-3.06,1.32-3.48,5.35C1.64,24.22.84,29,.73,34.13c0,1.23-.93,2.43-.69,4,.13.84,1.81,1.76,2.15,2.76.39,1.16,0,3.17.06,4.4C7.85,44.75,6,54,11,53c.5,2.69,4.65,6.87,7.21,7.86,3.21,1.25,6.45,1,9.78,1.36,2.71.31,6.18,2,8.84,1.34.8-.21,1.12-2.32,2.32-2.64s2.86,1.24,4,1c1.85-.44,2.49-2.19,3.91-3.16A20.24,20.24,0,0,1,50.27,57c1.37-.7,2.71-.42,4-1.34s1-2.28,2.09-3.27c.77-.71,2.68-.74,3.26-1.75,1.14-2,.51-4.77,1.69-6.92.9-1.62,2.82-2.38,3.6-3.76,1.46-2.54.27-3.2.49-6.12A11.3,11.3,0,0,1,66.31,30.72Zm-24.07,2.8,2.42,14.15L32,41l-12.7,6.67,2.43-14.14-10.27-10,14.2-2L32,8.57l6.34,12.87,14.2,2.07Z"/><path class="f" d="M59,16.66c-1.82-2.5-3.7-2.92-4.77-5.73a5.25,5.25,0,0,1-.33-1.68L53.79,9a7,7,0,0,1-.33-2.83,4.9,4.9,0,0,0-1-1.2C50,2.81,40.52.69,37.34.18A37.09,37.09,0,0,0,31.48.07c-2.38.25-3.47,1.69-5.59,2-2.59.41-4-1.76-6.43-.93-2.59.88-2.12,3.58-3.9,5C13.5,7.88,11.15,7.1,9,8.51c-2.73,1.75-1.61,2.93-3.3,5.24-2,2.72-3.06,1.32-3.48,5.35C1.64,24.22.84,29,.73,34.13A27.86,27.86,0,0,1,.05,37c.55.63,1.47,1.3,1.72,2a4.87,4.87,0,0,1,.17,1.44,1.91,1.91,0,0,1,.25.46,7,7,0,0,1,.13,2.47c5,0,3.44,8.68,8.27,7.74.5,2.69,4.64,6.86,7.2,7.86,3.22,1.25,6.46,1,9.79,1.36,2.7.31,6.18,2,8.84,1.34.8-.21,1.11-2.32,2.32-2.64s2.86,1.24,4,1c1.84-.43,2.49-2.19,3.9-3.16a21.57,21.57,0,0,1,3.2-1.76c1.37-.7,2.71-.43,4-1.35s1-2.28,2.1-3.26c.76-.72,2.68-.74,3.26-1.75,1.14-2,.51-4.78,1.69-6.92.89-1.63,2.81-2.39,3.6-3.76,1.46-2.54.27-3.21.49-6.12a10.87,10.87,0,0,1,.87-3.11,14.85,14.85,0,0,0,.71-2.17C61.1,25.67,61.76,20.48,59,16.66ZM42.24,33.52l2.42,14.15L32,41c-.33-.18-2.82,1.48-3.15,1.65l-6,3.13c-1.64.87-3.66,2.61-4-.22-.24-2.21.76-4.44,1.13-6.58l1.05-6.08-5.27-5.14c-.88-.86-6.15-5-4.56-6.18a5.24,5.24,0,0,1,1.71-.26l4.89-.71,7.38-1.07L31.56,6.67,37.9,19.54l6.69,1a49.67,49.67,0,0,1,6.07.92c3.3.89,1,2.91-.6,4.47l-5.12,5C44.65,31.18,42.18,33.13,42.24,33.52Z"/><path class="g" d="M24.47,10.16A3.5,3.5,0,1,1,21,6.66,3.5,3.5,0,0,1,24.47,10.16Z"/><path class="h" d="M24.47,10.16A3.5,3.5,0,1,1,21,6.66,3.5,3.5,0,0,1,24.47,10.16Z"/><path class="i" d="M23.57,8.06a2,2,0,0,0,0-.25A3.46,3.46,0,0,0,21,6.66a3.5,3.5,0,0,0-3.5,3.5,2.18,2.18,0,0,0,0,.25,3.5,3.5,0,0,0,6.09-2.35Z"/><path class="i" d="M21.17,8.71a1.15,1.15,0,1,1-2.3,0,1.15,1.15,0,0,1,2.3,0Z"/><path class="g" d="M48.44,10.44a3.5,3.5,0,1,1-3.5-3.5A3.5,3.5,0,0,1,48.44,10.44Z"/><path class="h" d="M48.44,10.44a3.5,3.5,0,1,1-3.5-3.5A3.5,3.5,0,0,1,48.44,10.44Z"/><path class="i" d="M47.54,8.34a2,2,0,0,0,0-.25,3.5,3.5,0,0,0-6.09,2.35,2.11,2.11,0,0,0,0,.25,3.49,3.49,0,0,0,6.08-2.35Z"/><path class="i" d="M45.14,9A1.15,1.15,0,1,1,44,7.84,1.15,1.15,0,0,1,45.14,9Z"/><path class="g" d="M57.47,36.39a3.5,3.5,0,1,1-3.5-3.5A3.5,3.5,0,0,1,57.47,36.39Z"/><path class="h" d="M57.47,36.39a3.5,3.5,0,1,1-3.5-3.5A3.5,3.5,0,0,1,57.47,36.39Z"/><path class="i" d="M56.57,34.29c0-.09,0-.17,0-.25a3.5,3.5,0,0,0-6.09,2.35c0,.08,0,.17,0,.25a3.5,3.5,0,0,0,6.09-2.35Z"/><path class="i" d="M54.17,34.94a1.15,1.15,0,0,1-2.3,0,1.15,1.15,0,0,1,2.3,0Z"/><path class="g" d="M34.9,54.44a3.5,3.5,0,1,1-3.5-3.5A3.5,3.5,0,0,1,34.9,54.44Z"/><path class="h" d="M34.9,54.44a3.5,3.5,0,1,1-3.5-3.5A3.5,3.5,0,0,1,34.9,54.44Z"/><path class="i" d="M34,52.34a2,2,0,0,0,0-.25,3.47,3.47,0,0,0-2.59-1.15,3.5,3.5,0,0,0-3.5,3.5,2.11,2.11,0,0,0,0,.25A3.49,3.49,0,0,0,34,52.34Z"/><path class="i" d="M31.6,53a1.15,1.15,0,1,1-1.15-1.15A1.15,1.15,0,0,1,31.6,53Z"/><path class="g" d="M12.06,35.54A3.5,3.5,0,1,1,8.56,32,3.5,3.5,0,0,1,12.06,35.54Z"/><path class="h" d="M12.06,35.54A3.5,3.5,0,1,1,8.56,32,3.5,3.5,0,0,1,12.06,35.54Z"/><path class="i" d="M11.16,33.44a2.11,2.11,0,0,0,0-.25,3.49,3.49,0,0,0-6.08,2.35,2,2,0,0,0,0,.25,3.47,3.47,0,0,0,2.59,1.15A3.5,3.5,0,0,0,11.16,33.44Z"/><path class="i" d="M8.76,34.09a1.15,1.15,0,1,1-1.15-1.15A1.15,1.15,0,0,1,8.76,34.09Z"/></g></svg>