<svg xmlns="http://www.w3.org/2000/svg" xmlns:xlink="http://www.w3.org/1999/xlink" viewBox="0 0 41.18 65.81"><defs><style>.a{isolation:isolate;}.b{fill:#fff;}.c{fill:url(#a);}.d{fill:url(#b);}.e{fill:url(#c);}.f{fill:url(#d);}.g{fill:url(#e);}.h{fill:url(#f);}.i{fill:url(#g);}.j{fill:url(#h);}.k{fill:#840034;opacity:0.3;mix-blend-mode:multiply;}</style><linearGradient id="a" x1="1.3" y1="17.96" x2="11.03" y2="17.96" gradientUnits="userSpaceOnUse"><stop offset="0.16" stop-color="#fe0034"/><stop offset="1" stop-color="#fe0034"/></linearGradient><linearGradient id="b" x1="28.96" y1="24.93" x2="40.01" y2="24.93" xlink:href="#a"/><linearGradient id="c" x1="7.62" y1="9.3" x2="15.88" y2="9.3" xlink:href="#a"/><linearGradient id="d" x1="21.76" y1="59.77" x2="31.74" y2="59.77" xlink:href="#a"/><linearGradient id="e" x1="28.04" y1="13.73" x2="37.35" y2="13.73" xlink:href="#a"/><linearGradient id="f" x1="27.05" y1="35.21" x2="38" y2="35.21" xlink:href="#a"/><linearGradient id="g" x1="24.67" y1="46.97" x2="34.99" y2="46.97" xlink:href="#a"/><linearGradient id="h" x1="21.07" y1="6.66" x2="25.62" y2="6.66" xlink:href="#a"/></defs><title>Asset 3</title><g class="a"><path class="b" d="M12,20.3c-1.09-7.06,9.5-9.94,14.4-6.85,1.07.68,2,2.48,2.46,4.32,1,3.8-.16,8.2-1,11.91C25.58,39.2,23.55,48.86,21,58.3c-2,7.53,9.65,10.75,11.66,3.21,1.69-6.34,2.81-12.8,4.31-19.19,1.41-6,3.14-11.76,3.94-17.88,1.15-8.7-1.83-18.32-10.17-22.37C23.94-1.25,15.74-.42,9.3,3.42,2.1,7.7-1,15.33.27,23.42c.5,3.26,4.48,5.07,7.4,4.28,3.44-.91,4.79-4.14,4.29-7.4Z"/><path class="c" d="M11.06,25.26a7.21,7.21,0,0,0,.9-5c0-.11,0-.23,0-.34a68.36,68.36,0,0,1-9.65-9.3A18.76,18.76,0,0,0,.43,15.78,56.69,56.69,0,0,0,11.06,25.26Z"/><path class="d" d="M28,28.91a87.48,87.48,0,0,1,12.76-3c.07-.49.15-1,.21-1.47A25.36,25.36,0,0,0,41.17,21,87.58,87.58,0,0,0,29,23.54,52.59,52.59,0,0,1,28,28.91Z"/><path class="e" d="M12.88,16.08a8.43,8.43,0,0,1,3.87-2.94A111.3,111.3,0,0,1,11,2.52c-.57.28-1.13.57-1.67.9A19.3,19.3,0,0,0,6.88,5.11,119,119,0,0,0,12.88,16.08Z"/><path class="f" d="M22,54.51c-.32,1.26-.63,2.53-1,3.79a8.08,8.08,0,0,0-.16.8A35.83,35.83,0,0,1,30.14,65a5.59,5.59,0,0,0,2.55-3.52c0-.13.07-.27.1-.41A41.32,41.32,0,0,0,22,54.51Z"/><path class="g" d="M29.3,21.59c1-4.52,4.75-8.92,9-12.29a17.8,17.8,0,0,0-2.91-3.89,36.25,36.25,0,0,0-8.2,8.84,9.78,9.78,0,0,1,1.61,3.52A14.12,14.12,0,0,1,29.16,22,2.15,2.15,0,0,0,29.3,21.59Z"/><path class="h" d="M27.19,32.32c-.37,1.63-.75,3.26-1.12,4.9,3.83-.81,7.93-.06,12,1,.38-1.51.76-3,1.13-4.53A37.64,37.64,0,0,0,27.19,32.32Z"/><path class="i" d="M24.85,42.6c-.36,1.57-.73,3.14-1.1,4.7A52.59,52.59,0,0,1,35,51.35c.34-1.62.68-3.24,1-4.86A59.58,59.58,0,0,0,24.85,42.6Z"/><path class="j" d="M20.66,0c.36,4.05.53,8.12.6,12.19A9.63,9.63,0,0,1,26.1,13.3C26,9,25.86,4.66,25.5.35A21.82,21.82,0,0,0,20.66,0Z"/><path class="k" d="M26.63,60.72c-2.42-.44-1.12-6.28-.89-7.68C27.2,44,30.25,35.15,32.87,26.37c1.38-4.61,2.65-8.3.08-12.89A15,15,0,0,0,19.58,6.09c-12.9.2-8.47,13.71-13.91,16.73-3.35,1.87-4.79-2-5.54-5.2a22.2,22.2,0,0,0,.14,5.8c.5,3.26,4.48,5.07,7.4,4.28,3.44-.91,4.79-4.14,4.29-7.4-1.09-7.06,9.5-9.94,14.4-6.85,1.07.68,2,2.48,2.46,4.32,1,3.8-.16,8.2-1,11.91C25.58,39.2,23.55,48.86,21,58.3c-2,7.53,9.65,10.75,11.66,3.21.41-1.53.78-3.07,1.14-4.61C31.82,59.18,29.25,61.18,26.63,60.72Z"/></g></svg>