<svg xmlns="http://www.w3.org/2000/svg" xmlns:xlink="http://www.w3.org/1999/xlink" viewBox="0 0 68.14 67.64"><defs><style>.a{isolation:isolate;}.b,.f{fill:#fff;}.c{fill:url(#a);}.d,.e{fill:#840034;}.e{opacity:0.3;mix-blend-mode:multiply;}.f{opacity:0.2;}.g{fill:url(#b);}</style><linearGradient id="a" x1="-8.2" y1="24.92" x2="59.52" y2="24.92" gradientTransform="translate(41.18 -1.32) rotate(56.96)" gradientUnits="userSpaceOnUse"><stop offset="0.16" stop-color="#fe0034"/><stop offset="1" stop-color="#fe0034"/></linearGradient><linearGradient id="b" x1="-5.8" y1="26.93" x2="60.35" y2="26.93" xlink:href="#a"/></defs><title>Asset 20</title><g class="a"><path class="b" d="M53.77,44.43c.79-.88,1.54-1.8,2.26-2.74a80.17,80.17,0,0,0,5.63-11c.07-.23.12-.46.18-.69a27.15,27.15,0,0,1-2.27-18.18A7.16,7.16,0,0,1,58.11,13l-.33.22c-4.1,2.66-8.21.54-10-2.78A7.14,7.14,0,0,1,42.5,7.27a7.14,7.14,0,0,1-1.07-3c-2.59,3.74-8.7,5.21-11.94.24A6.78,6.78,0,0,1,28.34,0,27.81,27.81,0,0,1,17.2,7.64,95.37,95.37,0,0,0,11.07,15a21.7,21.7,0,0,1-4.66,4.48A33.85,33.85,0,0,0,47.16,59.88,26.35,26.35,0,0,1,53.77,44.43Z"/><path class="c" d="M62.66,15.31a33.56,33.56,0,0,0-3.19-4.15,6.6,6.6,0,0,1-3.1,4.58L56,16c-4.09,2.66-8.2.54-10-2.78A7.15,7.15,0,0,1,40.76,10a7,7,0,0,1-1.07-3c-2.6,3.74-8.71,5.21-11.94.24A6.48,6.48,0,0,1,27.2.66,33.86,33.86,0,1,0,62.66,15.31Z"/><path class="d" d="M62.66,15.31a33.56,33.56,0,0,0-3.19-4.15,6.6,6.6,0,0,1-3.1,4.58L56,16c-4.09,2.66-8.2.54-10-2.78A7.15,7.15,0,0,1,40.76,10a7,7,0,0,1-1.07-3c-2.6,3.74-8.71,5.21-11.94.24A6.48,6.48,0,0,1,27.2.66,33.86,33.86,0,1,0,62.66,15.31Z"/><path class="e" d="M62.66,15.31a33.56,33.56,0,0,0-3.19-4.15,6.6,6.6,0,0,1-3.1,4.58L56,16c-4.09,2.66-8.2.54-10-2.78A7.15,7.15,0,0,1,40.76,10a7,7,0,0,1-1.07-3c-2.6,3.74-8.71,5.21-11.94.24A6.48,6.48,0,0,1,27.2.66,33.86,33.86,0,1,0,62.66,15.31Z"/><path class="d" d="M56.14,58a33.26,33.26,0,0,0,5.92-4.9,33.86,33.86,0,0,0,.6-37.82,33.11,33.11,0,0,0-2.84-3.74l0,0-.34.22-.12.07a6.73,6.73,0,0,1-2.94,3.85L56,16c-4.09,2.66-8.2.54-10-2.78A7.15,7.15,0,0,1,40.76,10a7,7,0,0,1-1.07-3c-2.6,3.74-8.71,5.21-11.94.24A6.48,6.48,0,0,1,27.2.66,34.05,34.05,0,0,0,15.81,5.39a33.62,33.62,0,0,0-5.92,4.9A33.86,33.86,0,0,0,56.14,58Z"/><path class="e" d="M26.75,54.29a1.53,1.53,0,1,0,2.11.45A1.52,1.52,0,0,0,26.75,54.29Z"/><path class="e" d="M45.72,43.32a1.91,1.91,0,0,0-3.2,2.08,1.91,1.91,0,0,0,3.2-2.08Z"/><path class="e" d="M51.63,47.52a2.16,2.16,0,1,0,3,.63A2.16,2.16,0,0,0,51.63,47.52Z"/><path class="e" d="M62.12,21.88a1.78,1.78,0,1,0-.52,2.46A1.78,1.78,0,0,0,62.12,21.88Z"/><path class="e" d="M58.52,40.61a4.58,4.58,0,1,0-6.33-1.34A4.58,4.58,0,0,0,58.52,40.61Z"/><path class="e" d="M39.94,33.27a2.16,2.16,0,1,0,3,.63A2.16,2.16,0,0,0,39.94,33.27Z"/><path class="e" d="M16.87,10.64a2,2,0,1,0,.6-2.82A2,2,0,0,0,16.87,10.64Z"/><path class="e" d="M9.17,17.46a3.57,3.57,0,0,0-3.66-1.55A34.5,34.5,0,0,0,3,20.9a3.28,3.28,0,0,0,.24.45,3.56,3.56,0,0,0,6-3.89Z"/><path class="e" d="M3.66,36.53a3.06,3.06,0,0,0,.89-4.23,3,3,0,0,0-4-1,33.62,33.62,0,0,0,0,5.31A3,3,0,0,0,3.66,36.53Z"/><path class="e" d="M60.4,49.56a2.91,2.91,0,0,0,3.15,1.23,34.28,34.28,0,0,0,2-4,3.68,3.68,0,0,0-.23-.44,2.92,2.92,0,1,0-4.9,3.19Z"/><path class="e" d="M18.08,22.29a2.29,2.29,0,1,0,.67-3.16A2.29,2.29,0,0,0,18.08,22.29Z"/><path class="e" d="M27.94,17.4a1.78,1.78,0,1,0,2.47.52A1.78,1.78,0,0,0,27.94,17.4Z"/><path class="e" d="M41.54,59.54a2.67,2.67,0,1,0-3.69-.78A2.68,2.68,0,0,0,41.54,59.54Z"/><path class="e" d="M8,55.14a4.89,4.89,0,0,0,.82-.42A4.33,4.33,0,0,0,4.1,47.47a4.41,4.41,0,0,0-.58.47,33.52,33.52,0,0,0,2.37,4.3C6.55,53.25,7.26,54.22,8,55.14Z"/><path class="e" d="M21,61.25a2.41,2.41,0,0,0-3.34-.71,2.38,2.38,0,0,0-1.09,2.07,33.27,33.27,0,0,0,3.73,2A2.42,2.42,0,0,0,21,61.25Z"/><path class="e" d="M51.8,61.07a2.8,2.8,0,0,0-4.7,3.05,2.71,2.71,0,0,0,.68.71,34.63,34.63,0,0,0,4.46-2.35A2.78,2.78,0,0,0,51.8,61.07Z"/><path class="e" d="M32.54,66.46a1.39,1.39,0,0,0-2.56.9q1.35.17,2.73.24A1.4,1.4,0,0,0,32.54,66.46Z"/><path class="e" d="M30.81,32.53a1.26,1.26,0,0,0,1.76.37,1.27,1.27,0,1,0-1.39-2.13A1.26,1.26,0,0,0,30.81,32.53Z"/><path class="e" d="M18.37,46.54a2.67,2.67,0,1,0-.79,3.7A2.67,2.67,0,0,0,18.37,46.54Z"/><path class="e" d="M9.65,37.8A1.27,1.27,0,1,0,10,36,1.27,1.27,0,0,0,9.65,37.8Z"/><path class="e" d="M25.06,38.39a3.18,3.18,0,1,0,4.4.94A3.18,3.18,0,0,0,25.06,38.39Z"/><path class="e" d="M48.14,28.85a2.54,2.54,0,1,0,.74-3.52A2.54,2.54,0,0,0,48.14,28.85Z"/><path class="e" d="M40.41,16.27a1.4,1.4,0,1,0,1.94.41A1.39,1.39,0,0,0,40.41,16.27Z"/><path class="f" d="M59.58,39.28a4.58,4.58,0,1,1,1.34-6.34A4.58,4.58,0,0,1,59.58,39.28Zm-3.9,7.54a2.16,2.16,0,1,0-.63,3A2.16,2.16,0,0,0,55.68,46.82ZM46.77,42a1.91,1.91,0,1,0-.55,2.64A1.91,1.91,0,0,0,46.77,42ZM43.39,54.52a2.67,2.67,0,1,0-.79,3.69A2.68,2.68,0,0,0,43.39,54.52Zm.6-22a2.16,2.16,0,1,0-.64,3A2.17,2.17,0,0,0,44,32.57ZM30.52,38a3.18,3.18,0,1,0-.94,4.4A3.18,3.18,0,0,0,30.52,38ZM10.23,16.13a3.57,3.57,0,1,0-1.05,4.93A3.57,3.57,0,0,0,10.23,16.13ZM5.61,31a3.05,3.05,0,1,0-.89,4.23A3.05,3.05,0,0,0,5.61,31Zm7.23,4.11a1.27,1.27,0,1,0-.38,1.76A1.27,1.27,0,0,0,12.84,35.08ZM23,18.47a2.29,2.29,0,1,0-.67,3.17A2.29,2.29,0,0,0,23,18.47ZM21.34,7.09a2,2,0,1,0-.6,2.81A2,2,0,0,0,21.34,7.09Zm10.12,9.5a1.78,1.78,0,1,0-.52,2.46A1.77,1.77,0,0,0,31.46,16.59Zm11.95-1.24A1.4,1.4,0,1,0,43,17.28,1.39,1.39,0,0,0,43.41,15.35ZM34,29.81a1.28,1.28,0,1,0-.38,1.76A1.27,1.27,0,0,0,34,29.81ZM19.43,45.21a2.67,2.67,0,1,0-.79,3.7A2.67,2.67,0,0,0,19.43,45.21Zm10.49,8.2a1.53,1.53,0,1,0-.45,2.11A1.52,1.52,0,0,0,29.92,53.41ZM22,59.92a2.41,2.41,0,1,0-.71,3.34A2.41,2.41,0,0,0,22,59.92ZM11.14,47.41a4.33,4.33,0,1,0-1.26,6A4.33,4.33,0,0,0,11.14,47.41ZM33.6,65.13a1.4,1.4,0,1,0-.41,1.94A1.4,1.4,0,0,0,33.6,65.13ZM63.18,20.55A1.78,1.78,0,1,0,62.66,23,1.78,1.78,0,0,0,63.18,20.55Zm-9.72,4.19a2.54,2.54,0,1,0-.74,3.52A2.54,2.54,0,0,0,53.46,24.74ZM66.36,45a2.93,2.93,0,1,0-.86,4A2.92,2.92,0,0,0,66.36,45ZM52.85,59.74A2.8,2.8,0,1,0,52,63.61,2.79,2.79,0,0,0,52.85,59.74Z"/><path class="g" d="M59.58,39.28a4.58,4.58,0,1,1,1.34-6.34A4.58,4.58,0,0,1,59.58,39.28Zm-3.9,7.54a2.16,2.16,0,1,0-.63,3A2.16,2.16,0,0,0,55.68,46.82ZM46.77,42a1.91,1.91,0,1,0-.55,2.64A1.91,1.91,0,0,0,46.77,42ZM43.39,54.52a2.67,2.67,0,1,0-.79,3.69A2.68,2.68,0,0,0,43.39,54.52Zm.6-22a2.16,2.16,0,1,0-.64,3A2.17,2.17,0,0,0,44,32.57ZM30.52,38a3.18,3.18,0,1,0-.94,4.4A3.18,3.18,0,0,0,30.52,38ZM10.23,16.13a3.57,3.57,0,1,0-1.05,4.93A3.57,3.57,0,0,0,10.23,16.13ZM5.61,31a3.05,3.05,0,1,0-.89,4.23A3.05,3.05,0,0,0,5.61,31Zm7.23,4.11a1.27,1.27,0,1,0-.38,1.76A1.27,1.27,0,0,0,12.84,35.08ZM23,18.47a2.29,2.29,0,1,0-.67,3.17A2.29,2.29,0,0,0,23,18.47ZM21.34,7.09a2,2,0,1,0-.6,2.81A2,2,0,0,0,21.34,7.09Zm10.12,9.5a1.78,1.78,0,1,0-.52,2.46A1.77,1.77,0,0,0,31.46,16.59Zm11.95-1.24A1.4,1.4,0,1,0,43,17.28,1.39,1.39,0,0,0,43.41,15.35ZM34,29.81a1.28,1.28,0,1,0-.38,1.76A1.27,1.27,0,0,0,34,29.81ZM19.43,45.21a2.67,2.67,0,1,0-.79,3.7A2.67,2.67,0,0,0,19.43,45.21Zm10.49,8.2a1.53,1.53,0,1,0-.45,2.11A1.52,1.52,0,0,0,29.92,53.41ZM22,59.92a2.41,2.41,0,1,0-.71,3.34A2.41,2.41,0,0,0,22,59.92ZM11.14,47.41a4.33,4.33,0,1,0-1.26,6A4.33,4.33,0,0,0,11.14,47.41ZM33.6,65.13a1.4,1.4,0,1,0-.41,1.94A1.4,1.4,0,0,0,33.6,65.13ZM63.18,20.55A1.78,1.78,0,1,0,62.66,23,1.78,1.78,0,0,0,63.18,20.55Zm-9.72,4.19a2.54,2.54,0,1,0-.74,3.52A2.54,2.54,0,0,0,53.46,24.74ZM66.36,45a2.93,2.93,0,1,0-.86,4A2.92,2.92,0,0,0,66.36,45ZM52.85,59.74A2.8,2.8,0,1,0,52,63.61,2.79,2.79,0,0,0,52.85,59.74Z"/><path class="f" d="M47.08,43.1A1.87,1.87,0,0,0,46.77,42a1.91,1.91,0,0,0-1.8-.85,1.87,1.87,0,0,0,.3,1.11A1.93,1.93,0,0,0,47.08,43.1Z"/><path class="f" d="M29.06,53.25a1.52,1.52,0,0,0,1.07.67,1.72,1.72,0,0,0-.21-.51,1.47,1.47,0,0,0-1.07-.67A1.49,1.49,0,0,0,29.06,53.25Z"/><path class="f" d="M22.35,61.72a2.42,2.42,0,0,0-.34-1.8,2.39,2.39,0,0,0-2.69-1,2.38,2.38,0,0,0,.34,1.8A2.4,2.4,0,0,0,22.35,61.72Z"/><path class="f" d="M5.59,50.3a4.33,4.33,0,0,0,5.8,1.37,4.31,4.31,0,0,0-6-5.63A4.31,4.31,0,0,0,5.59,50.3Z"/><path class="f" d="M60.92,32.94a4.58,4.58,0,0,0-6.22-1.41,4.58,4.58,0,0,0,6.46,6A4.57,4.57,0,0,0,60.92,32.94Z"/><path class="f" d="M34,29.75a1.72,1.72,0,0,0-.34-.32A1.29,1.29,0,0,0,34,29.75Z"/><path class="f" d="M6,18.19a3.55,3.55,0,0,0,4.59,1.22,3.55,3.55,0,0,0-4.9-4.5A3.56,3.56,0,0,0,6,18.19Z"/><path class="f" d="M66.68,47.53a2.92,2.92,0,0,0-3.85-3.62,2.92,2.92,0,0,0,3.85,3.62Z"/><path class="f" d="M33.6,65.13a1.4,1.4,0,0,0-.79-.57,1.74,1.74,0,0,0,.14.27,1.36,1.36,0,0,0,.78.58A1.43,1.43,0,0,0,33.6,65.13Z"/><path class="f" d="M40.6,55.6a2.67,2.67,0,0,0,3.12,1.06,2.64,2.64,0,0,0-.33-2.14,2.67,2.67,0,0,0-3.12-1.07A2.66,2.66,0,0,0,40.6,55.6Z"/><path class="f" d="M49.86,61a2.82,2.82,0,0,0,3.32,1.09,2.79,2.79,0,0,0-3.64-3.42A2.77,2.77,0,0,0,49.86,61Z"/><path class="f" d="M53.43,45.89A2.15,2.15,0,0,0,56,48.29a2.1,2.1,0,0,0-.32-1.47A2.14,2.14,0,0,0,53.43,45.89Z"/><path class="f" d="M20.5,17.5a2.35,2.35,0,0,0,.33,1.64,2.29,2.29,0,0,0,2.48,1,2.28,2.28,0,0,0-2.81-2.6Z"/><path class="f" d="M19.43,45.21a2.68,2.68,0,0,0-3.12-1.06,2.66,2.66,0,0,0,3.45,3.21A2.66,2.66,0,0,0,19.43,45.21Z"/><path class="f" d="M31.46,16.59a1.75,1.75,0,0,0-1.57-.8,1.72,1.72,0,0,0,.29.91,1.75,1.75,0,0,0,1.57.8A1.72,1.72,0,0,0,31.46,16.59Z"/><path class="f" d="M12.45,34.7a1.29,1.29,0,0,0,.34.32A1.29,1.29,0,0,0,12.45,34.7Z"/><path class="f" d="M19.31,6.19a2.07,2.07,0,0,0,.31,1.29,2,2,0,0,0,2,.9,2,2,0,0,0-.31-1.29A2,2,0,0,0,19.31,6.19Z"/><path class="f" d="M2.19,32.48a3.06,3.06,0,0,0,3.74,1.14,3,3,0,0,0-4-3.79A3,3,0,0,0,2.19,32.48Z"/><path class="f" d="M61.61,19.74a1.71,1.71,0,0,0,.28.92,1.76,1.76,0,0,0,1.57.8,1.77,1.77,0,0,0-1.85-1.72Z"/><path class="f" d="M30.52,38a3.18,3.18,0,0,0-3.95-1.17,3.16,3.16,0,0,0,4.26,4A3.14,3.14,0,0,0,30.52,38Z"/><path class="f" d="M42.76,15.05a1.38,1.38,0,0,0,.78.57,1.34,1.34,0,0,0-.13-.27,1.38,1.38,0,0,0-.79-.58A1.47,1.47,0,0,0,42.76,15.05Z"/><path class="f" d="M44,32.57a2.15,2.15,0,0,0-2.25-.93A2.14,2.14,0,0,0,44.31,34,2.17,2.17,0,0,0,44,32.57Z"/><path class="f" d="M50.89,25.69a2.55,2.55,0,0,0,2.91,1,2.51,2.51,0,0,0-.34-2,2.54,2.54,0,0,0-2.9-1A2.54,2.54,0,0,0,50.89,25.69Z"/></g></svg>