<svg xmlns="http://www.w3.org/2000/svg" xmlns:xlink="http://www.w3.org/1999/xlink" viewBox="0 0 67.8 81.94"><defs><style>.a{isolation:isolate;}.b,.c{fill:#840034;}.c{opacity:0.3;mix-blend-mode:multiply;}.d{fill:#fff;}.e{fill:url(#a);}.f{fill:url(#b);}.g{fill:url(#c);}.h{fill:url(#d);}.i{fill:url(#e);}.j{fill:url(#f);}.k{fill:url(#g);}.l{fill:url(#h);}.m{fill:url(#i);}</style><linearGradient id="a" x1="30.51" y1="32.9" x2="33.81" y2="25.29" gradientUnits="userSpaceOnUse"><stop offset="0.16" stop-color="#fe0034"/><stop offset="1" stop-color="#fe0034"/></linearGradient><linearGradient id="b" x1="19.74" y1="23.08" x2="21.63" y2="18.72" xlink:href="#a"/><linearGradient id="c" x1="29.14" y1="41.81" x2="31.23" y2="36.99" xlink:href="#a"/><linearGradient id="d" x1="53.1" y1="64.39" x2="55.7" y2="58.39" xlink:href="#a"/><linearGradient id="e" x1="15.64" y1="34.32" x2="18.73" y2="27.18" xlink:href="#a"/><linearGradient id="f" x1="42.27" y1="50.07" x2="46.08" y2="41.25" xlink:href="#a"/><linearGradient id="g" x1="45.44" y1="60.02" x2="47.93" y2="54.28" xlink:href="#a"/><linearGradient id="h" x1="31.7" y1="54.81" x2="34.58" y2="48.15" xlink:href="#a"/><linearGradient id="i" x1="44.5" y1="67.55" x2="46.11" y2="63.83" xlink:href="#a"/></defs><title>Asset 21</title><g class="a"><polygon class="b" points="13.26 20.58 0 12.65 8.63 11.99 6.85 5.95 14.25 9.15 16.45 0 18.94 15.57 13.26 20.58"/><path class="c" d="M12.69,8.47,6.85,6l.28.93,7.47,9.59L8.4,12,0,12.65l2.72,1.62c3.71.86,8.6,1.66,8.6,1.66L9.4,18.27l3.86,2.31L18,16.39Z"/><polygon class="c" points="16.35 0.44 18.07 16.34 18.94 15.57 16.45 0 16.35 0.44"/><polygon class="b" points="47.08 67.11 51.41 81.94 54.23 73.76 59.62 77.01 58.39 69.04 67.8 69.22 53.37 62.88 47.08 67.11"/><path class="c" d="M58.65,70.72l1,6.29-.83-.5L51.4,66.85,54.15,74l-2.74,8-.89-3c.11-3.81.57-8.74.57-8.74l-2.75,1.27-1.26-4.32,5.25-3.53Z"/><polygon class="c" points="67.35 69.21 52.4 63.53 53.37 62.88 67.8 69.22 67.35 69.21"/><path class="d" d="M54.12,54.92a8.27,8.27,0,0,1-1.76,11.56h0a8.27,8.27,0,0,1-11.55-1.76l-28-38a8.28,8.28,0,0,1,1.76-11.56h0a8.28,8.28,0,0,1,11.56,1.76Z"/><path class="e" d="M31.62,24.34a4.49,4.49,0,1,0,4.71,6.41Z"/><circle class="f" cx="20.69" cy="20.9" r="2.38"/><circle class="g" cx="30.19" cy="39.4" r="2.62"/><path class="h" d="M53.06,62.15a4.09,4.09,0,0,0,1,2.65,8.26,8.26,0,0,0,1.53-6.46A4.14,4.14,0,0,0,53.06,62.15Z"/><path class="i" d="M19.75,36.1a5.5,5.5,0,0,0-3.69-9.58,5.41,5.41,0,0,0-2.79.77Z"/><path class="j" d="M39.06,45.15A5.37,5.37,0,0,0,49,48l-5.89-8A5.35,5.35,0,0,0,39.06,45.15Z"/><circle class="k" cx="46.68" cy="57.15" r="3.13"/><path class="l" d="M37.06,52a4.23,4.23,0,0,0-7.55-2.65L34.37,56A4.25,4.25,0,0,0,37.06,52Z"/><path class="m" d="M49.45,67.84a5.5,5.5,0,0,0-8.74-3.26l.1.14A8.25,8.25,0,0,0,49.45,67.84Z"/><path class="c" d="M14.61,15.17a8.27,8.27,0,0,0-2.18,10.92,34.11,34.11,0,0,1,3.19-7.93C20.15,10.24,54,54.77,50.09,60.31c-2.82,4-7.24,4.09-9.79,3.72l.51.69a8.26,8.26,0,1,0,13.31-9.8l-27.95-38A8.28,8.28,0,0,0,14.61,15.17Z"/></g></svg>