<svg xmlns="http://www.w3.org/2000/svg" xmlns:xlink="http://www.w3.org/1999/xlink" viewBox="0 0 70.88 64.34"><defs><style>.a{isolation:isolate;}.b{fill:url(#a);}.c{fill:#ffa435;}.d,.f{fill:#840034;}.d{opacity:0.3;mix-blend-mode:multiply;}.e,.g{fill:#fff;}.e{opacity:0.2;}.h{fill:url(#b);}</style><linearGradient id="a" x1="20.43" y1="44.78" x2="81.48" y2="44.78" gradientTransform="matrix(-1, 0, 0, 1, 91.31, 0)" gradientUnits="userSpaceOnUse"><stop offset="0.16" stop-color="#fe0034"/><stop offset="1" stop-color="#fe0034"/></linearGradient><linearGradient id="b" x1="73.64" y1="41.77" x2="91.31" y2="41.77" xlink:href="#a"/></defs><title>Asset 22</title><g class="a"><path class="b" d="M69.53,25.21s10.88,37.89-29,39.1-29.43-39.1-29.43-39.1"/><path class="c" d="M69.53,25.21s10.88,37.89-29,39.1-29.43-39.1-29.43-39.1"/><path class="d" d="M69.53,25.21s10.88,37.89-29,39.1-29.43-39.1-29.43-39.1"/><path class="c" d="M14.07,25.21H69.53s3.61,12.59-1,23.49c-4.48,5-11.91,8.8-24,9.16C14.75,58.77,13,36.54,14.07,25.21Z"/><path class="e" d="M66.46,27.23s2.45,8.55-.66,16c-3,3.43-8.09,6-16.32,6.23C29.25,50,28.08,34.92,28.79,27.23Z"/><path class="f" d="M11.07,25.21c0,3.79,13.09,6.85,29.23,6.85S69.53,29,69.53,25.21,56.44,18.36,40.3,18.36,11.07,21.43,11.07,25.21Z"/><path class="d" d="M39.76,22.39c13.47,0,24.8,2.13,28.19,5C64,30.13,53.13,32.06,40.3,32.06c-13.47,0-24.8-2.13-28.19-5C16.05,24.33,26.94,22.39,39.76,22.39Z"/><path class="g" d="M39.76,26.69c9.61,0,18.14,1.09,23.47,2.77C57.87,31,49.6,32.06,40.3,32.06c-9.61,0-18.14-1.08-23.47-2.76C22.18,27.71,30.46,26.69,39.76,26.69Z"/><path class="h" d="M13,36.11c-3.23-4.3-6.63-.06-7.73,3.56-2,6.42,2.55,9.85,8.61,9.73,3.13-.07,3.12,4.77,0,4.84-4.71.09-9.15-1.12-12-5.05C-.45,46.05-.34,41.52.74,38s3.41-6.89,6.86-8.2c3.92-1.48,7.3.86,9.59,3.91,1.88,2.49-2.32,4.9-4.18,2.44Z"/><path class="d" d="M3.18,38.63C4,35.82,6,33,8.82,31.89c3.23-1.23,6,.7,7.9,3.21a1.69,1.69,0,0,1,.38,1.16A2.69,2.69,0,0,1,13,36.11c-3.23-4.3-6.63-.06-7.73,3.56-2,6.42,2.55,9.85,8.61,9.73a2.14,2.14,0,0,1,2,1.05A1.87,1.87,0,0,1,14,52c-3.88.08-7.54-.92-9.91-4.15C2.2,45.29,2.29,41.56,3.18,38.63Z"/><path class="g" d="M62.29,10.33a1.5,1.5,0,0,0,0-3,1.5,1.5,0,0,0,0,3Z"/><path class="g" d="M48.79,2.5v.19h0c0,.11,0,.29.06.4v0a.85.85,0,0,0,.09.22,1.11,1.11,0,0,0,.32.51,1.31,1.31,0,0,0,.33.25,1.8,1.8,0,0,0,.38.16h0a3.47,3.47,0,0,0,.45.06h.18a1.06,1.06,0,0,0,.58-.13,1.14,1.14,0,0,0,.48-.31A1,1,0,0,0,52,3.41a1.15,1.15,0,0,0,.13-.58l0-.4a1.59,1.59,0,0,0-.39-.66l-.3-.23a1.48,1.48,0,0,0-.76-.21,1.33,1.33,0,0,1-.2,0l.4,0h-.06l.36.15,0,0,.31.24,0,0,.24.31,0,0,.15.36s0,0,0-.06l0,.4a1.33,1.33,0,0,1,0-.2,1.27,1.27,0,0,0-.13-.58,1.24,1.24,0,0,0-.31-.48,1.11,1.11,0,0,0-.49-.31A1.11,1.11,0,0,0,50.29,1l-.4.05a1.39,1.39,0,0,0-.66.39l-.24.3a1.57,1.57,0,0,0-.2.76Z"/><path class="g" d="M58,16.67a1.5,1.5,0,0,0,0-3,1.5,1.5,0,0,0,0,3Z"/><path class="g" d="M37.45,9.5V9.41a1.06,1.06,0,0,0-.13-.58A1,1,0,0,0,37,8.35,1,1,0,0,0,36.53,8,1.06,1.06,0,0,0,36,7.91l-.4,0a1.49,1.49,0,0,0-.66.39l-.23.3a1.45,1.45,0,0,0-.21.76v.42a1.15,1.15,0,0,0,.13.58,1.11,1.11,0,0,0,.31.48,1.14,1.14,0,0,0,.48.31,1.08,1.08,0,0,0,.58.13l.4-.05a1.39,1.39,0,0,0,.66-.39l.24-.3a1.54,1.54,0,0,0,.2-.76V9.41a1.06,1.06,0,0,0-.13-.58A1,1,0,0,0,37,8.35,1,1,0,0,0,36.53,8,1.06,1.06,0,0,0,36,7.91l-.4,0a1.49,1.49,0,0,0-.66.39l-.23.3a1.45,1.45,0,0,0-.21.76V9.5a1.15,1.15,0,0,0,.13.58,1.24,1.24,0,0,0,.31.48,1.14,1.14,0,0,0,.48.31A1.17,1.17,0,0,0,36,11l.4-.05a1.39,1.39,0,0,0,.66-.39l.24-.3a1.57,1.57,0,0,0,.2-.76Z"/><path class="g" d="M34.29,3a1.5,1.5,0,0,0,0-3,1.5,1.5,0,0,0,0,3Z"/><path class="g" d="M19.29,10.33h.33a1.06,1.06,0,0,0,.58-.13,1.14,1.14,0,0,0,.48-.31A1,1,0,0,0,21,9.41a1.15,1.15,0,0,0,.13-.58l-.05-.4a1.59,1.59,0,0,0-.39-.66l-.3-.23a1.48,1.48,0,0,0-.76-.21h-.33a1.27,1.27,0,0,0-.58.13,1.34,1.34,0,0,0-.79.8,1,1,0,0,0-.13.57l.05.4a1.39,1.39,0,0,0,.39.66l.3.24a1.54,1.54,0,0,0,.76.2Z"/><path class="g" d="M26.79,15.5v-.33a1.27,1.27,0,0,0-.13-.58,1.34,1.34,0,0,0-.8-.79,1,1,0,0,0-.57-.13l-.4.05a1.39,1.39,0,0,0-.66.39l-.24.3a1.54,1.54,0,0,0-.2.76v.33a1.06,1.06,0,0,0,.13.58,1.14,1.14,0,0,0,.31.48,1,1,0,0,0,.48.31,1.15,1.15,0,0,0,.58.13l.39-.05a1.47,1.47,0,0,0,.67-.39l.23-.3a1.48,1.48,0,0,0,.21-.76Z"/><path class="g" d="M16.29,21.33H17a1.06,1.06,0,0,0,.58-.13,1.36,1.36,0,0,0,.79-.79,1.06,1.06,0,0,0,.13-.58l-.05-.4a1.49,1.49,0,0,0-.39-.66l-.3-.23a1.45,1.45,0,0,0-.76-.21h-.66a1.27,1.27,0,0,0-.58.13,1.34,1.34,0,0,0-.79.8,1,1,0,0,0-.13.57l.05.4a1.39,1.39,0,0,0,.39.66l.3.24a1.54,1.54,0,0,0,.76.2Z"/><path class="g" d="M47.45,11.17v-.34a1,1,0,0,0-.13-.57,1.34,1.34,0,0,0-.79-.8A1.27,1.27,0,0,0,46,9.33l-.4.06a1.57,1.57,0,0,0-.66.38l-.23.31a1.42,1.42,0,0,0-.21.75v.34a1.11,1.11,0,0,0,.13.57,1.21,1.21,0,0,0,.31.49,1.24,1.24,0,0,0,.48.31,1.29,1.29,0,0,0,.58.13l.4-.06a1.45,1.45,0,0,0,.66-.38l.24-.31a1.5,1.5,0,0,0,.2-.75Z"/><path class="g" d="M41.62,22H42a1.15,1.15,0,0,0,.58-.13,1,1,0,0,0,.48-.31,1.14,1.14,0,0,0,.31-.48,1.06,1.06,0,0,0,.13-.58l-.05-.4a1.49,1.49,0,0,0-.39-.66l-.3-.24A1.54,1.54,0,0,0,42,19h-.33a1.15,1.15,0,0,0-.58.13,1.08,1.08,0,0,0-.48.31,1.14,1.14,0,0,0-.31.48,1.06,1.06,0,0,0-.13.58l.05.4a1.49,1.49,0,0,0,.39.66l.3.24a1.57,1.57,0,0,0,.76.2Z"/><path class="g" d="M52,25a1.5,1.5,0,0,0,0-3,1.5,1.5,0,0,0,0,3Z"/><path class="g" d="M30.62,24.33H31a1.06,1.06,0,0,0,.58-.13,1.36,1.36,0,0,0,.79-.79,1.06,1.06,0,0,0,.13-.58l-.05-.4a1.49,1.49,0,0,0-.39-.66l-.3-.23a1.45,1.45,0,0,0-.76-.21h-.33a1.27,1.27,0,0,0-.58.13,1.17,1.17,0,0,0-.48.31,1.11,1.11,0,0,0-.31.49,1,1,0,0,0-.13.57l.05.4a1.39,1.39,0,0,0,.39.66l.3.24a1.57,1.57,0,0,0,.76.2Z"/></g></svg>