<svg xmlns="http://www.w3.org/2000/svg" viewBox="0 0 67.3 66.78"><defs><style>.a{isolation:isolate;}.b{fill:#fff;}.c,.d{fill:#840034;}.d{opacity:0.3;mix-blend-mode:multiply;}</style></defs><title>Asset 23</title><g class="a"><path class="b" d="M55.15,65.66C50.55,69.12,34.6,55.25,34.6,55.25s-15.52,14.35-20.23,11,3.55-22.76,3.55-22.76S-.51,33.2,1.19,27.69,23.93,24,23.93,24,28.05,3.31,33.81,3.23s10.51,20.5,10.51,20.5,21-2.49,22.84,3S50.91,43,50.91,43,59.76,62.21,55.15,65.66Z"/><path class="c" d="M55.15,65.66C50.55,69.12,34.6,55.25,34.6,55.25s-15.52,14.35-20.23,11,3.55-22.76,3.55-22.76S-.51,33.2,1.19,27.69,23.93,24,23.93,24,28.05,3.31,33.81,3.23s10.51,20.5,10.51,20.5,21-2.49,22.84,3S50.91,43,50.91,43,59.76,62.21,55.15,65.66Z"/><path class="d" d="M55.15,65.66C50.55,69.12,34.6,55.25,34.6,55.25s-15.52,14.35-20.23,11,3.55-22.76,3.55-22.76S-.51,33.2,1.19,27.69,23.93,24,23.93,24,28.05,3.31,33.81,3.23s10.51,20.5,10.51,20.5,21-2.49,22.84,3S50.91,43,50.91,43,59.76,62.21,55.15,65.66Z"/><path class="c" d="M54.07,62.44C49.47,65.89,33.52,52,33.52,52S18,66.37,13.3,63.06,16.85,40.3,16.85,40.3-1.59,30,.11,24.47s22.74-3.66,22.74-3.66S27,.09,32.73,0,43.24,20.5,43.24,20.5s21-2.48,22.85,3S49.84,39.8,49.84,39.8,58.68,59,54.07,62.44Z"/><path class="d" d="M33.1,7.79c.33.17,2,1.35,4.35,7.81a79.57,79.57,0,0,1,2.43,8.2l.49,2.11,2.15-.25A79.65,79.65,0,0,1,51,25.18c7,0,8.66,1.21,8.94,1.46-.07.36-.66,2.33-6.09,6.54a80.7,80.7,0,0,1-7,4.85L44.9,39.15l.9,2a81,81,0,0,1,3.1,8c2.11,6.55,1.49,8.51,1.34,8.84L50,58c-3,0-10.4-5.25-14.69-9L33.7,47.54,32.11,49c-4.23,3.92-11.52,9.43-14.46,9.43H17.5c-.16-.32-.85-2.26,1.07-8.88a78.83,78.83,0,0,1,2.85-8.06l.84-2-1.89-1.06a81.89,81.89,0,0,1-7.16-4.61C7.6,29.73,7,27.77,6.9,27.43c.47-.53,3.16-1.75,10.93-1.75,3.48,0,6.37.25,6.39.25l2.16.19L26.81,24A81.83,81.83,0,0,1,29,15.73C31.13,9.2,32.78,8,33.1,7.79m0-2.44h0c-5,.08-8.63,18.18-8.63,18.18s-3-.26-6.6-.26c-5.43,0-12.37.57-13.26,3.45C3.09,31.53,19.19,40.54,19.19,40.54s-7.21,17-3.1,19.88a2.65,2.65,0,0,0,1.56.44c5.22,0,16.1-10.07,16.1-10.07s11,9.58,16.28,9.58a2.67,2.67,0,0,0,1.67-.49c4-3-3.7-19.77-3.7-19.77S63.82,30.6,62.19,25.85c-.85-2.49-6.27-3.09-11.25-3.09a82.7,82.7,0,0,0-8.7.5S38.11,5.35,33.1,5.35Z"/><path class="b" d="M32.83,6.45c.33.17,2,1.35,4.35,7.81a79.57,79.57,0,0,1,2.43,8.2l.49,2.11,2.16-.26a84.29,84.29,0,0,1,8.42-.47c7,0,8.66,1.2,8.94,1.45-.07.36-.67,2.33-6.09,6.55a83.39,83.39,0,0,1-7,4.85l-1.86,1.12.9,2a83.06,83.06,0,0,1,3.1,8c2.11,6.55,1.49,8.51,1.34,8.84h-.21c-3,0-10.4-5.25-14.69-9L33.44,46.2l-1.6,1.47c-4.23,3.91-11.52,9.42-14.46,9.42h-.15c-.16-.33-.85-2.27,1.07-8.88a79.54,79.54,0,0,1,2.85-8.07l.84-2L20.1,37.09A83.7,83.7,0,0,1,13,32.48c-5.62-4.1-6.25-6-6.32-6.39.47-.54,3.16-1.75,10.93-1.75,3.48,0,6.37.25,6.39.25l2.16.19.43-2.13a78.83,78.83,0,0,1,2.18-8.27c2.14-6.52,3.79-7.75,4.11-7.93m0-2.44h0c-5,.07-8.63,18.17-8.63,18.17s-3-.26-6.6-.26c-5.43,0-12.37.58-13.26,3.46C2.82,30.18,18.92,39.2,18.92,39.2s-7.21,17-3.1,19.88a2.65,2.65,0,0,0,1.56.43c5.22,0,16.1-10.06,16.1-10.06S44.49,59,49.76,59a2.73,2.73,0,0,0,1.67-.48c4-3-3.7-19.78-3.7-19.78s15.82-9.5,14.19-14.26c-.85-2.49-6.27-3.08-11.24-3.08a84.44,84.44,0,0,0-8.71.49S37.84,4,32.83,4Z"/><path class="d" d="M33.18,20.36c.16.08,1,.66,2.13,3.83a37.38,37.38,0,0,1,1.19,4l.24,1,1.06-.13a41.21,41.21,0,0,1,4.12-.23c3.42,0,4.25.59,4.38.71,0,.18-.32,1.14-3,3.21a41.24,41.24,0,0,1-3.45,2.38l-.91.54.44,1a39.11,39.11,0,0,1,1.52,3.9c1,3.21.73,4.17.66,4.33h-.1c-1.48,0-5.1-2.57-7.2-4.4l-.8-.7-.78.72c-2.08,1.92-5.65,4.62-7.09,4.62h-.07c-.08-.16-.42-1.11.52-4.35a40,40,0,0,1,1.4-4l.41-1-.93-.52a39.37,39.37,0,0,1-3.5-2.26c-2.75-2-3.06-3-3.09-3.13.22-.26,1.54-.85,5.35-.85,1.71,0,3.12.12,3.13.12l1.06.09.21-1a38,38,0,0,1,1.07-4.05c1-3.2,1.85-3.8,2-3.89m0-1.2h0c-2.46,0-4.22,8.91-4.22,8.91s-1.46-.13-3.24-.13c-2.66,0-6.06.28-6.5,1.69-.72,2.36,7.16,6.78,7.16,6.78s-3.53,8.32-1.51,9.73a1.26,1.26,0,0,0,.76.22c2.56,0,7.89-4.93,7.89-4.93s5.4,4.69,8,4.69a1.32,1.32,0,0,0,.81-.24c2-1.48-1.81-9.69-1.81-9.69s7.75-4.65,7-7C47,28,44.36,27.69,41.92,27.69a39.62,39.62,0,0,0-4.26.25s-2-8.78-4.48-8.78Z"/><path class="b" d="M33.05,19.7c.16.09,1,.66,2.13,3.83a37.38,37.38,0,0,1,1.19,4l.24,1,1.06-.13a41.21,41.21,0,0,1,4.12-.23c3.41,0,4.24.59,4.38.71,0,.18-.32,1.15-3,3.21a38.6,38.6,0,0,1-3.45,2.38l-.91.54.44,1a39.89,39.89,0,0,1,1.52,3.91c1,3.2.73,4.16.65,4.33h-.1c-1.47,0-5.09-2.57-7.19-4.4l-.81-.69-.78.72c-2.07,1.91-5.64,4.61-7.08,4.61H25.4c-.07-.16-.41-1.11.53-4.35a37.23,37.23,0,0,1,1.4-3.95l.41-1-.93-.52a39.37,39.37,0,0,1-3.5-2.26c-2.76-2-3.06-3-3.1-3.13.23-.26,1.55-.85,5.36-.85,1.7,0,3.12.12,3.13.12l1.06.09.21-1A38,38,0,0,1,31,23.59c1-3.2,1.85-3.8,2-3.89m0-1.19h0c-2.46,0-4.23,8.9-4.23,8.9s-1.45-.13-3.23-.13c-2.66,0-6.06.29-6.5,1.69-.72,2.36,7.16,6.78,7.16,6.78s-3.53,8.32-1.51,9.74a1.31,1.31,0,0,0,.76.21c2.55,0,7.89-4.93,7.89-4.93s5.39,4.69,8,4.69a1.29,1.29,0,0,0,.82-.24c2-1.48-1.81-9.69-1.81-9.69s7.75-4.65,6.95-7C46.88,27.33,44.23,27,41.79,27a41.25,41.25,0,0,0-4.26.24s-2-8.77-4.48-8.77Z"/></g></svg>