<svg xmlns="http://www.w3.org/2000/svg" xmlns:xlink="http://www.w3.org/1999/xlink" viewBox="0 0 76.26 82.46"><defs><style>.a{isolation:isolate;}.b,.e{fill:#fff;}.c{fill:#840034;opacity:0.3;mix-blend-mode:multiply;}.d{fill:url(#a);}.e{opacity:0.2;}</style><linearGradient id="a" x1="-30.86" y1="-5.32" x2="18.05" y2="-5.32" gradientTransform="translate(33.89 46) rotate(59.71)" gradientUnits="userSpaceOnUse"><stop offset="0.16" stop-color="#fe0034"/><stop offset="1" stop-color="#fe0034"/></linearGradient></defs><title>Asset 24</title><g class="a"><path class="b" d="M18.51,52.36S-.92,63.92,0,63.75,11,62.43,11,62.43,5.41,74,5.75,73.26s8.49-6.34,8.49-6.34-1.19,16.26-.86,15.51S26.28,58,26.28,58Z"/><path class="c" d="M5.76,73.23s0,0,0,0S5.73,73.3,5.76,73.23Z"/><path class="c" d="M16.69,56l-6.53,6.57.81-.09s-4.81,10-5.21,10.8a8.07,8.07,0,0,1,1.3-1.15C10.91,67.37,18.81,58,18.81,58l-5.29,9.44.72-.5s-.57,7.8-.81,12.34l.12,2.85c.22-.44.69-1.32,1.3-2.5L21,60.91l3,1.49L26.28,58l-7.77-5.63S2.25,62,.22,63.55l-.19.2,1.33-.17C3.91,62.43,16.69,56,16.69,56Z"/><path class="b" d="M47.25,19.42S56.52-.94,56.46,0s-.13,11-.13,11S67.1,4.4,66.41,4.8s-5.32,9-5.32,9,15.85-2.72,15.15-2.31S53.62,26.59,53.62,26.59Z"/><path class="c" d="M47.25,19.42l4,4.54,1.62-.21,20.94-12c-4,.59-11.78,1.91-12.65,2.06l-8.78,8L66,5c-1.68,1-8.07,5-9.44,5.8l-3.34,5.54,1.94-14C52.66,7.54,47.25,19.42,47.25,19.42Z"/><path class="d" d="M47.59,58.9a24.45,24.45,0,1,1,8.78-33.45A24.44,24.44,0,0,1,47.59,58.9Z"/><path class="e" d="M48,23.1a13.27,13.27,0,0,0-23.5,1.11A13.27,13.27,0,0,0,49.63,32,13.3,13.3,0,0,0,48,23.1Z"/><path class="c" d="M57.61,47.36a27.6,27.6,0,0,1-3.16,2.17A27.09,27.09,0,0,1,17.39,39.8l-.07-.11A27.2,27.2,0,0,1,13.63,26a24.45,24.45,0,1,0,44,21.32Z"/></g></svg>