<svg xmlns="http://www.w3.org/2000/svg" xmlns:xlink="http://www.w3.org/1999/xlink" viewBox="0 0 61.86 80.83"><defs><style>.a{isolation:isolate;}.b{fill:#fff;}.c{fill:#ffa435;}.d{fill:url(#a);}.e,.f{fill:#840034;}.f{opacity:0.3;mix-blend-mode:multiply;}.g{fill:url(#b);}.h{fill:url(#c);}.i{fill:url(#d);}.j{fill:url(#e);}.k{opacity:0.2;}</style><linearGradient id="a" x1="8.98" y1="50.56" x2="49.83" y2="8.25" gradientUnits="userSpaceOnUse"><stop offset="0.16" stop-color="#fe0034"/><stop offset="1" stop-color="#fe0034"/></linearGradient><linearGradient id="b" x1="0.22" y1="34.09" x2="0.49" y2="33.81" xlink:href="#a"/><linearGradient id="c" x1="0.47" y1="35.46" x2="0.74" y2="35.18" xlink:href="#a"/><linearGradient id="d" x1="0.78" y1="36.8" x2="1.04" y2="36.53" xlink:href="#a"/><linearGradient id="e" x1="1.15" y1="38.1" x2="1.4" y2="37.84" xlink:href="#a"/></defs><title>Asset 25</title><g class="a"><path class="b" d="M38.43,51.61q8.91,14.05,18.35,27.58c2.69,3.85,6.92.24,4.19-3.66Q51.52,62,42.63,48c-2.55-4-6.77-.41-4.2,3.66Z"/><path class="c" d="M60.44,80.58a4.07,4.07,0,0,0-.31-.53q-9.45-13.5-18.35-27.59c-1.14-1.8-2.62-2.07-3.67-1.45.1.2.2.4.32.6q8.91,14.05,18.35,27.58C57.94,80.85,59.39,81.12,60.44,80.58Z"/><path class="d" d="M58.81,29.4A29.41,29.41,0,1,1,29.41,0,29.41,29.41,0,0,1,58.81,29.4Z"/><path class="e" d="M58.8,29.07a29.54,29.54,0,0,0-.59-5.6,23.08,23.08,0,0,0-5.42-.81c-6.75-.2-13.46,2.08-20.16,2.95.31-8.68,2.21-17.59,8.79-23A28.62,28.62,0,0,0,35.9.73c-5,5.32-7.21,12.67-8,20.19-4-5.86-7.67-12.12-8.86-19a29.24,29.24,0,0,0-4.71,2.28c1.61,7.35,5.58,14,9.9,20.3A32.36,32.36,0,0,1,3.47,15.55a29.07,29.07,0,0,0-2.09,4.93,37.17,37.17,0,0,0,21.48,9c-1.09.91-2.12,1.9-3.17,2.87-2.38,2.2-5.41,3.53-8.3,4.89A62.26,62.26,0,0,1,2.3,40.81a28.81,28.81,0,0,0,2.4,4.53c2.41-.78,4.75-1.73,7-2.7a56.52,56.52,0,0,0,9.22-4.74c2.1-1.44,3.76-3.37,5.73-4.9a50.18,50.18,0,0,1-.77,13.39,46.24,46.24,0,0,1-4.27,11.36,28.29,28.29,0,0,0,5.16.93,55.06,55.06,0,0,0,4-10.94,53.13,53.13,0,0,0,.81-16.88c7.81,4,13.16,14,14.6,22.71a29.1,29.1,0,0,0,4.4-3.74c-1.84-7.48-5.95-15.11-11.74-20.12,3.72-.69,7.43-1.46,11.2-1.85A17.82,17.82,0,0,1,58.8,29.07Z"/><path class="f" d="M51,9.41h0a29.52,29.52,0,0,1,3.22,4.15A29.4,29.4,0,0,1,1.85,39.65,29.4,29.4,0,1,0,51,9.41Z"/><path class="g" d="M.41,34.27c0-.22-.07-.43-.1-.64C.34,33.84.37,34.05.41,34.27Z"/><path class="h" d="M.67,35.65C.62,35.43.58,35.21.54,35,.58,35.21.62,35.43.67,35.65Z"/><path class="i" d="M1,37c-.06-.23-.12-.46-.17-.69C.88,36.55.94,36.78,1,37Z"/><path class="j" d="M1.38,38.33l-.21-.71Z"/><path class="f" d="M46.68,29.4A17.28,17.28,0,1,1,29.41,12.13,17.27,17.27,0,0,1,46.68,29.4Z"/><g class="k"><path class="b" d="M4.23,28.07C3.54,16.36,17.64,4.33,28.91,4.79c1.64.07,1.63-2.46,0-2.53C16.31,1.73.93,15,1.69,28.07c.1,1.62,2.64,1.63,2.54,0Z"/><path class="b" d="M36,5.71c2.74.12,5.16.85,7,3,1,1.26,3-.3,2-1.56a11.38,11.38,0,0,0-8.67-4c-1.62-.07-1.94,2.45-.3,2.52Z"/></g></g></svg>