<svg xmlns="http://www.w3.org/2000/svg" xmlns:xlink="http://www.w3.org/1999/xlink" viewBox="0 0 53.48 53.48"><defs><style>.a{isolation:isolate;}.b{fill:url(#a);}.c{fill:#fff;}.d,.f{fill:#840034;}.d,.e{opacity:0.3;mix-blend-mode:multiply;}.g{opacity:0.2;}</style><linearGradient id="a" x1="-0.36" y1="26.91" x2="53.12" y2="26.91" gradientTransform="translate(0.15 0.04) rotate(-0.46)" gradientUnits="userSpaceOnUse"><stop offset="0.16" stop-color="#fe0034"/><stop offset="1" stop-color="#fe0034"/></linearGradient></defs><title>Asset 4</title><g class="a"><path class="b" d="M53.48,26.52A26.74,26.74,0,1,1,26.52,0,26.74,26.74,0,0,1,53.48,26.52Z"/><path class="c" d="M37.21,51.35C30.94,47,24.45,39.06,29,25.78,33.19,13.65,35.81,6.36,35.28,1.4a26.75,26.75,0,0,0-16.07-.32,35.5,35.5,0,0,1,6.31,24.19C24.22,37,15.81,44.72,17.7,51.91a26.79,26.79,0,0,0,19.51-.56Z"/><path class="c" d="M53.48,26.52A26.43,26.43,0,0,0,52,18c-4.93,6-13.12,11.12-25.91,6.72C14.31,20.65,6.78,18,1.5,17.9a26.76,26.76,0,0,0-.43,16.33,38.12,38.12,0,0,1,24.48-5.76c11.13,1.23,18.86,8.36,25.82,8.69A26.56,26.56,0,0,0,53.48,26.52Z"/><path class="c" d="M51.53,16.72c-5.46,4.32-15.75,5-24.37,11.87A38.72,38.72,0,0,0,13.72,49.93l.75.42a38.15,38.15,0,0,1,13.2-21.12c4.71-3.76,10-5.64,14.66-7.29,3.75-1.34,7-2.51,9.52-4.41C51.75,17.26,51.64,17,51.53,16.72Z"/><path class="c" d="M38.8,2.88c-.28-.15-.57-.29-.86-.43.81,10-3.72,17.54-13.47,22.29l-1.71.83C12.84,30.39,6.1,33.67,2.2,37.1c.11.27.24.53.36.79,4-3.61,11.24-7,22.27-12.41C36.78,19.66,39.29,10.55,38.8,2.88Z"/><path class="c" d="M17.34,1.88c4.32,5.46,5,15.76,11.87,24.37A38.72,38.72,0,0,0,50.55,39.69c.14-.25.29-.49.42-.75a38.15,38.15,0,0,1-21.12-13.2c-3.76-4.71-5.64-10-7.29-14.66-1.34-3.75-2.51-7-4.41-9.52Z"/><path class="c" d="M3.5,14.61c-.15.28-.29.57-.43.87,10-.82,17.54,3.71,22.29,13.46l.83,1.71c4.82,9.92,8.1,16.67,11.53,20.56.27-.11.53-.24.79-.36-3.6-4-7-11.24-12.41-22.27C20.28,16.63,11.17,14.12,3.5,14.61Z"/><path class="d" d="M41.68,26.62A14.94,14.94,0,1,1,26.62,11.81,14.93,14.93,0,0,1,41.68,26.62Z"/><g class="e"><path class="f" d="M45.58,7.76A26.74,26.74,0,0,1,5.29,42.7,26.74,26.74,0,1,0,45.58,7.76Z"/><path class="f" d="M5.28,42.69c-.41-.55-.79-1.11-1.16-1.69C4.49,41.58,4.87,42.14,5.28,42.69Z"/></g><g class="g"><path class="c" d="M4.43,25.26C4.78,15.65,13.54,5.53,22.9,3.59c1.52-.32.88-2.65-.65-2.34C11.82,3.42,2.39,14.62,2,25.26c-.06,1.56,2.36,1.56,2.41,0Z"/><path class="c" d="M30.15,4.39c2.46-.48,5.45.8,7.67,1.76,1.42.62,2.65-1.47,1.22-2.09-2.89-1.25-6.33-2.63-9.53-2-1.53.3-.88,2.63.64,2.33Z"/></g></g></svg>