<svg xmlns="http://www.w3.org/2000/svg" xmlns:xlink="http://www.w3.org/1999/xlink" viewBox="0 0 67.3 66.78"><defs><style>.a{isolation:isolate;}.b,.g{fill:#fff;}.c{fill:#840034;opacity:0.3;mix-blend-mode:multiply;}.d{fill:url(#a);}.e{fill:#ff0034;}.f{fill:#f2bf18;}.g{mix-blend-mode:overlay;}</style><linearGradient id="a" x1="4.2" y1="31.76" x2="62.04" y2="31.76" gradientUnits="userSpaceOnUse"><stop offset="0.16" stop-color="#fe0034"/><stop offset="1" stop-color="#fe0034"/></linearGradient></defs><title>Asset 5</title><g class="a"><path class="b" d="M55.15,65.66C50.54,69.12,34.6,55.25,34.6,55.25s-15.52,14.35-20.23,11,3.55-22.76,3.55-22.76S-.51,33.2,1.19,27.69,23.93,24,23.93,24,28.05,3.31,33.81,3.23s10.51,20.5,10.51,20.5,21-2.49,22.84,3S50.91,43,50.91,43,59.76,62.21,55.15,65.66Z"/><path class="c" d="M55.15,65.66C50.54,69.12,34.6,55.25,34.6,55.25s-15.52,14.35-20.23,11,3.55-22.76,3.55-22.76S-.51,33.2,1.19,27.69,23.93,24,23.93,24,28.05,3.31,33.81,3.23s10.51,20.5,10.51,20.5,21-2.49,22.84,3S50.91,43,50.91,43,59.76,62.21,55.15,65.66Z"/><path class="b" d="M54.07,62.44C49.47,65.89,33.52,52,33.52,52S18,66.37,13.3,63.06,16.85,40.3,16.85,40.3-1.59,30,.11,24.47s22.74-3.66,22.74-3.66S27,.09,32.73,0,43.24,20.5,43.24,20.5s21-2.48,22.84,3S49.84,39.79,49.84,39.79,58.68,59,54.07,62.44Z"/><path class="c" d="M33.1,7.79c.33.17,2,1.35,4.35,7.81a82.6,82.6,0,0,1,2.43,8.2l.49,2.11,2.15-.25a79.58,79.58,0,0,1,8.42-.48c7,0,8.67,1.21,8.94,1.45-.06.37-.66,2.34-6.08,6.55a80.7,80.7,0,0,1-7,4.85L44.9,39.15l.9,2a82.26,82.26,0,0,1,3.1,8c2.11,6.55,1.49,8.51,1.34,8.84L50,58c-3,0-10.4-5.25-14.69-9L33.7,47.54,32.11,49c-4.23,3.92-11.52,9.43-14.46,9.43H17.5c-.16-.32-.85-2.26,1.07-8.88a78.83,78.83,0,0,1,2.85-8.06l.84-2-1.89-1.06a81.89,81.89,0,0,1-7.16-4.61C7.6,29.73,7,27.77,6.9,27.43c.47-.53,3.16-1.75,10.93-1.75,3.48,0,6.37.25,6.39.25l2.16.19L26.81,24A81.83,81.83,0,0,1,29,15.73C31.13,9.2,32.78,8,33.1,7.79m0-2.44h0c-5,.08-8.63,18.18-8.63,18.18s-3-.26-6.6-.26c-5.43,0-12.37.57-13.26,3.45C3.09,31.53,19.19,40.54,19.19,40.54s-7.21,17-3.1,19.88a2.65,2.65,0,0,0,1.56.44c5.22,0,16.1-10.07,16.1-10.07s11,9.57,16.28,9.57a2.66,2.66,0,0,0,1.67-.48c4-3-3.7-19.77-3.7-19.77S63.82,30.6,62.19,25.85c-.85-2.49-6.27-3.09-11.25-3.09a84.37,84.37,0,0,0-8.7.49S38.11,5.35,33.1,5.35Z"/><path class="d" d="M32.83,6.45c.33.17,2,1.35,4.35,7.81,1.48,4.11,2.42,8.15,2.44,8.19l.48,2.12,2.16-.26a84.29,84.29,0,0,1,8.42-.47c7,0,8.66,1.2,8.94,1.45-.07.36-.67,2.33-6.09,6.55a83.39,83.39,0,0,1-7,4.85l-1.86,1.12.91,2s1.74,3.81,3.09,8c2.11,6.55,1.49,8.51,1.34,8.84h-.21c-3,0-10.4-5.25-14.69-9L33.43,46.2l-1.59,1.47c-4.23,3.91-11.52,9.42-14.46,9.42h-.15c-.16-.33-.85-2.27,1.07-8.88a79.54,79.54,0,0,1,2.85-8.07l.84-2L20.1,37.09A83.7,83.7,0,0,1,13,32.48c-5.62-4.1-6.25-6-6.32-6.39.47-.54,3.16-1.75,10.93-1.75,3.48,0,6.37.25,6.39.25l2.16.19.43-2.13a78.83,78.83,0,0,1,2.18-8.27c2.14-6.52,3.79-7.75,4.11-7.93m0-2.44h0c-5,.07-8.63,18.17-8.63,18.17s-3-.26-6.6-.26c-5.43,0-12.37.58-13.26,3.46C2.82,30.18,18.92,39.2,18.92,39.2s-7.21,17-3.1,19.88a2.65,2.65,0,0,0,1.56.43c5.22,0,16.1-10.06,16.1-10.06S44.49,59,49.76,59a2.73,2.73,0,0,0,1.67-.48c4-3-3.7-19.78-3.7-19.78s15.82-9.5,14.19-14.26c-.85-2.49-6.27-3.08-11.25-3.08a84.37,84.37,0,0,0-8.7.49S37.84,4,32.83,4Z"/><path class="e" d="M20.37,27.84a3.5,3.5,0,1,1-3.5-3.49A3.5,3.5,0,0,1,20.37,27.84Z"/><path class="f" d="M20.37,27.84a3.5,3.5,0,1,1-3.5-3.49A3.5,3.5,0,0,1,20.37,27.84Z"/><path class="g" d="M19.47,25.75c0-.09,0-.17,0-.26a3.5,3.5,0,0,0-6.09,2.35c0,.09,0,.17,0,.26a3.5,3.5,0,0,0,6.09-2.35Z"/><path class="g" d="M17.07,26.39a1.15,1.15,0,1,1-1.15-1.14A1.14,1.14,0,0,1,17.07,26.39Z"/><path class="e" d="M35.82,14.74a3.5,3.5,0,1,1-3.5-3.5A3.49,3.49,0,0,1,35.82,14.74Z"/><path class="f" d="M35.82,14.74a3.5,3.5,0,1,1-3.5-3.5A3.49,3.49,0,0,1,35.82,14.74Z"/><path class="g" d="M34.92,12.64a2.18,2.18,0,0,0,0-.25,3.5,3.5,0,0,0-6.09,2.35,2,2,0,0,0,0,.25,3.49,3.49,0,0,0,6.08-2.35Z"/><path class="g" d="M32.52,13.29a1.15,1.15,0,0,1-2.3,0,1.15,1.15,0,0,1,2.3,0Z"/><path class="e" d="M53.43,27.58a3.5,3.5,0,1,1-3.5-3.5A3.5,3.5,0,0,1,53.43,27.58Z"/><path class="f" d="M53.43,27.58a3.5,3.5,0,1,1-3.5-3.5A3.5,3.5,0,0,1,53.43,27.58Z"/><path class="g" d="M52.53,25.48a2,2,0,0,0,0-.25,3.46,3.46,0,0,0-2.58-1.15,3.5,3.5,0,0,0-3.5,3.5c0,.08,0,.16,0,.25a3.5,3.5,0,0,0,6.09-2.35Z"/><path class="g" d="M50.13,26.13A1.15,1.15,0,1,1,49,25,1.15,1.15,0,0,1,50.13,26.13Z"/><path class="e" d="M45.36,48.27a3.5,3.5,0,1,1-3.49-3.5A3.5,3.5,0,0,1,45.36,48.27Z"/><path class="f" d="M45.36,48.27a3.5,3.5,0,1,1-3.49-3.5A3.5,3.5,0,0,1,45.36,48.27Z"/><path class="g" d="M44.47,46.17a2,2,0,0,0,0-.25,3.46,3.46,0,0,0-2.58-1.15,3.5,3.5,0,0,0-3.5,3.5,2.09,2.09,0,0,0,0,.25,3.5,3.5,0,0,0,6.09-2.35Z"/><path class="g" d="M42.06,46.82a1.15,1.15,0,1,1-1.14-1.15A1.15,1.15,0,0,1,42.06,46.82Z"/><path class="e" d="M24.4,49.88a3.5,3.5,0,1,1-3.5-3.5A3.5,3.5,0,0,1,24.4,49.88Z"/><path class="f" d="M24.4,49.88a3.5,3.5,0,1,1-3.5-3.5A3.5,3.5,0,0,1,24.4,49.88Z"/><path class="g" d="M23.5,47.78a2.09,2.09,0,0,0,0-.25,3.5,3.5,0,0,0-6.09,2.35,2,2,0,0,0,0,.25A3.46,3.46,0,0,0,20,51.28,3.5,3.5,0,0,0,23.5,47.78Z"/><path class="g" d="M21.1,48.43a1.15,1.15,0,0,1-2.3,0,1.15,1.15,0,0,1,2.3,0Z"/></g></svg>