<svg xmlns="http://www.w3.org/2000/svg" xmlns:xlink="http://www.w3.org/1999/xlink" viewBox="0 0 70.88 45.98"><defs><style>.a{isolation:isolate;}.b{fill:url(#a);}.c,.g{fill:#840034;}.c{opacity:0.3;mix-blend-mode:multiply;}.d{fill:url(#b);}.e,.f{fill:#fff;}.e{opacity:0.2;}</style><linearGradient id="a" y1="26.42" x2="61.05" y2="26.42" gradientUnits="userSpaceOnUse"><stop offset="0.16" stop-color="#fe0034"/><stop offset="1" stop-color="#fe0034"/></linearGradient><linearGradient id="b" y1="23.19" x2="57.02" y2="23.19" xlink:href="#a"/></defs><title>Asset 6</title><g class="a"><path class="b" d="M1.36,6.85S-9.53,44.75,30.38,46,59.81,6.85,59.81,6.85"/><path class="c" d="M1.36,6.85S-9.53,44.75,30.38,46,59.81,6.85,59.81,6.85"/><path class="d" d="M56.81,6.85H1.36s-3.62,12.59,1,23.49c4.48,5,11.91,8.8,24,9.17C56.13,40.41,57.85,18.19,56.81,6.85Z"/><path class="e" d="M4.42,8.87s-2.45,8.55.66,16c3,3.43,8.09,6,16.32,6.23,20.23.61,21.4-14.48,20.69-22.18Z"/><path class="f" d="M59.81,6.85c0,3.79-13.09,6.86-29.23,6.86S1.36,10.64,1.36,6.85,14.44,0,30.58,0,59.81,3.07,59.81,6.85Z"/><path class="c" d="M31.12,4c-13.47,0-24.8,2.14-28.19,5,3.94,2.7,14.82,4.64,27.65,4.64,13.47,0,24.8-2.14,28.19-5.05C54.83,6,44,4,31.12,4Z"/><path class="g" d="M31.12,8.33C21.51,8.33,13,9.42,7.65,11.1c5.36,1.59,13.63,2.61,22.93,2.61,9.62,0,18.14-1.09,23.47-2.77C48.7,9.35,40.42,8.33,31.12,8.33Z"/><path class="f" d="M57.87,17.75c3.23-4.29,6.63-.06,7.73,3.57,2,6.41-2.55,9.84-8.61,9.72-3.12-.06-3.12,4.77,0,4.84,4.71.09,9.15-1.12,12-5.05,2.31-3.14,2.2-7.67,1.12-11.23s-3.41-6.89-6.86-8.19c-3.92-1.49-7.3.85-9.59,3.9-1.88,2.49,2.32,4.9,4.18,2.44Z"/><path class="c" d="M67.7,20.28c-.86-2.82-2.8-5.68-5.64-6.75-3.23-1.22-6,.7-7.9,3.21a1.7,1.7,0,0,0-.38,1.17,2.69,2.69,0,0,0,4.09-.16c3.23-4.29,6.63-.06,7.73,3.57,2,6.41-2.55,9.84-8.61,9.72a2.14,2.14,0,0,0-2,1.05,1.87,1.87,0,0,0,1.87,1.58c3.88.08,7.54-.92,9.91-4.15C68.68,26.93,68.59,23.2,67.7,20.28Z"/></g></svg>