<svg xmlns="http://www.w3.org/2000/svg" xmlns:xlink="http://www.w3.org/1999/xlink" viewBox="0 0 66.33 67.95"><defs><style>.a{isolation:isolate;}.b{fill:url(#a);}.c,.f{fill:#fff;}.d,.e{fill:#840034;}.d{opacity:0.3;mix-blend-mode:multiply;}.f{opacity:0.2;}</style><linearGradient id="a" x1="1.61" y1="35.59" x2="66.33" y2="35.59" gradientUnits="userSpaceOnUse"><stop offset="0.16" stop-color="#fe0034"/><stop offset="1" stop-color="#fe0034"/></linearGradient></defs><title>Asset 1</title><g class="a"><path class="b" d="M61.65,30.75h-16L57,19.43c4.41-4.41-2.43-11.25-6.84-6.84q-5.67,5.65-11.32,11.32V7.9c0-6.23-9.67-6.23-9.67,0v16L17.82,12.59C13.4,8.18,6.56,15,11,19.43L22.29,30.75h-16c-6.24,0-6.24,9.67,0,9.67h16L11,51.74C6.56,56.15,13.4,63,17.82,58.58L29.14,47.26v16c0,6.24,9.67,6.24,9.67,0v-16L50.12,58.58C54.54,63,61.38,56.15,57,51.74L45.65,40.42h16C67.89,40.42,67.89,30.75,61.65,30.75Z"/><path class="c" d="M60,27.52H44L55.35,16.21C59.77,11.79,52.93,5,48.51,9.37L37.2,20.68v-16c0-6.24-9.68-6.24-9.68,0v16L16.21,9.37C11.79,5,5,11.79,9.37,16.21L20.68,27.52h-16c-6.24,0-6.24,9.68,0,9.68h16L9.37,48.51C5,52.93,11.79,59.77,16.21,55.35L27.52,44V60c0,6.24,9.68,6.24,9.68,0V44L48.51,55.35c4.42,4.42,11.26-2.42,6.84-6.84L44,37.2H60C66.28,37.2,66.28,27.52,60,27.52Z"/><path class="d" d="M60,27.52H44L55.35,16.21C59.77,11.79,52.93,5,48.51,9.37L37.2,20.68v-16c0-6.24-9.68-6.24-9.68,0v16L16.21,9.37C11.79,5,5,11.79,9.37,16.21L20.68,27.52h-16c-6.24,0-6.24,9.68,0,9.68h16L9.37,48.51C5,52.93,11.79,59.77,16.21,55.35L27.52,44V60c0,6.24,9.68,6.24,9.68,0V44L48.51,55.35c4.42,4.42,11.26-2.42,6.84-6.84L44,37.2H60C66.28,37.2,66.28,27.52,60,27.52Z"/><path class="c" d="M44,27.66c-1,0-2.06-.08-3.09-.16,1.25-2.49,3.32-4.23,5.28-6.19l7.25-7.25a4.41,4.41,0,0,0,1-5.26,4.46,4.46,0,0,0-5.91.57L40.93,17c-1.4,1.39-3.5,4.6-5.69,4.73.2-3,.08-5.95.08-8.95V2.53A4.89,4.89,0,0,0,35,.67c-2.85-1.63-7.45-.29-7.45,4v16L16.21,9.37c-4.06-4.06-10.15,1.37-7.7,5.71L18.8,25.37h-.27l2.15,2.15h-16c-4,0-5.47,4.08-4.26,6.94a4.74,4.74,0,0,0,2.38.59c6.26,0,12.7-.44,18.93,0A14.17,14.17,0,0,0,19.37,38a19.66,19.66,0,0,1-2.93,3.43L9.37,48.51a4.41,4.41,0,0,0-.95,5.26,4.46,4.46,0,0,0,5.91-.57l6.61-6.61c1.11-1.11,2.2-2.22,3.31-3.31.9-.89,2.22-1.33,3-2.27.09,1.44-.39,2.75-.13,4.19a23.08,23.08,0,0,1,.39,4.35V60a4.89,4.89,0,0,0,.35,1.86c2.85,1.63,7.45.29,7.45-4v-16L46.63,53.2c4,4.06,10.15-1.37,7.7-5.71L44,37.2h.27l-2.15-2.15h16c4.05,0,5.47-4.08,4.26-6.94A4.76,4.76,0,0,0,60,27.52C54.75,27.52,49.34,27.82,44,27.66Z"/><path class="d" d="M15.7,14a1.48,1.48,0,1,1-1.48-1.48A1.48,1.48,0,0,1,15.7,14Zm1.21,3.63a.67.67,0,1,0,.67.67A.67.67,0,0,0,16.91,17.58ZM5.22,31.82A1.08,1.08,0,1,0,6.29,32.9,1.08,1.08,0,0,0,5.22,31.82Zm9.13,1.61a2.15,2.15,0,1,0,2.15,2.15A2.16,2.16,0,0,0,14.35,33.43Zm-2-4.56a.67.67,0,1,0,.67.67A.67.67,0,0,0,12.34,28.87Zm7,18.54a.94.94,0,1,0,.94.94A.94.94,0,0,0,19.33,47.41ZM16.1,52a.94.94,0,1,0,.94.94A.94.94,0,0,0,16.1,52Zm5.38-10.75a.67.67,0,1,0,.67.67A.67.67,0,0,0,21.48,41.23ZM29,52.78A1.21,1.21,0,1,0,30.21,54,1.21,1.21,0,0,0,29,52.78Zm5.24-2.41a1.08,1.08,0,1,0,1.08,1.07A1.07,1.07,0,0,0,34.24,50.37ZM34.11,60a1.21,1.21,0,1,0,1.21,1.21A1.21,1.21,0,0,0,34.11,60ZM48.49,49a1.62,1.62,0,1,0,1.61,1.61A1.62,1.62,0,0,0,48.49,49Zm3.89,4.3a.94.94,0,1,0,.94.94A.94.94,0,0,0,52.38,53.32Zm2.29-2.42a.81.81,0,1,0,.8.81A.81.81,0,0,0,54.67,50.9ZM58.43,34a1.88,1.88,0,1,0,1.88,1.88A1.88,1.88,0,0,0,58.43,34Zm-2-4.3a1.21,1.21,0,1,0,1.21,1.21A1.21,1.21,0,0,0,56.41,29.67Zm6.72,1.88a.94.94,0,1,0,.94.94A.94.94,0,0,0,63.13,31.55ZM51.58,11.4a.94.94,0,1,0,.94.94A.94.94,0,0,0,51.58,11.4Zm4.83,3.76a1.21,1.21,0,1,0,1.21,1.21A1.21,1.21,0,0,0,56.41,15.16Zm-5.1,3.49a.94.94,0,1,0,.94.94A.94.94,0,0,0,51.31,18.65Zm-2.42-3.22a.67.67,0,1,0,.67.67A.67.67,0,0,0,48.89,15.43ZM31.29,2.26a1.08,1.08,0,1,0,1.07,1.07A1.07,1.07,0,0,0,31.29,2.26Zm.53,5.38A1.34,1.34,0,1,0,33.17,9,1.34,1.34,0,0,0,31.82,7.64Zm0,7.79A1.61,1.61,0,1,0,33.44,17,1.61,1.61,0,0,0,31.82,15.43Zm5.11-6.72A1.08,1.08,0,1,0,38,9.78,1.08,1.08,0,0,0,36.93,8.71Zm-7.26,3.76a1.08,1.08,0,1,0,1.08,1.08A1.07,1.07,0,0,0,29.67,12.47Z"/><path class="e" d="M15.16,12.88a1.48,1.48,0,1,1-1.48-1.48A1.47,1.47,0,0,1,15.16,12.88Zm1.21,3.62a.68.68,0,1,0,.67.67A.67.67,0,0,0,16.37,16.5ZM4.68,30.75a1.08,1.08,0,1,0,1.08,1.07A1.07,1.07,0,0,0,4.68,30.75Zm9.14,1.61A2.15,2.15,0,1,0,16,34.51,2.15,2.15,0,0,0,13.82,32.36Zm-2-4.57a.67.67,0,1,0,.67.67A.67.67,0,0,0,11.8,27.79Zm7,18.54a.95.95,0,1,0,.94,1A.95.95,0,0,0,18.79,46.33ZM15.56,50.9a.94.94,0,1,0,1,.94A.94.94,0,0,0,15.56,50.9Zm5.38-10.75a.68.68,0,1,0,.67.67A.67.67,0,0,0,20.94,40.15Zm7.52,11.56a1.21,1.21,0,1,0,1.21,1.21A1.21,1.21,0,0,0,28.46,51.71Zm5.24-2.42a1.08,1.08,0,1,0,1.08,1.08A1.07,1.07,0,0,0,33.7,49.29ZM33.57,59a1.21,1.21,0,1,0,1.21,1.21A1.21,1.21,0,0,0,33.57,59ZM48,48a1.61,1.61,0,1,0,1.61,1.61A1.61,1.61,0,0,0,48,48Zm3.9,4.3a.94.94,0,1,0,.94.94A.95.95,0,0,0,51.85,52.25Zm2.28-2.42a.81.81,0,1,0,.81.8A.8.8,0,0,0,54.13,49.83ZM57.89,32.9a1.88,1.88,0,1,0,1.88,1.88A1.88,1.88,0,0,0,57.89,32.9Zm-2-4.3a1.21,1.21,0,1,0,0,2.42,1.21,1.21,0,1,0,0-2.42Zm6.72,1.88a.94.94,0,1,0,.94.94A.95.95,0,0,0,62.6,30.48ZM51,10.32a.94.94,0,1,0,.94.94A.94.94,0,0,0,51,10.32Zm4.84,3.77a1.21,1.21,0,1,0,1.21,1.2A1.21,1.21,0,0,0,55.88,14.09Zm-5.11,3.49a.94.94,0,1,0,.94.94A.94.94,0,0,0,50.77,17.58Zm-2.42-3.23A.68.68,0,1,0,49,15,.67.67,0,0,0,48.35,14.35ZM30.75,1.18a1.08,1.08,0,1,0,0,2.15,1.08,1.08,0,0,0,0-2.15Zm.54,5.38A1.35,1.35,0,1,0,32.63,7.9,1.34,1.34,0,0,0,31.29,6.56Zm0,7.79A1.62,1.62,0,1,0,32.9,16,1.62,1.62,0,0,0,31.29,14.35Zm5.1-6.71a1.07,1.07,0,1,0,1.08,1.07A1.07,1.07,0,0,0,36.39,7.64ZM29.14,11.4a1.08,1.08,0,1,0,1.07,1.07A1.07,1.07,0,0,0,29.14,11.4Z"/><path class="f" d="M46.34,49.56a1.84,1.84,0,0,0,0,.41,1.69,1.69,0,0,0,.89.26,1.61,1.61,0,0,0,1.61-1.61,1.4,1.4,0,0,0-.06-.41A1.65,1.65,0,0,0,48,48,1.61,1.61,0,0,0,46.34,49.56Z"/><path class="f" d="M52.1,52.3a.7.7,0,0,0-.25,0,.94.94,0,0,0-.94.89,1.19,1.19,0,0,0,.26,0A.93.93,0,0,0,52.1,52.3Z"/><path class="f" d="M51,17.63a1.19,1.19,0,0,0-.26-.05.93.93,0,0,0-.93.89,1.09,1.09,0,0,0,.26.05A.94.94,0,0,0,51,17.63Z"/><path class="f" d="M27.26,52.92a.61.61,0,0,0,0,.14,1.14,1.14,0,0,0,.52.13A1.21,1.21,0,0,0,29,52s0-.1,0-.15a1.33,1.33,0,0,0-.53-.12A1.21,1.21,0,0,0,27.26,52.92Z"/><path class="f" d="M32.36,60.18a.68.68,0,0,0,0,.14,1.11,1.11,0,0,0,.52.12,1.21,1.21,0,0,0,1.21-1.21.68.68,0,0,0,0-.14,1.14,1.14,0,0,0-.52-.12A1.21,1.21,0,0,0,32.36,60.18Z"/><path class="f" d="M35.32,8.71a.43.43,0,0,0,0,0,1,1,0,0,0,.39.08A1.08,1.08,0,0,0,36.8,7.77s0,0,0-.06a1.23,1.23,0,0,0-.39-.07A1.07,1.07,0,0,0,35.32,8.71Z"/><path class="f" d="M47.75,14.74a.65.65,0,0,0,.54-.37A.64.64,0,0,0,47.75,14.74Z"/><path class="f" d="M56,34.78a1.8,1.8,0,0,0,.1.57,1.85,1.85,0,0,0,1.11.37,1.88,1.88,0,0,0,1.88-1.88,1.8,1.8,0,0,0-.1-.57,1.85,1.85,0,0,0-1.11-.37A1.88,1.88,0,0,0,56,34.78Z"/><path class="f" d="M61.67,31.37a1,1,0,0,0,.25.05.93.93,0,0,0,.93-.89,1,1,0,0,0-.25-.05A.92.92,0,0,0,61.67,31.37Z"/><path class="f" d="M56.41,14.35a.66.66,0,0,0,0-.14,1.17,1.17,0,0,0-.52-.12,1.21,1.21,0,0,0-1.21,1.2c0,.05,0,.1,0,.15a1.17,1.17,0,0,0,.52.12A1.21,1.21,0,0,0,56.41,14.35Z"/><path class="f" d="M56.41,28.87a.76.76,0,0,0,0-.15,1.17,1.17,0,0,0-.52-.12,1.21,1.21,0,0,0-1.21,1.21c0,.05,0,.09,0,.14a1.18,1.18,0,0,0,.52.13A1.21,1.21,0,0,0,56.41,28.87Z"/><path class="f" d="M50.11,11.21a.75.75,0,0,0,.26,0,.93.93,0,0,0,.93-.89,1.19,1.19,0,0,0-.26,0A.94.94,0,0,0,50.11,11.21Z"/><path class="f" d="M53.46,50.5a.78.78,0,0,0,.77-.65l-.1,0a.8.8,0,0,0-.78.65Z"/><path class="f" d="M32.23,15a1.76,1.76,0,0,0-.06-.41,1.6,1.6,0,0,0-.88-.27A1.62,1.62,0,0,0,29.67,16a1.76,1.76,0,0,0,.06.4A1.61,1.61,0,0,0,32.23,15Z"/><path class="f" d="M14.49,11.93a1.1,1.1,0,0,0,0-.31,1.42,1.42,0,0,0-.77-.22,1.48,1.48,0,0,0-1.48,1.48,1.65,1.65,0,0,0,0,.31,1.48,1.48,0,0,0,2.25-1.26Z"/><path class="f" d="M15.3,33.57a2.2,2.2,0,0,0-.14-.73,2.17,2.17,0,0,0-1.34-.48,2.15,2.15,0,0,0-2.15,2.15,2.24,2.24,0,0,0,.13.73,2.17,2.17,0,0,0,1.35.48A2.15,2.15,0,0,0,15.3,33.57Z"/><path class="f" d="M29.54,11.53s0,0,0,0a1,1,0,0,0-.39-.08,1.07,1.07,0,0,0-1.08,1.07s0,0,0,.06a1,1,0,0,0,.39.08A1.08,1.08,0,0,0,29.54,11.53Z"/><path class="f" d="M11.73,27.8a.66.66,0,0,0-.53.38A.63.63,0,0,0,11.73,27.8Z"/><path class="f" d="M3.61,31.82s0,0,0,.06A1,1,0,0,0,4,32a1.08,1.08,0,0,0,1.07-1.08s0,0,0-.05a1,1,0,0,0-.39-.08A1.07,1.07,0,0,0,3.61,31.82Z"/><path class="f" d="M15.82,51a.71.71,0,0,0-.26-.06.94.94,0,0,0-.93.89.8.8,0,0,0,.26.05A.93.93,0,0,0,15.82,51Z"/><path class="f" d="M15.77,16.89a.63.63,0,0,0,.53-.37A.62.62,0,0,0,15.77,16.89Z"/><path class="f" d="M17.86,47.22a.76.76,0,0,0,.26.06.94.94,0,0,0,.93-.89.82.82,0,0,0-.26-.06A.94.94,0,0,0,17.86,47.22Z"/><path class="f" d="M29.94,7.9a.85.85,0,0,0,0,.23,1.28,1.28,0,0,0,.64.18A1.34,1.34,0,0,0,32,7a.91.91,0,0,0,0-.23,1.39,1.39,0,0,0-.64-.17A1.34,1.34,0,0,0,29.94,7.9Z"/><path class="f" d="M31.15,1.32s0,0,0-.06a1.23,1.23,0,0,0-.39-.08,1.09,1.09,0,0,0-1.08,1.08s0,0,0,.06a1.34,1.34,0,0,0,.4.07A1.07,1.07,0,0,0,31.15,1.32Z"/><path class="f" d="M32.63,50.37s0,0,0,.05a1,1,0,0,0,.39.08,1.08,1.08,0,0,0,1.08-1.08.43.43,0,0,1,0-.05,1.1,1.1,0,0,0-.4-.08A1.07,1.07,0,0,0,32.63,50.37Z"/><path class="f" d="M20.33,40.54a.64.64,0,0,0,.54-.37A.65.65,0,0,0,20.33,40.54Z"/></g></svg>