<svg xmlns="http://www.w3.org/2000/svg" xmlns:xlink="http://www.w3.org/1999/xlink" viewBox="0 0 40.31 72.98"><defs><style>.a{isolation:isolate;}.b,.f{fill:#fff;}.c{fill:#840034;opacity:0.3;mix-blend-mode:multiply;}.d{fill:url(#a);}.e{fill:url(#b);}.f{opacity:0.2;}</style><linearGradient id="a" y1="20.16" x2="40.31" y2="20.16" gradientTransform="translate(35.19 -4.06) rotate(76.83)" gradientUnits="userSpaceOnUse"><stop offset="0.16" stop-color="#fe0034"/><stop offset="1" stop-color="#fe0034"/></linearGradient><linearGradient id="b" y1="24.46" x2="40.31" y2="24.46" gradientTransform="matrix(1, 0, 0, 1, 0, 0)" xlink:href="#a"/></defs><title>Asset 7</title><g class="a"><path class="b" d="M20.92,40q3.58,15.45,7.81,30.58c1.22,4.31,6.16,2.39,4.93-2Q29.42,53.49,25.84,38c-1-4.43-6-2.49-4.92,2Z"/><path class="c" d="M20.87,39.65c0,.11,0,.22.05.33q3.58,15.45,7.81,30.58c.57,2,1.93,2.64,3.1,2.34,0-.09,0-.18,0-.28Q27.52,57.51,24,42.05C23.47,39.91,22.07,39.26,20.87,39.65Z"/><circle class="d" cx="20.16" cy="20.16" r="20.16" transform="translate(-4.06 35.19) rotate(-76.83)"/><path class="e" d="M40.31,20.16A20.16,20.16,0,1,0,16.85,40l-2.34,8.87,4.84-4.84,5.91,3.77,1.61-4.3,8.07,3.22-6.26-8.34A20.15,20.15,0,0,0,40.31,20.16Z"/><path class="b" d="M2.56,30A20.31,20.31,0,0,0,5.7,34.18c10.48,3.9,22.88.77,32.46-5a20.13,20.13,0,0,0,1.46-3.81C29.14,32.61,14,36.93,2.56,30Z"/><path class="b" d="M29.39,2.24c-7.42,6-16.83,9.37-26.19,7A19.52,19.52,0,0,0,2,11.46c10.53,3,21.38-.94,29.63-7.89A19.61,19.61,0,0,0,29.39,2.24Z"/><path class="c" d="M29.05,38.92l-.37-.5a20.15,20.15,0,0,0,5.7-32.54,31.84,31.84,0,0,1,1.1,17.23c-2.15,10.48-15.86,13.44-25.8,9.41C2.23,29.5,1,20.86.23,17.08A20.77,20.77,0,0,0,0,20.16,20.16,20.16,0,0,0,16.85,40l-2.34,8.87,4.57-7,.16,2.26.11-.11,5.22,3.33-2-7.09L24.46,40l2.7,3.61,7.78,3.11s-7.26-6.72-8.06-7C26.43,39.63,27.76,39.24,29.05,38.92Z"/><path class="f" d="M16.86,2.82A13.28,13.28,0,0,0,6,23.67,13.28,13.28,0,0,0,25.35,5.89,13.25,13.25,0,0,0,16.86,2.82Z"/></g></svg>