<svg xmlns="http://www.w3.org/2000/svg" xmlns:xlink="http://www.w3.org/1999/xlink" viewBox="0 0 55.03 69.38"><defs><style>.a{isolation:isolate;}.b,.h{fill:#fff;}.c,.d{fill:#840034;}.c{opacity:0.3;mix-blend-mode:multiply;}.e,.h{opacity:0.2;}.f{fill:url(#a);}.g{fill:url(#b);}</style><linearGradient id="a" y1="50.55" x2="55.03" y2="50.55" gradientUnits="userSpaceOnUse"><stop offset="0.16" stop-color="#fe0034"/><stop offset="1" stop-color="#fe0034"/></linearGradient><linearGradient id="b" y1="49.5" x2="52.36" y2="49.5" xlink:href="#a"/></defs><title>Asset 8</title><g class="a"><path class="b" d="M.61,36S-1,24.73,14.72,20.7,22,7,17.14,9.82,18-3.08,29.64.55,37.3,11.83,37.3,11.83,45,13,48.59,18.28s.8,8.07.8,8.07,6.86,2.82,3.23,7.25S17.14,50.94.61,36Z"/><path class="c" d="M52.62,33.6c3.63-4.43-3.23-7.25-3.23-7.25s2.82-2.83-.8-8.07C55,30.78,20,31.59,24.4,33.2s25.8-2,25.8-2a168.15,168.15,0,0,1-16.93,4.44c-9.68,2-32.66,1.21-31.85-4.44S20.37,20.7,26,17.88s6.05-8.87.4-12.09c-4.47-2.56-9.2,1.22-11,2.89-.19,1.27.35,1.92,1.69,1.14C22,7,30.45,16.67,14.72,20.7S.61,36,.61,36C17.14,50.94,49,38,52.62,33.6Z"/><path class="c" d="M26,23.93c7.66-1.21,15.72-8.07,15.72-8.07a9.91,9.91,0,0,1,.46-2.5,22.71,22.71,0,0,0-4.89-1.53,4.11,4.11,0,0,0,.25-.61C34.14,18.51,26,23.93,26,23.93Z"/><path class="c" d="M49.12,21.51a2.69,2.69,0,1,1-2.69-2.69A2.69,2.69,0,0,1,49.12,21.51ZM9.35,24.2A2.69,2.69,0,1,0,12,26.88,2.69,2.69,0,0,0,9.35,24.2Zm4.7,8.06a2.29,2.29,0,1,0,2.29,2.28A2.28,2.28,0,0,0,14.05,32.26ZM18,22.05a1.34,1.34,0,1,0,1.34,1.34A1.35,1.35,0,0,0,18,22.05ZM46.17,28.5a3.23,3.23,0,1,0,3.22,3.22A3.23,3.23,0,0,0,46.17,28.5ZM33.4,33.06a1.21,1.21,0,1,0,1.21,1.21A1.21,1.21,0,0,0,33.4,33.06ZM36.89,5.65a2.29,2.29,0,1,0,2.29,2.29A2.29,2.29,0,0,0,36.89,5.65ZM28.43,23.12a2.15,2.15,0,1,0,2.15,2.15A2.15,2.15,0,0,0,28.43,23.12ZM38.64,20.7A1.35,1.35,0,1,0,40,22.05,1.34,1.34,0,0,0,38.64,20.7ZM29.5,11.83a1.89,1.89,0,1,0,1.88,1.88A1.89,1.89,0,0,0,29.5,11.83Z"/><path class="d" d="M48.32,20.16a2.69,2.69,0,1,1-2.69-2.68A2.69,2.69,0,0,1,48.32,20.16ZM8.54,22.85a2.69,2.69,0,1,0,2.69,2.69A2.7,2.7,0,0,0,8.54,22.85Zm4.71,8.07a2.28,2.28,0,1,0,2.28,2.28A2.28,2.28,0,0,0,13.25,30.92ZM17.14,20.7a1.35,1.35,0,1,0,1.35,1.35A1.34,1.34,0,0,0,17.14,20.7Zm28.22,6.45a3.23,3.23,0,1,0,3.23,3.23A3.23,3.23,0,0,0,45.36,27.15ZM32.6,31.72a1.21,1.21,0,1,0,1.2,1.21A1.21,1.21,0,0,0,32.6,31.72ZM36.09,4.31a2.29,2.29,0,1,0,2.28,2.28A2.29,2.29,0,0,0,36.09,4.31ZM27.62,21.78a2.15,2.15,0,1,0,2.15,2.15A2.15,2.15,0,0,0,27.62,21.78Zm10.22-2.42a1.35,1.35,0,1,0,1.34,1.34A1.34,1.34,0,0,0,37.84,19.36ZM28.7,10.49a1.88,1.88,0,1,0,1.88,1.88A1.88,1.88,0,0,0,28.7,10.49Z"/><g class="e"><path class="b" d="M36.09,4.31a2.28,2.28,0,0,0-2.24,1.86A2.28,2.28,0,0,0,37.72,5,2.28,2.28,0,0,0,36.09,4.31Z"/><path class="b" d="M38.33,19.46a1.34,1.34,0,0,0-.49-.1,1.38,1.38,0,0,0-1.11.57,1.44,1.44,0,0,0,.5.1A1.34,1.34,0,0,0,38.33,19.46Z"/><path class="b" d="M44.76,31.59A3.23,3.23,0,0,0,48,28.49a3.21,3.21,0,0,0-5.82,1.76A3.23,3.23,0,0,0,44.76,31.59Z"/><path class="b" d="M45.63,17.48A2.68,2.68,0,0,0,43,19.86a2.66,2.66,0,0,0,4.71-1.41A2.65,2.65,0,0,0,45.63,17.48Z"/><path class="b" d="M31.73,32.09a1.09,1.09,0,0,0,.26,0,1.2,1.2,0,0,0,.87-.37,1.15,1.15,0,0,0-.26,0A1.18,1.18,0,0,0,31.73,32.09Z"/><path class="b" d="M16,21.28a1.39,1.39,0,0,0,.5.09,1.33,1.33,0,0,0,1.1-.57,1.39,1.39,0,0,0-.5-.1A1.35,1.35,0,0,0,16,21.28Z"/><path class="b" d="M27,24.06a2.14,2.14,0,0,0,2.09-1.68,2.14,2.14,0,0,0-3.58,1.08A2.14,2.14,0,0,0,27,24.06Z"/><path class="b" d="M12.64,33.47a2.28,2.28,0,0,0,2.24-1.86,2.24,2.24,0,0,0-1.63-.69A2.29,2.29,0,0,0,11,32.77,2.29,2.29,0,0,0,12.64,33.47Z"/><path class="b" d="M8.54,22.85a2.67,2.67,0,0,0-2.65,2.39,2.65,2.65,0,0,0,2.05,1,2.68,2.68,0,0,0,2.66-2.39A2.72,2.72,0,0,0,8.54,22.85Z"/><path class="b" d="M28.7,10.49a1.89,1.89,0,0,0-1.79,1.32,1.9,1.9,0,0,0,1.18.43,1.88,1.88,0,0,0,1.79-1.32A1.82,1.82,0,0,0,28.7,10.49Z"/></g><path class="f" d="M.21,34.41C-1.33,34,6.12,66.12,6.12,66.12s23.12,8.6,43-2.15L55,31.72S30.85,43.54.21,34.41Z"/><path class="c" d="M.21,34.41C-1.33,34,6.12,66.12,6.12,66.12s23.12,8.6,43-2.15L55,31.72S30.85,43.54.21,34.41Z"/><path class="g" d="M47.24,60.75l5.12-27.9A82.82,82.82,0,0,1,.21,34.41C-1,34,3.7,55.48,5.48,63.31,10.5,64.89,30.07,70,47.24,60.75Z"/><path class="h" d="M40.85,54.31l2.92-15a79.67,79.67,0,0,1-40.22-.7C2.66,38.32,5.09,49.42,7,57.44,14.17,59,28.22,60.73,40.85,54.31Z"/><g class="e"><path class="b" d="M42.71,35.92c-.8.18-1.62.35-2.48.51-1.38,10.45-.88,21-.56,31.47.8-.2,1.59-.42,2.39-.66C41.71,56.78,41.21,46.31,42.71,35.92Z"/><path class="b" d="M29.8,69.31c.79,0,1.6-.1,2.41-.17-.37-10.52-.42-21-.42-31.56-.79.06-1.6.12-2.42.16C29.37,48.27,29.43,58.79,29.8,69.31Z"/><path class="b" d="M19.43,37.9a1.23,1.23,0,0,0,0-.2c-.77-.05-1.55-.11-2.33-.19a1.23,1.23,0,0,0-.07.39c-.15,10.52,1.63,20.9,3.79,31.16.81.08,1.65.15,2.51.2C21.11,58.93,19.28,48.5,19.43,37.9Z"/><path class="b" d="M10.07,67.09c.73.2,1.59.41,2.54.63C10.86,57.2,9,46.69,7.75,36.1c-.83-.17-1.66-.36-2.49-.56C6.53,46.11,8.32,56.6,10.07,67.09Z"/><path class="b" d="M51.54,33.44c-.74.26-1.58.54-2.5.82-1,10.4-1.88,20.8-2.27,31.24Q48,65,49.23,64.33C49.65,54,50.57,43.72,51.54,33.44Z"/></g><path class="d" d="M41.91,35.92q-1.2.27-2.49.51c-1.38,10.45-.88,21-.55,31.47.79-.2,1.58-.42,2.38-.66C40.91,56.78,40.4,46.31,41.91,35.92Z"/><path class="d" d="M29,69.31c.8,0,1.6-.1,2.41-.17C31,58.62,31,48.1,31,37.58c-.79.06-1.59.12-2.41.16C28.57,48.27,28.62,58.79,29,69.31Z"/><path class="d" d="M18.62,37.9a1.23,1.23,0,0,0,0-.2c-.77-.05-1.54-.11-2.33-.19a1.23,1.23,0,0,0-.07.39C16.05,48.42,17.83,58.8,20,69.06c.81.08,1.65.15,2.51.2C20.31,58.93,18.47,48.5,18.62,37.9Z"/><path class="d" d="M9.26,67.09c.74.2,1.59.41,2.54.63-1.75-10.52-3.57-21-4.86-31.62-.82-.17-1.65-.36-2.49-.56C5.72,46.11,7.51,56.6,9.26,67.09Z"/><path class="d" d="M50.73,33.44c-.74.26-1.57.54-2.49.82-1,10.4-1.89,20.8-2.27,31.24.82-.36,1.64-.75,2.45-1.17C48.84,54,49.77,43.72,50.73,33.44Z"/></g></svg>