<svg xmlns="http://www.w3.org/2000/svg" xmlns:xlink="http://www.w3.org/1999/xlink" viewBox="0 0 61.32 84.69"><defs><style>.a{isolation:isolate;}.b,.c{fill:#840034;}.c{opacity:0.3;mix-blend-mode:multiply;}.d{fill:#fff;}.e{fill:url(#a);}.f{fill:url(#b);}.g{fill:url(#c);}.h{fill:url(#d);}.i{fill:url(#e);}</style><linearGradient id="a" x1="41.85" y1="19.92" x2="50.42" y2="19.92" gradientUnits="userSpaceOnUse"><stop offset="0.16" stop-color="#fe0034"/><stop offset="1" stop-color="#fe0034"/></linearGradient><linearGradient id="b" x1="19.23" y1="51.99" x2="30.28" y2="51.99" xlink:href="#a"/><linearGradient id="c" x1="26.66" y1="40.01" x2="36.8" y2="40.01" xlink:href="#a"/><linearGradient id="d" x1="33.41" y1="27.83" x2="44.37" y2="27.83" xlink:href="#a"/><linearGradient id="e" x1="12.05" y1="62.71" x2="21.24" y2="62.71" xlink:href="#a"/></defs><title>Asset 9</title><g class="a"><polygon class="b" points="41.17 15.32 43.18 0 47.21 7.66 52.05 3.63 52.05 11.69 61.32 10.08 48.02 18.54 41.17 15.32"/><path class="c" d="M52.05,10V3.63l-.75.62L45.47,14.91l1.64-7.45L43.18,0l-.41,3.14c.69,3.75,1.89,8.55,1.89,8.55l-2.91-.83-.58,4.46L46.89,18Z"/><polygon class="c" points="60.88 10.15 46.97 18.05 48.02 18.54 61.32 10.08 60.88 10.15"/><polygon class="b" points="11.9 64.84 0 74.7 8.63 74.04 7.79 80.28 14.62 75.99 18.19 84.69 18.27 68.93 11.9 64.84"/><path class="c" d="M13.18,76.89,7.79,80.28l.13-1L13.84,68.7,8.4,74.06,0,74.7l2.44-2c3.54-1.41,8.24-3,8.24-3l-2.25-2,3.47-2.87,5.32,3.42Z"/><polygon class="c" points="18.02 84.28 17.3 68.3 18.27 68.93 18.19 84.69 18.02 84.28"/><path class="d" d="M25.87,66.46a8.26,8.26,0,0,1-11.3,3h0a8.26,8.26,0,0,1-3-11.3L35.36,17.39a8.27,8.27,0,0,1,11.3-3h0a8.27,8.27,0,0,1,3,11.31Z"/><path class="e" d="M44.65,13.58a8.08,8.08,0,0,0-2.8-.26c2.3,4.48,5,8.74,7.3,13.23l.49-.83a8.47,8.47,0,0,0,.78-1.85C48.56,20.42,46.5,17.06,44.65,13.58Z"/><path class="f" d="M28.87,61.32l1.41-2.42c-3.11-5.47-6.43-10.83-9.66-16.24l-1.39,2.39C22.48,50.46,25.78,55.83,28.87,61.32Z"/><path class="g" d="M28.14,29.78,26.66,32.3c2.83,6,5.8,12,8.67,17.94l1.47-2.51C33.91,41.74,30.94,35.8,28.14,29.78Z"/><path class="h" d="M34.79,18.36l-1.38,2.37c3.38,5.42,6.88,10.79,9.47,16.57l1.49-2.54C41.63,29.09,38.11,23.77,34.79,18.36Z"/><path class="i" d="M21.24,70.16C18.93,64.94,15.9,60,13.5,54.87l-1.45,2.49c2.19,4.41,4.72,8.68,6.74,13.19A8.48,8.48,0,0,0,21.24,70.16Z"/><path class="c" d="M46.66,14.41a8.27,8.27,0,0,0-10.88,2.34,33.91,33.91,0,0,1,8.54-.22c9.07,1-18.34,49.78-25,48.37-4.77-1-6.63-5-7.3-7.5l-.43.73a8.26,8.26,0,0,0,14.27,8.33L49.64,25.72A8.27,8.27,0,0,0,46.66,14.41Z"/></g></svg>